<svg width="19" height="15" viewBox="0 0 19 15" fill="none" xmlns="http://www.w3.org/2000/svg">
<path d="M18.8453 7.85429L11.847 14.8525C11.7495 14.95 11.6221 15 11.4946 15C11.3672 15 11.2397 14.95 11.1422 14.8525C10.9473 14.6576 10.9473 14.3402 11.1422 14.1452L17.2882 7.99925H0.499875C0.222444 7.99925 0 7.77681 0 7.49938C0 7.22194 0.222444 6.9995 0.499875 6.9995H17.2882L11.1422 0.853537C10.9473 0.658585 10.9473 0.341165 11.1422 0.146213C11.3372 -0.0487378 11.6546 -0.0487378 11.8495 0.146213L18.8478 7.14446C19.0427 7.33942 19.0427 7.65684 18.8478 7.85179L18.8453 7.85429Z" fill="#D1D1D1"/>
</svg>
