<svg width="20" height="24" viewBox="0 0 20 24" fill="none" xmlns="http://www.w3.org/2000/svg">
<path fill-rule="evenodd" clip-rule="evenodd" d="M18.7117 23.9511C19.0357 23.8551 19.2997 23.6391 19.4557 23.3511C19.5516 23.1711 19.5996 22.9671 19.5996 22.7631V4.54782C19.5636 1.28395 16.9358 0 13.6839 0H6.28016C3.04029 0 0.400391 1.28395 0.400391 4.54782V22.7631C0.400391 23.4351 0.94037 23.9871 1.61234 23.9871C1.81634 23.9871 2.02153 23.9259 2.20032 23.8311L9.98802 19.9432L17.7637 23.8311C18.0517 23.9991 18.3997 24.0471 18.7117 23.9511ZM17.5996 4.55988C17.5862 3.55548 17.221 3.04365 16.7202 2.70182C16.1107 2.28581 15.0937 2 13.6839 2H6.28016C4.8763 2 3.86059 2.28584 3.25503 2.70035C2.75946 3.03956 2.40039 3.54536 2.40039 4.54782V21.4958L9.98871 17.7075L17.5996 21.513V4.55988Z" fill="#A776E4"/>
<rect x="4.40039" y="6" width="11" height="2" rx="1" fill="#A776E4"/>
</svg>
