<svg width="20" height="25" viewBox="0 0 20 25" fill="none" xmlns="http://www.w3.org/2000/svg">
<path d="M13.8251 0H5.93033C2.66388 0 0.00927734 2.65461 0.00927734 5.92105V23.023C0.00927734 23.7599 0.413873 24.4309 1.06848 24.7697C1.71979 25.1118 2.50269 25.0625 3.10796 24.6447L9.50269 20.2171C9.72638 20.0592 10.029 20.0625 10.2527 20.2171L16.6507 24.648C16.9895 24.8816 17.381 25 17.7757 25C18.0882 25 18.404 24.9243 18.6935 24.773C19.3448 24.4309 19.7494 23.7599 19.7494 23.023V5.92105C19.7494 2.65461 17.0948 0 13.8284 0H13.8251ZM18.4303 23.023C18.4303 23.3816 18.1836 23.5493 18.0783 23.6053C17.9698 23.6612 17.6935 23.7664 17.3974 23.5625L10.9994 19.1316C10.6639 18.898 10.2691 18.7829 9.8777 18.7829C9.48625 18.7829 9.08821 18.898 8.75268 19.1316L2.35795 23.5592C2.154 23.7007 1.89744 23.7171 1.67704 23.602C1.45665 23.4868 1.32507 23.2697 1.32507 23.0197V5.92105C1.32507 3.38158 3.39086 1.31579 5.93033 1.31579H13.8251C16.3645 1.31579 18.4303 3.38158 18.4303 5.92105V23.023Z" fill="#BDBDBD"/>
</svg>
