<svg width="16" height="20" viewBox="0 0 16 20" fill="none" xmlns="http://www.w3.org/2000/svg">
<path fill-rule="evenodd" clip-rule="evenodd" d="M15.2594 19.9592C15.5294 19.8792 15.7494 19.6992 15.8794 19.4592C15.9594 19.3093 15.9994 19.1393 15.9994 18.9693V3.78985C15.9694 1.06996 13.7795 0 11.0696 0H4.89981C2.19991 0 0 1.06996 0 3.78985V18.9693C0 19.5292 0.449983 19.9892 1.00996 19.9892C1.17995 19.9892 1.35095 19.9382 1.49994 19.8592L7.98969 16.6194L14.4694 19.8592C14.7094 19.9992 14.9994 20.0392 15.2594 19.9592ZM14.3327 3.7999C14.3215 2.9629 14.0171 2.53637 13.5998 2.25152C13.0919 1.90484 12.2444 1.66667 11.0696 1.66667H4.89981C3.72992 1.66667 2.8835 1.90486 2.37886 2.25029C1.96589 2.53297 1.66667 2.95447 1.66667 3.78985V17.9132L7.99027 14.7563L14.3327 17.9275V3.7999Z" fill="#A776E4"/>
<rect x="3.33325" y="5" width="9.16667" height="1.66667" rx="0.833333" fill="#A776E4"/>
</svg>
