<svg width="16" height="20" viewBox="0 0 16 20" fill="none" xmlns="http://www.w3.org/2000/svg">
<path d="M11.0698 0C13.7797 0 15.9696 1.06996 15.9996 3.78985V18.9693C15.9996 19.1393 15.9596 19.3093 15.8796 19.4592C15.7496 19.6992 15.5296 19.8792 15.2597 19.9592C14.9997 20.0392 14.7097 19.9992 14.4697 19.8592L7.98993 16.6194L1.50019 19.8592C1.35119 19.9382 1.1802 19.9892 1.01021 19.9892C0.450227 19.9892 0.000244141 19.5292 0.000244141 18.9693V3.78985C0.000244141 1.06996 2.20016 0 4.90005 0H11.0698ZM11.7498 6.03977H4.22008C3.7901 6.03977 3.44011 6.38975 3.44011 6.82974C3.44011 7.26872 3.7901 7.6197 4.22008 7.6197H11.7498C12.1798 7.6197 12.5298 7.26872 12.5298 6.82974C12.5298 6.38975 12.1798 6.03977 11.7498 6.03977Z" fill="#A776E4"/>
</svg>
