<svg width="16" height="20" viewBox="0 0 16 20" fill="none" xmlns="http://www.w3.org/2000/svg">
<path d="M15.3229 12.5859C15.4024 12.7447 15.3947 12.9344 15.2998 13.0856C15.205 13.2368 15.041 13.3291 14.8642 13.3291H2.05023V18.9749C2.05023 19.5413 1.59149 20 1.02512 20C0.458739 20 0 19.5413 0 18.9749V11.7991C0 11.7991 0 11.7965 0 11.794V4.61302C0 2.06817 2.06817 0 4.61302 0H14.8642C15.041 0 15.2076 0.0922604 15.2998 0.243465C15.3947 0.394669 15.4024 0.581753 15.3229 0.743209L12.7063 5.97642C12.491 6.40697 12.491 6.92209 12.7063 7.35264L15.3229 12.5859Z" fill="#C84646"/>
</svg>
