<svg width="17" height="20" viewBox="0 0 17 20" fill="none" xmlns="http://www.w3.org/2000/svg">
<path d="M11.3861 0H5.07034C2.45718 0 0.333496 2.12368 0.333496 4.73684V18.4184C0.333496 19.0079 0.657173 19.5447 1.18086 19.8158C1.70191 20.0895 2.32823 20.05 2.81244 19.7158L7.92823 16.1737C8.10718 16.0474 8.34929 16.05 8.52824 16.1737L13.6466 19.7184C13.9177 19.9053 14.2309 20 14.5467 20C14.7967 20 15.0493 19.9395 15.2808 19.8184C15.8019 19.5447 16.1256 19.0079 16.1256 18.4184V4.73684C16.1256 2.12368 14.0019 0 11.3888 0H11.3861ZM15.0703 18.4184C15.0703 18.7053 14.873 18.8395 14.7887 18.8842C14.7019 18.9289 14.4809 19.0132 14.244 18.85L9.12561 15.3053C8.85719 15.1184 8.54139 15.0263 8.22823 15.0263C7.91508 15.0263 7.59664 15.1184 7.32822 15.3053L2.21243 18.8474C2.04927 18.9605 1.84402 18.9737 1.66771 18.8816C1.49139 18.7895 1.38613 18.6158 1.38613 18.4158V4.73684C1.38613 2.70526 3.03876 1.05263 5.07034 1.05263H11.3861C13.4177 1.05263 15.0703 2.70526 15.0703 4.73684V18.4184Z" fill="white"/>
</svg>
