<svg width="20" height="20" viewBox="0 0 20 20" fill="none" xmlns="http://www.w3.org/2000/svg">
<path d="M20 10C20 15.5132 15.5132 20 10 20C4.48684 20 0 15.5132 0 10C0 4.48684 4.48684 0 10 0C15.5132 0 20 4.48684 20 10ZM18.9474 10C18.9474 5.06579 14.9342 1.05263 10 1.05263C5.06579 1.05263 1.05263 5.06579 1.05263 10C1.05263 14.9342 5.06579 18.9474 10 18.9474C14.9342 18.9474 18.9474 14.9342 18.9474 10Z" fill="#696969"/>
<path d="M10.7421 10L13.529 7.21316H13.5342C13.7395 7.00789 13.7395 6.67368 13.5342 6.46842C13.329 6.26316 12.9948 6.26316 12.7895 6.46842L10.0027 9.25526L7.21581 6.46842C7.01055 6.26316 6.67635 6.26316 6.47109 6.46842C6.26582 6.67368 6.26582 7.00789 6.47109 7.21316L9.25792 10L6.47109 12.7868C6.26582 12.9921 6.26582 13.3263 6.47109 13.5316C6.57372 13.6342 6.70794 13.6868 6.84215 13.6868C6.97636 13.6868 7.11058 13.6342 7.21321 13.5316L10 10.7447L12.7869 13.5316C12.8895 13.6342 13.0237 13.6868 13.1579 13.6868C13.2921 13.6868 13.4264 13.6342 13.529 13.5316C13.7343 13.3263 13.7343 12.9921 13.529 12.7868L10.7421 10Z" fill="#696969"/>
</svg>
