<svg width="14" height="16" viewBox="0 0 14 16" fill="none" xmlns="http://www.w3.org/2000/svg">
<path d="M10.8388 7.24501C11.0536 7.09182 11.2234 6.897 11.3483 6.65888C11.4732 6.42077 11.5689 6.16016 11.6372 5.87709C11.7055 5.59402 11.7787 5.32261 11.8578 5.06119C12.1975 5.42419 12.3932 5.80882 12.444 6.21678C12.4947 6.62474 12.4581 7.0327 12.3332 7.43982C12.2083 7.84778 12.0218 8.24409 11.7729 8.62957C11.524 9.01504 11.2684 9.36056 11.0086 9.66611C10.1927 10.6627 9.31765 11.4978 8.38351 12.1721C7.44937 12.8457 6.52273 13.3844 5.60524 13.7865C4.68775 14.1886 3.81271 14.4684 2.98015 14.6274C2.14758 14.7856 1.42574 14.8538 0.813799 14.8314C0.395017 14.8197 0.140246 14.8339 0.0494964 14.8738C-0.0412536 14.9138 -0.00711052 14.9729 0.151078 15.052C0.310098 15.1311 0.579013 15.2218 0.957832 15.3242C1.33748 15.4258 1.7879 15.5224 2.30826 15.6132C2.82944 15.7039 3.40391 15.783 4.0325 15.8513C4.66109 15.9195 5.30967 15.9645 5.97823 15.987C6.2613 15.987 6.51356 15.9703 6.73419 15.9362C6.95482 15.9021 7.16713 15.8454 7.37111 15.7663C7.57509 15.6872 7.78157 15.5799 7.99137 15.4433C8.20118 15.3076 8.44179 15.1378 8.7132 14.9338C10.4233 13.5409 11.6555 11.9432 12.409 10.1423C13.1625 8.34149 13.5388 6.36497 13.5388 4.21278C13.5163 3.65829 13.3914 3.12796 13.165 2.62426C12.9385 2.12055 12.6663 1.67262 12.349 1.28215C12.0318 0.891673 11.6946 0.580295 11.3383 0.348008C10.9811 0.115721 10.6614 0 10.3783 0C10.1519 0 9.92794 0.0932371 9.70731 0.280565C9.48668 0.46706 9.27935 0.711005 9.08703 1.01156C8.8947 1.31212 8.71571 1.65181 8.55169 2.03063C8.38768 2.41028 8.24615 2.78992 8.12709 3.16874C8.00804 3.54839 7.91478 3.9139 7.84651 4.26441C7.77824 4.61576 7.74494 4.91632 7.74494 5.16526C7.74494 5.50495 7.80989 5.81716 7.9406 6.0994C8.07048 6.38247 8.24365 6.62642 8.45845 6.8304C8.67326 7.03438 8.91386 7.19339 9.18028 7.30579C9.44587 7.41902 9.7098 7.47564 9.97039 7.47564C10.3326 7.47564 10.6215 7.39904 10.8371 7.24668L10.8388 7.24501ZM9.71729 3.15876C10.0228 3.1929 10.3858 3.47596 10.8046 4.00798C10.8496 4.07625 10.8354 4.13869 10.7622 4.19447C10.6881 4.25109 10.5782 4.29605 10.4308 4.33019C10.2834 4.36433 10.1219 4.3843 9.94624 4.3893C9.77057 4.39513 9.60905 4.38097 9.46168 4.34684C9.31432 4.3127 9.19528 4.26191 9.10453 4.19364C9.01378 4.12537 8.98547 4.02962 9.0196 3.90474C9.17779 3.37273 9.41007 3.12296 9.71645 3.15709L9.71729 3.15876Z" fill="#2B1F0D"/>
</svg>
