<svg width="20" height="25" viewBox="0 0 20 25" fill="none" xmlns="http://www.w3.org/2000/svg">
<path d="M19.7359 5.92176V23.0258C19.7359 23.7627 19.3313 24.4306 18.6799 24.7727C18.3904 24.924 18.0778 24.9997 17.762 24.9997C17.3672 24.9997 16.9757 24.8813 16.6401 24.6477L10.2414 20.2162C10.0176 20.0583 9.71826 20.0583 9.49126 20.2162L3.09576 24.6477C2.49042 25.0688 1.71072 25.1148 1.05603 24.7727C0.404641 24.4306 0 23.7627 0 23.0258V5.92176C0 2.65492 2.65492 0 5.92176 0H13.8174C17.0843 0 19.7392 2.65492 19.7392 5.92176H19.7359Z" fill="#D1D1D1"/>
</svg>
