<svg width="368" height="128" viewBox="0 0 368 128" fill="none" xmlns="http://www.w3.org/2000/svg">
<path d="M171.739 0.74572C171.118 1.93935 170.589 4.05117 170.589 5.2448C170.589 6.14003 170.704 6.30071 172.383 7.88457C175.121 10.4784 176.778 12.2459 177.537 13.3477C179.861 16.6991 181.403 23.1723 181.403 29.6454C181.403 31.8261 181.081 36.417 180.827 37.8861C180.39 40.3881 182.461 35.6366 183.588 31.6195C184.555 28.1304 184.946 25.0775 184.739 22.805C183.842 12.8198 180.413 5.70389 174.385 1.25072C172.245 -0.333141 172.291 -0.310184 171.739 0.74572Z" fill="#A776E4"/>
<path d="M195.576 1.93935C194.863 3.01822 194.425 5.56617 194.425 8.66502C194.402 11.3277 194.448 11.7639 194.932 12.728C196.496 15.8957 198.889 16.0105 201.581 13.0493L202.754 11.7868L203.744 12.728C204.986 13.8986 206.298 14.4955 207.632 14.5184C209.657 14.5184 210.393 13.3937 210.393 10.2948C210.393 7.7698 209.887 5.15298 209.013 3.31662C208.46 2.14595 208.253 1.87049 208.023 2.10004C207.586 2.53617 207.54 5.4973 207.954 7.24185C208.691 10.4096 208.276 11.8557 206.62 11.8557C206.022 11.8557 205.607 11.695 205.193 11.2589C204.687 10.7768 204.549 10.3177 204.273 8.11412C203.928 5.56617 203.1 2.78867 202.639 2.65094C202.294 2.53617 201.88 5.10708 201.88 7.42548C201.88 9.49139 201.627 10.203 200.73 10.8916C199.441 11.8327 197.071 11.5114 196.657 10.3177C196.565 10.0423 196.496 8.04525 196.473 5.86458C196.473 1.6639 196.289 0.860494 195.576 1.93935Z" fill="#A776E4"/>
<path d="M144.405 4.46437C143.462 5.8646 143.186 6.4155 142.841 7.74686C142.565 8.75687 142.611 9.92754 143.232 17.9616L143.945 27.0057L143.301 27.5336C142.082 28.5207 137.825 31.4589 135.57 32.8591C133.223 34.3282 128.484 37.0139 128.231 37.0139C128.161 37.0139 128.023 36.1645 127.931 35.1086C127.747 32.8132 126.689 23.0116 126.505 21.795L126.367 20.9228L127.793 21.6343C128.576 22.0246 129.266 22.3 129.312 22.2541C129.427 22.1623 124.089 8.18301 123.675 7.44846C123.468 7.08118 123.491 7.01232 121.65 11.1671L120.845 12.9575L121.558 19.0864C121.949 22.4377 122.64 28.2911 123.077 32.0786C123.514 35.8661 123.882 39.1027 123.882 39.2634C123.882 39.6077 123.468 39.5618 119.05 38.5748C114.564 37.5648 110.077 36.1875 102.921 33.6166C90.5199 29.1175 87.5518 28.3371 82.1679 28.1305C78.3945 27.9927 76.3238 28.2223 73.4248 29.1405C71.0089 29.898 70.4797 30.4259 69.2372 33.41C68.662 34.7873 68.2019 36.0039 68.2019 36.1186C68.2019 36.3711 70.7328 36.3711 77.3822 36.1645L82.283 36.0268L82.513 35.3611C82.6511 35.0168 82.7661 34.7184 82.7891 34.7184C82.8582 34.7184 104.233 42.5918 105.682 43.1427C106.143 43.3263 105.567 43.6477 101.311 45.5529C92.7287 49.3863 87.4138 51.1309 82.6741 51.7047C75.4265 52.5541 71.4921 49.2945 70.4567 41.5588L70.1806 39.4929L69.3753 39.6536C67.6957 39.952 63.5772 41.4441 62.1737 42.2704C60.241 43.3723 57.8942 45.7366 56.8818 47.5729C54.65 51.6129 53.9597 57.3515 54.765 64.9265L54.9261 66.3267L52.6483 66.8317C46.6891 68.1861 42.2485 69.7699 37.2097 72.3638C31.7567 75.1642 27.6613 78.1713 22.7375 82.9688C19.8614 85.7922 19.2862 86.2283 17.5376 87.0547C12.7059 89.3042 9.13957 89.1894 7.8281 86.7103C7.41395 85.9528 7.34493 85.4019 7.36794 83.3819C7.36794 81.2931 7.45997 80.6963 8.12721 78.791C9.11657 75.8758 10.7271 72.5704 12.6368 69.4945C13.4881 68.0942 14.5465 66.4186 14.9837 65.7299C15.812 64.3756 15.973 63.4115 15.3978 63.4115C14.9147 63.4115 13.005 65.2249 11.3714 67.199C8.56437 70.6192 6.53964 74.3608 5.57329 77.8729C5.13613 79.5256 5.0441 80.3749 5.0441 83.3819C5.0441 88.2483 5.52727 90.3831 6.93078 91.8981C8.15022 93.2065 10.1289 94.2853 11.9236 94.6067C15.7199 95.2953 20.3446 93.1606 26.3268 87.9728C33.8965 81.4079 41.6273 76.8629 48.5758 74.9576C50.6235 74.3838 51.1987 74.3149 54.742 74.3149C58.1012 74.3149 58.9295 74.3838 60.6091 74.8429C63.117 75.5085 67.6037 77.7122 69.7664 79.3649C70.6868 80.0535 71.5611 80.6274 71.6761 80.6274C71.8142 80.6274 71.8372 81.2242 71.7221 82.1883C71.377 85.0806 71.5611 89.7403 72.0903 91.7603C73.4478 96.971 76.7149 100.46 81.3396 101.654C83.2493 102.159 87.2757 102.159 89.6686 101.654C95.3517 100.437 103.336 96.8103 107.983 93.2983C109.065 92.4949 110.1 91.7603 110.261 91.7144C110.422 91.6456 111.089 91.944 111.757 92.3801C113.896 93.8033 118.406 96.1676 121.696 97.6137C124.733 98.968 134.006 102.205 134.788 102.205C135.248 102.205 135.271 102.113 134.466 103.857C133.614 105.786 132.878 108.54 132.694 110.606C132.579 112.075 132.602 112.282 133.062 112.741C133.591 113.269 134.857 113.383 135.685 112.97C136.79 112.396 137.227 111.8 137.227 110.836V109.917L136.467 110.652C134.972 112.098 134.351 111.409 134.535 108.425C134.581 107.346 134.834 105.556 135.041 104.431C135.386 102.801 135.524 102.434 135.823 102.549C136.583 102.778 143.163 104.248 145.05 104.592C160.35 107.415 177.928 107.645 193.942 105.281C211.682 102.664 226.844 96.6956 235.426 89.0058L236.554 87.9958L236.669 91.5997C236.761 94.0787 236.945 95.9151 237.313 97.499C238.394 102.457 238.785 103.238 241.408 105.808C249.208 113.498 261.472 110.881 272.999 99.0599C275.622 96.3742 277.853 93.6196 278.636 92.0587C279.855 89.6485 280.177 87.7892 280.2 83.1524C280.2 80.811 280.131 78.5156 280.039 78.0565L279.855 77.1842H281.558C285.239 77.1842 287.172 75.1413 288.368 70.0683C288.92 67.6581 289.473 63.8018 289.657 60.8636L289.818 58.6599L291.336 58.4993C293.2 58.3386 298.032 58.3615 300.241 58.5681L301.828 58.7059L304.29 79.4797C305.624 90.911 306.775 100.46 306.844 100.713C307.005 101.401 307.902 98.3712 308.339 95.6626C308.593 93.9869 308.708 91.8062 308.708 87.5138C308.685 80.4667 308.27 75.2561 306.545 61.5063C306.384 60.2897 306.315 59.2338 306.361 59.1649C306.43 59.119 307.764 59.3256 309.352 59.647C310.916 59.9913 312.32 60.2668 312.481 60.2897C312.734 60.3127 316.576 54.0231 316.392 53.8625C316.346 53.8165 315.449 53.61 314.368 53.4263C311.722 52.9213 305.832 51.4981 305.417 51.2456C305.187 51.1079 304.957 49.8913 304.612 47.0679C304.336 44.8872 304.152 43.0509 304.175 43.005C304.198 42.982 304.934 43.3034 305.786 43.7625C306.637 44.2216 307.373 44.5429 307.419 44.497C307.557 44.3593 306.798 40.962 306.2 39.1486C305.486 36.9679 303.738 33.2264 302.541 31.39L301.667 30.0127L300.793 31.0457C300.287 31.6195 299.688 32.6295 299.412 33.3182L298.952 34.5577L299.757 41.3523C300.218 45.0938 300.632 48.537 300.701 48.9961L300.816 49.8454L299.274 49.3175C297.388 48.6747 293.085 46.9761 290.6 45.8743L288.759 45.0938L288 39.8373C287.586 36.9679 287.241 34.5118 287.241 34.42C287.241 34.3052 287.885 34.7184 288.667 35.3152C289.634 36.0727 290.025 36.2793 289.91 35.9579C289.818 35.7284 288.667 32.5836 287.356 28.9798C286.044 25.3759 284.917 22.2541 284.825 22.0246C284.687 21.7032 284.25 22.3459 283.007 24.7791C281.489 27.6943 281.374 27.9927 281.65 28.5436C281.811 28.865 282.087 30.1964 282.294 31.5277C282.777 34.8791 283.583 42.3393 283.467 42.477C283.398 42.5229 281.006 41.3523 278.107 39.8832L272.861 37.2204L270.238 36.9909C263.289 36.417 258.642 38.0468 256.893 41.6736C256.525 42.4541 256.157 43.4182 256.065 43.8313L255.927 44.5429L257.376 44.6807C266.717 45.5988 270.744 45.9661 270.79 45.9202C270.813 45.8743 271.02 45.507 271.227 45.0938L271.618 44.3363L272.354 44.7725C272.769 45.025 275.576 46.6318 278.613 48.3534C281.65 50.075 284.204 51.567 284.296 51.6588C284.388 51.7506 283.099 51.9572 281.42 52.1179C275.069 52.7147 266.879 54.3215 261.357 56.0661C260.091 56.4563 257.491 57.4204 255.581 58.1779C252.705 59.3027 252.038 59.647 251.808 60.152C251.187 61.5063 248.955 64.697 247.828 65.7758C246.401 67.1531 245.021 67.8188 243.548 67.8188C241.339 67.7958 239.591 66.5563 237.405 63.4574C236.577 62.2868 235.863 61.3456 235.817 61.3915C235.771 61.4374 235.219 62.8377 234.598 64.5363L233.424 67.5892L234.667 69.0813C236.024 70.734 237.359 73.0983 237.911 74.8199C238.095 75.4167 238.302 76.8629 238.394 77.9876L238.532 80.0765L237.06 81.4079C233.079 85.0117 227.12 88.5008 219.458 91.7144C210.301 95.5478 195.346 98.9221 181.978 100.185C177.698 100.575 162.766 100.575 158.74 100.185C145.165 98.8303 133.269 95.6396 123.169 90.6126C120.546 89.3042 115.139 86.2283 115.139 86.0447C115.139 86.0217 115.484 85.2872 115.921 84.3919C117.21 81.7981 117.532 80.3749 117.555 77.3679V74.6592H119.879C123.123 74.6592 124.802 74.1313 126.528 72.5474C127.977 71.239 128.99 69.4715 129.542 67.2449C129.864 66.0742 129.887 65.1331 129.772 62.0343C129.565 57.2368 129.22 50.9013 129.036 48.8813L128.898 47.2975L129.496 47.3893C130.071 47.4582 130.232 47.2286 132.027 43.9002L133.937 40.3423L131.383 40.2045C129.979 40.1127 128.691 40.0438 128.553 40.0209C128.369 39.9979 128.254 39.6307 128.254 39.0109V38.0238L130.623 37.1516C133.799 35.9809 138.906 33.4559 141.713 31.6425C143.669 30.357 144.037 30.1964 144.175 30.5407C144.244 30.7473 144.543 33.915 144.82 37.5877C145.096 41.2375 145.648 48.4681 146.062 53.6559C146.476 58.8206 146.798 63.0902 146.775 63.1361C146.752 63.159 146.2 62.7229 145.556 62.149C142.565 59.4634 140.241 54.2527 139.159 47.9172C138.975 46.7695 138.768 43.8773 138.676 41.49C138.538 37.1745 138.4 36.0957 137.917 36.0957C137.273 36.0957 137.043 37.6795 136.882 43.4411C136.652 52.2327 137.043 55.1479 139.044 59.3945C141.046 63.6181 143.347 66.6252 145.878 68.2779C146.821 68.8977 147.35 69.4027 147.35 69.6781C147.35 69.9076 147.442 71.3079 147.58 72.777C147.696 74.2461 148.064 78.7681 148.386 82.8081C148.708 86.8251 149.007 90.1765 149.053 90.1994C149.214 90.3601 150.18 86.4349 150.48 84.4149C150.917 81.5456 151.262 76.4956 151.262 72.8688C151.262 69.8847 151.262 69.8388 151.791 69.8388C152.596 69.8388 154.529 68.8058 155.311 67.9795C157.589 65.5233 158.601 61.9883 160.005 51.8195C160.879 45.4611 161.431 42.9361 162.421 40.8013C163.088 39.3552 164.215 37.932 164.469 38.1845C164.515 38.2304 164.308 39.5159 164.008 41.0309C162.743 47.1597 161.938 54.574 162.191 57.6729C162.352 59.7388 162.904 62.4474 163.387 63.5952C164.008 65.1102 165.826 67.5663 167.299 68.9206C168.932 70.3897 171.164 71.6751 173.212 72.249C175.236 72.8458 179.355 72.6392 181.449 71.8588C185.866 70.2061 189.502 66.694 191.825 61.8736C192.263 60.9554 192.7 59.9913 192.792 59.6929C192.907 59.3027 193.022 59.6011 193.252 60.9324C193.873 64.6511 195.277 67.4974 197.301 69.242C198.636 70.3897 199.717 70.9176 201.788 71.4456C205.515 72.4097 208.944 72.249 211.198 71.0324C213.177 69.9536 216.26 65.3627 217.526 61.5752C218.216 59.4634 218.4 56.0202 217.894 53.6559C217.687 52.6459 216.03 46.9532 214.236 41.0309C212.05 33.892 211.014 30.2193 211.198 30.1734C211.359 30.1275 212.234 30.3111 213.177 30.5636C214.097 30.8161 214.903 30.9998 214.926 30.9539C214.949 30.9309 213.2 28.2911 211.037 25.1005C208.46 21.313 207.034 19.4078 206.942 19.6143C206.85 19.775 206.436 21.2441 206.022 22.8968L205.262 25.8809L208.322 37.1286C210.002 43.3034 212.119 51.1538 213.039 54.574L214.719 60.7718L214.167 61.7359C213.039 63.687 210.853 64.7888 207.839 64.9724C202.271 65.2708 199.05 62.1949 197.439 55.0331C196.91 52.6918 196.427 48.5141 195.898 41.6048C195.185 32.1934 194.563 28.2911 193.091 24.2282C192.493 22.5755 190.698 19.3618 190.514 19.5914C190.468 19.6373 189.847 21.2671 189.11 23.2182C187.799 26.6614 187.776 26.7761 188.029 27.9239C188.167 28.5666 188.765 31.1605 189.341 33.6855C190.882 40.4341 191.388 44.6807 191.204 49.5241C191.02 55.0102 190.767 56.089 189.156 58.2009C186.81 61.2309 183.957 63.5493 181.288 64.5363C176.87 66.189 173.028 65.4315 169.876 62.2868C167.138 59.5552 165.987 56.5252 165.826 51.5441C165.688 47.6877 166.056 44.9561 167.276 41.1457C169.231 35.0168 169.945 28.6355 168.863 27.0057C168.288 26.1334 167.667 26.3171 166.24 27.8091C165.32 28.7732 164.515 29.9668 163.41 32.1016C159.66 39.3782 157.727 45.5759 157.014 52.6229C156.646 56.0431 156.186 57.9713 155.15 60.129C154.23 62.0572 152.987 63.3886 151.745 63.8247L151.124 64.0543L150.848 59.3027C150.526 54.1838 149.49 41.6048 148.639 32.7673L148.11 27.2582L151.354 24.1134C153.148 22.3918 155.38 20.0964 156.301 19.0175L157.98 17.0434H160.442C163.157 17.0434 164.1 16.745 164.929 15.5973C165.366 15.0234 165.412 14.6103 165.412 12.0394C165.412 9.37664 165.366 9.00936 164.814 7.86164C164.469 7.173 163.847 6.25482 163.433 5.81869C162.536 4.90051 160.304 3.82165 158.947 3.5921L158.003 3.45438L157.06 6.4155C156.531 8.04527 155.633 10.4325 155.058 11.741L154 14.1282L155.081 15.23L156.186 16.3548L155.61 16.9516C155.311 17.2959 153.448 18.9946 151.492 20.7391L147.926 23.9068L147.742 22.5984C147.65 21.8868 147.604 20.808 147.627 20.1882L147.696 19.1093L149.26 20.1423C150.111 20.7162 150.802 21.0834 150.802 20.9457C150.802 19.3848 149.536 13.6921 148.501 10.6162C147.673 8.18301 145.556 3.50028 145.257 3.50028C145.165 3.50028 144.773 3.93642 144.405 4.46437ZM158.532 9.81277C159.039 10.5932 159.016 11.9934 158.486 12.3837C157.497 13.1182 156.462 10.5014 157.382 9.60618C157.865 9.10118 158.095 9.14709 158.532 9.81277ZM162.904 11.3507C163.088 11.695 163.226 12.3378 163.226 12.7969V13.6003H161.984C161.293 13.6003 160.672 13.5084 160.603 13.3937C160.534 13.3019 160.672 12.8198 160.925 12.3378C161.178 11.8328 161.454 11.0982 161.524 10.685C161.662 9.92754 161.685 9.92754 162.122 10.3178C162.375 10.5473 162.72 11.0064 162.904 11.3507ZM124.894 47.8713C124.963 48.2845 125.4 51.8654 125.838 55.8365C126.298 59.8077 126.758 63.7329 126.85 64.5593C126.988 65.5463 126.965 66.1431 126.804 66.3497C126.344 66.9236 123.537 68.1861 122.179 68.4386C120.684 68.714 119.349 68.5074 117.9 67.7729C116.634 67.1302 114.633 64.8118 113.62 62.7918L112.723 61.0472L111.711 64.2149L110.698 67.3827L112.769 74.2461L114.84 81.0865L113.367 82.4638L111.895 83.841L110.123 82.4179C107.799 80.5585 103.52 76.3808 101.656 74.1772C98.5038 70.4127 95.7198 65.7758 92.9818 59.7388C92.6367 58.9813 92.6137 59.2797 92.6137 65.0183L92.5907 71.0783L94.5924 74.5904C97.2844 79.319 98.964 81.5226 102.737 85.2642L105.912 88.409L103.957 89.5797C99.9763 91.9899 95.0526 94.0099 91.0951 94.8821C90.3359 95.0428 88.3801 95.1806 86.7235 95.1806C84.2156 95.1806 83.5024 95.0887 82.2369 94.6526C75.4955 92.3112 73.3557 85.3331 76.0477 74.4067C76.853 71.0783 76.899 70.2979 76.2778 70.2979C75.9557 70.2979 75.6566 70.6651 75.2424 71.5374C74.9203 72.2261 74.6442 72.9147 74.6442 73.0754C74.6442 73.2131 74.2991 72.8917 73.8619 72.3408C72.8035 70.9636 70.9629 69.6552 66.5223 67.199C62.1047 64.7429 60.8622 63.8936 59.1596 62.0343C57.7791 60.5652 56.4676 58.2009 56.4676 57.2138C56.4676 56.3415 58.4694 53.61 60.7242 51.3834C63.071 49.065 64.9577 47.9861 66.7754 47.9402L68.0408 47.9172L68.3399 49.6618C68.9842 53.3345 70.5257 56.135 72.8035 57.627C76.922 60.3815 83.3413 59.4404 93.2809 54.62C95.2366 53.6559 98.3197 52.4622 101.564 51.3834C109.226 48.8584 114.886 47.6877 120.96 47.3663C122.57 47.2975 124.089 47.2057 124.342 47.1827C124.687 47.1597 124.825 47.3204 124.894 47.8713ZM285.492 59.4404C287.08 67.6122 287.08 68.0024 285.837 69.2879C284.641 70.5274 281.305 71.2161 278.337 70.8717L277.002 70.734L276.105 69.1961C275.599 68.3467 274.839 67.1072 274.402 66.4186L273.62 65.179L272.262 68.3238C271.503 70.0683 270.905 71.5833 270.905 71.6751C270.905 71.7899 271.549 72.8458 272.354 74.0165C275.092 78.0335 276.864 81.7522 277.692 85.1494L278.107 86.8251L276.772 88.5926C275.092 90.8192 271.342 94.5378 268.995 96.3053C263.657 100.299 258.181 102.549 253.143 102.824C250.128 102.985 248.38 102.687 246.102 101.585C242.053 99.6796 239.637 95.5019 238.946 89.2124C238.854 88.1794 238.647 87.1694 238.532 86.9399C238.348 86.6415 238.486 86.2742 239.061 85.4249C240.396 83.4508 241.063 80.9488 241.569 76.1972C241.707 75.0265 241.776 74.8888 242.26 74.8888C242.536 74.8888 243.548 74.4986 244.468 74.0395C246.47 73.0295 249.76 69.9076 250.658 68.1861L251.233 67.0842L251.624 69.0354C252.59 73.9706 255.512 77.2531 258.918 77.2531C260.505 77.2531 261.357 76.8399 262.576 75.4626C264.647 73.1213 264.762 68.8747 262.852 63.9624C262.392 62.7688 262.277 62.2179 262.461 62.149C263.611 61.7588 275.323 60.0143 283.905 58.9813C285.331 58.7977 285.354 58.7977 285.492 59.4404ZM257.721 66.5793C260.39 68.6911 261.794 71.8817 259.493 70.6422C257.928 69.8158 255.42 66.5793 255.835 65.9365C256.088 65.5233 256.594 65.684 257.721 66.5793Z" fill="#A776E4"/>
<path d="M109.732 55.7447C103.151 58.4534 97.6295 60.8406 97.4914 61.0472C97.1463 61.5063 97.1003 62.172 97.3994 62.3786C97.5375 62.4474 100.92 61.162 104.946 59.5552C108.973 57.9254 114.288 55.7906 116.749 54.8036C119.211 53.8166 121.42 52.8066 121.65 52.577C122.041 52.1179 122.202 50.7866 121.88 50.7866C121.765 50.8095 116.312 53.0361 109.732 55.7447Z" fill="#A776E4"/>
<path d="M82.1909 69.9995L80.6494 71.9965L82.421 73.9706C85.297 77.1842 84.9519 76.9317 85.4121 76.3349C85.6191 76.0824 86.4244 75.1183 87.1607 74.2001L88.5182 72.5704L86.2404 70.2749C84.9979 69.0354 83.9165 68.0024 83.8475 68.0024C83.7555 68.0024 83.0192 68.8976 82.1909 69.9995Z" fill="#A776E4"/>
<path d="M84.0086 79.5485C83.2723 80.8569 82.6971 82.0276 82.6971 82.1653C82.6971 82.3031 83.1112 82.6933 83.6174 83.0376C84.1236 83.3819 85.32 84.4838 86.2864 85.4938C87.2527 86.5037 88.058 87.2842 88.104 87.2383C88.3111 87.0317 91.2102 82.0965 91.2102 81.9588C91.2102 81.7522 85.7802 77.1842 85.5041 77.1842C85.3891 77.1842 84.7218 78.2631 84.0086 79.5485Z" fill="#A776E4"/>
<path d="M251.256 82.5097C250.52 83.6344 250.128 85.9299 250.105 89.1206C250.082 92.0587 250.128 92.2883 250.704 93.3901C252.36 96.5349 254.707 96.5349 257.491 93.3901L258.457 92.3112L259.401 93.2294C261.771 95.5249 264.624 95.7315 265.682 93.7115C266.05 93.0228 266.096 92.4949 266.004 90.0387C265.889 87.0547 265.291 84.6215 264.279 82.9228L263.818 82.2113L263.565 82.9458C263.197 84.0247 263.266 85.9758 263.749 88.2024C263.979 89.2583 264.141 90.2453 264.118 90.3831C264.071 90.4978 263.979 90.8881 263.91 91.2324C263.818 91.6226 263.496 92.0128 263.082 92.2194C262.484 92.5408 262.3 92.5408 261.61 92.2424C260.62 91.8292 260.183 91.0258 259.999 89.1206C259.7 86.1365 258.826 83.1524 258.273 83.1524C257.974 83.1524 257.744 84.5297 257.583 87.6744C257.445 90.1994 257.376 90.5437 256.893 91.0487C255.742 92.2883 253.649 92.3342 252.59 91.1635C252.199 90.7274 252.153 90.2912 252.153 86.5956C252.153 82.2342 251.969 81.4078 251.256 82.5097Z" fill="#A776E4"/>
<path d="M220.126 5.0382C219.067 6.36956 218.423 7.79274 218.285 9.10114C218.216 9.74387 218.492 13.5773 218.883 17.6173C219.274 21.6573 219.965 28.842 220.402 33.5706C220.839 38.2993 221.46 44.8643 221.782 48.1467C222.634 57.0072 224.359 75.3249 224.796 80.0994C225.026 82.4178 225.234 84.2542 225.28 84.2083C225.487 84.0017 226.315 80.7421 226.614 78.9058C227.143 75.7381 227.465 69.219 227.304 65.2478C226.936 55.8824 226.43 49.8454 224.543 32.3081C223.324 20.8768 223.094 18.6502 223.232 18.6502C223.255 18.6502 223.968 19.0863 224.796 19.5913C225.625 20.1193 226.338 20.4866 226.407 20.4177C226.637 20.1882 225.579 15.207 224.773 12.7968C224.037 10.5243 221.874 5.70388 221.138 4.64797C220.816 4.16592 220.793 4.16592 220.126 5.0382Z" fill="#A776E4"/>
<path d="M134.949 6.80571C133.568 11.0982 132.993 16.9516 133.822 18.2371C134.328 18.9946 135.156 19.1323 136.26 18.6502C137.411 18.1223 137.917 17.3189 137.917 15.9646V14.8627L137.204 15.735C136.375 16.745 135.708 16.8368 135.386 15.9875C135.041 15.1152 135.11 10.18 135.501 7.31071C135.685 5.91049 135.8 4.73981 135.754 4.6939C135.685 4.64799 135.34 5.58912 134.949 6.80571Z" fill="#A776E4"/>
<path d="M235.012 6.7598C234.322 7.88457 233.862 9.60616 233.862 11.1441V12.4984L237.267 15.8727C240.35 18.9027 240.764 19.4077 241.638 21.1752C243.847 25.6973 244.56 30.0586 244.353 37.5877C244.284 40.3652 244.169 43.1427 244.1 43.7854L243.962 44.9331L244.399 44.1297C245.159 42.7754 246.493 38.965 247.137 36.3711C247.667 34.2593 247.759 33.4329 247.759 30.4718C247.782 23.9068 245.987 17.5714 242.812 12.8887C241.569 11.0293 238.762 8.22889 236.922 6.96639L235.472 6.0023L235.012 6.7598Z" fill="#A776E4"/>
<path d="M104.555 14.0593C97.7906 16.4466 90.1288 19.1552 87.5289 20.0734C84.6528 21.0834 82.6051 21.9327 82.306 22.2541C81.7308 22.8279 81.5237 24.5266 82.0759 24.3429C82.2139 24.2741 89.9217 21.6114 99.148 18.4207C108.397 15.23 116.128 12.5443 116.335 12.4296C117.187 11.9705 117.854 9.67502 117.164 9.72093C117.002 9.72093 111.319 11.6721 104.555 14.0593Z" fill="#A776E4"/>
<path d="M254.27 12.0393C253.074 13.6232 251.808 16.9516 251.808 18.4895C251.808 19.2241 251.969 19.5454 252.705 20.28C254.201 21.772 256.387 21.5195 257.445 19.7061C259.079 16.9057 258.434 14.5643 255.743 13.4395C255.006 13.1182 254.983 13.0493 255.098 12.2C255.236 11.0982 255.006 11.0752 254.27 12.0393ZM255.558 16.8598C256.387 17.8468 255.812 18.742 254.661 18.2141C254.063 17.9386 253.557 16.9286 253.764 16.4007C253.925 15.9645 255.029 16.217 255.558 16.8598Z" fill="#A776E4"/>
<path d="M269.525 20.2341C263.519 21.7032 257.997 23.1952 257.284 23.5166C254.339 24.8709 251.187 27.2582 250.635 28.5436C250.382 29.1863 250.405 29.3011 250.796 29.5995C251.624 30.2423 253.902 29.7832 262.852 27.1893C267.592 25.7891 272.861 24.2741 274.563 23.792C278.13 22.782 279.763 21.9098 280.499 20.6014C281.075 19.5684 281.236 17.4796 280.753 17.5255C280.592 17.5255 275.53 18.7421 269.525 20.2341Z" fill="#A776E4"/>
<path d="M103.082 20.1882C102.231 22.828 101.978 27.5107 102.599 29.5766C102.99 30.9079 104.302 32.5377 105.13 32.7443C105.751 32.905 107.155 32.4229 107.868 31.7802C108.098 31.5736 108.696 30.9079 109.18 30.3111L110.031 29.2093L110.583 29.852C111.388 30.8161 112.631 31.6654 113.643 31.9638C114.886 32.3311 116.105 31.8491 116.657 30.7932C117.233 29.6684 117.002 24.4577 116.289 22.2082C115.599 20.0275 115.162 19.2241 114.863 19.5225C114.426 19.9586 114.38 22.782 114.771 24.6184C115.277 26.9827 115.254 28.0845 114.656 28.842C114.057 29.5995 113.298 29.5995 112.401 28.865C111.895 28.4288 111.688 28.0157 111.596 27.3041C111.135 23.6314 110.905 22.323 110.491 21.2441C110.261 20.5784 109.962 20.0275 109.847 20.0275C109.594 20.0275 109.364 21.7261 109.18 24.9168C109.019 27.4189 108.973 27.6714 108.42 28.2223C107.983 28.6584 107.5 28.842 106.695 28.9109C105.728 29.0257 105.452 28.9568 104.877 28.4518L104.21 27.8779L104.279 24.1823C104.371 20.28 104.256 19.1093 103.75 19.1093C103.589 19.1093 103.29 19.5914 103.082 20.1882Z" fill="#A776E4"/>
<path d="M234.368 23.5166C232.734 28.0845 231.929 34.1904 232.803 35.4988C233.309 36.3022 234.092 36.44 235.104 35.9809C236.416 35.3611 237.244 33.869 236.922 32.6984C236.807 32.1704 236.761 32.1934 236.116 32.9738C235.288 33.9838 234.621 34.0527 234.391 33.1575C234.092 32.1016 234.253 28.4747 234.782 25.0545C235.058 23.2641 235.219 21.772 235.173 21.7032C235.104 21.6573 234.759 22.4607 234.368 23.5166Z" fill="#A776E4"/>
<path d="M202.018 39.1257C201.052 42.1327 200.707 44.015 200.569 47.2745L200.431 50.2815L201.029 50.8784C201.742 51.5899 202.593 51.6359 203.606 51.0161C204.572 50.4193 205.147 49.2486 204.963 48.2845L204.802 47.5729L204.066 48.4222C203.422 49.1568 203.238 49.2486 202.892 49.042C202.662 48.9043 202.386 48.537 202.317 48.2386C202.041 47.2515 202.11 43.3722 202.455 40.3652C202.639 38.7354 202.754 37.3582 202.708 37.3122C202.662 37.2663 202.363 38.0927 202.018 39.1257Z" fill="#A776E4"/>
<path d="M180.735 42.6836C179.378 43.9002 178.642 45.989 178.481 49.1338L178.343 51.4981L177.652 50.1668C176.41 47.7106 174.615 45.484 172.775 44.1068C171.279 42.982 170.221 42.7525 169.438 43.3952C168.955 43.7854 168.863 44.0838 168.794 45.484C168.725 46.6088 168.794 47.2286 169.001 47.4811C169.162 47.6647 170.382 48.3534 171.716 48.9961C174.707 50.4193 176.456 52.0261 177.215 54.069C177.491 54.8036 177.721 55.6758 177.721 56.0431C177.721 56.8924 177.951 57.0531 178.458 56.594C179.079 56.0431 179.516 54.2067 179.677 51.4752C179.999 46.1268 181.15 44.3593 183.427 45.7365C183.842 45.989 184.233 46.1956 184.302 46.1956C184.463 46.1956 184.21 44.52 183.888 43.4411C183.335 41.5818 182.254 41.3293 180.735 42.6836Z" fill="#A776E4"/>
<path d="M320.074 43.8313C319.061 46.4022 318.302 49.6618 318.141 52.1638C318.026 53.9313 318.072 54.1838 318.532 54.7347C318.877 55.1938 319.245 55.3774 319.752 55.3774C320.672 55.3774 322.167 54.4134 322.467 53.6329C322.674 53.059 322.766 51.7047 322.582 51.7047C322.536 51.7047 322.121 52.072 321.684 52.5081C320.787 53.4034 320.235 53.3804 319.982 52.4393C319.775 51.544 320.097 46.7695 320.58 44.2445C320.81 42.982 320.971 41.9261 320.948 41.8802C320.925 41.8343 320.534 42.7295 320.074 43.8313Z" fill="#A776E4"/>
<path d="M245.504 47.6647C244.676 48.537 244.422 49.019 244.008 50.5111C243.709 51.6358 243.525 52.9902 243.525 54.1379V55.9513L242.444 54.0461C241.846 52.9902 240.741 51.4522 239.959 50.6029C237.06 47.4581 234.92 46.9302 234.299 49.2256C234.161 49.7536 234.115 50.6259 234.207 51.1768L234.345 52.1868L236.738 53.3345C240.534 55.1479 242.444 57.2367 242.766 59.9913C242.835 60.6111 242.973 61.1161 243.065 61.1161C243.87 61.1161 244.653 58.4763 244.676 55.7677C244.676 54.069 245.228 51.3604 245.665 50.7636C246.286 49.9372 246.907 49.8224 248.035 50.3274C248.633 50.5799 249.139 50.7865 249.162 50.7865C249.185 50.7865 249.116 50.1897 249.001 49.4781C248.702 47.6418 248.173 46.7925 247.252 46.7006C246.654 46.6318 246.355 46.7925 245.504 47.6647Z" fill="#A776E4"/>
<path d="M36.4504 48.1697C34.7478 48.6288 33.5744 49.4322 32.7461 50.7406C31.9638 51.9802 31.6187 53.059 31.6187 54.3215C31.6187 55.0561 31.6877 55.1708 32.0328 55.0331C34.0576 54.2067 34.7938 54.1149 38.5212 54.1608C40.6149 54.1838 42.5706 54.2756 42.8697 54.3904C43.3989 54.597 43.2839 54.6888 41.3742 55.8365C40.2698 56.5252 37.6238 57.9942 35.5301 59.0961L31.7337 61.1161H34.8628C39.9707 61.1161 39.6716 61.2308 42.9618 58.2467C47.4944 54.1379 49.7952 50.9243 49.151 49.547C48.8749 48.9272 47.9546 48.6518 44.5493 48.1468C41.7423 47.7106 38.084 47.7336 36.4504 48.1697Z" fill="#A776E4"/>
<path d="M340.275 54.2068C339.194 54.8495 338.365 55.9513 337.974 57.2827C337.514 58.7977 337.1 61.9424 337.284 62.5163C337.56 63.3427 337.215 62.9524 336.18 61.139C333.603 56.7318 329.691 53.9313 328.541 55.6988C328.058 56.4104 327.874 57.6729 328.058 58.7059C328.219 59.5093 328.334 59.6011 330.635 60.657C334.431 62.4474 336.249 64.4904 336.686 67.5204L336.824 68.5763L337.33 68.0713C338.02 67.3827 338.342 66.0513 338.572 62.8377C338.779 59.647 339.079 58.5222 339.815 57.7647C340.482 57.099 340.942 57.0761 342.07 57.6729L342.921 58.132V57.4893C342.921 56.3875 342.254 54.5052 341.702 54.115C341.08 53.6788 341.103 53.6788 340.275 54.2068Z" fill="#A776E4"/>
<path d="M23.2667 61.1849C22.3923 63.5492 22.0012 65.202 21.7021 67.9795C21.403 70.8258 21.6791 71.9506 22.8065 72.3867C23.6118 72.6851 25.1994 72.1113 25.8666 71.2849C26.2577 70.7799 26.5568 68.9206 26.2347 68.9206C26.1657 68.9206 25.8206 69.219 25.4524 69.6092C24.5321 70.5274 23.9109 70.5045 23.5888 69.5863C23.2436 68.5533 23.2667 65.5004 23.6808 62.3556C23.8879 60.8865 24.0029 59.647 23.9569 59.6011C23.9339 59.5552 23.6118 60.2668 23.2667 61.1849Z" fill="#A776E4"/>
<path d="M294.627 64.8117C293.66 67.2679 293.085 69.5174 292.74 72.3179C292.418 74.8199 292.625 75.8299 293.499 76.289C294.212 76.6792 295.432 76.3119 296.329 75.4856C297.042 74.8199 297.134 74.5903 297.134 73.6033V72.4785L296.421 73.3508C295.57 74.3608 294.926 74.4526 294.581 73.5574C294.258 72.754 294.488 68.8976 295.064 65.5922C295.294 64.2149 295.455 63.0442 295.432 62.9983C295.386 62.9754 295.018 63.7788 294.627 64.8117Z" fill="#A776E4"/>
<path d="M355.345 67.1531C355.345 67.2449 355.046 68.6911 354.655 70.3897L353.965 73.4656L357.876 88.0876C360.039 96.1217 361.788 102.985 361.788 103.352C361.788 104.087 361.236 104.385 359.257 104.707C357.83 104.936 356.197 104.73 355.069 104.133C353.873 103.513 351.848 101.286 350.974 99.6108C350.537 98.7614 350.123 98.0728 350.053 98.0728C349.984 98.0728 349.478 98.9221 348.903 99.9321C347.753 102.044 345.498 104.569 343.887 105.625C339.815 108.219 336.686 106.245 336.11 100.69L335.949 99.2435L335.167 100.529C332.084 105.671 327.39 108.861 322.996 108.861C318.371 108.861 315.495 105.441 316.691 101.309C316.807 100.873 316.876 100.483 316.853 100.46C316.83 100.414 315.61 100.758 314.161 101.195C302.748 104.684 288.713 108.288 275.99 111.042C265.475 113.315 253.994 115.426 251.118 115.633C250.036 115.702 244.652 116.115 239.154 116.551C224.865 117.676 213.798 118.456 206.367 118.847C167.069 120.935 134.972 118.617 101.909 111.363C94.5234 109.734 90.865 108.678 86.3094 106.887C67.5576 99.4271 56.8358 92.3342 54.0518 85.5167L53.5456 84.2542L52.7633 85.6085C52.027 86.8481 51.889 86.9399 51.0607 86.9858C48.2997 87.1694 45.3546 87.6056 43.606 88.1106C39.5105 89.3042 34.4257 92.1735 30.3532 95.5937C27.8223 97.7285 19.0561 106.635 16.5482 109.642C13.3731 113.429 8.67941 115.863 6.05646 115.082C1.63887 113.751 1.47781 106.773 5.6193 96.9021C6.97679 93.6655 7.13785 93.1376 6.74671 92.8851C5.73434 92.2653 2.07602 99.3812 0.626501 104.684C0.166335 106.474 0.0282854 107.484 0.00527712 109.78C-0.0177312 112.557 0.00527711 112.695 0.695526 114.164C1.15569 115.105 1.91497 116.184 2.74326 117.01C6.12548 120.385 10.7732 120.844 14.4085 118.158C14.9837 117.722 17.1004 115.495 19.1022 113.177C23.8879 107.645 30.8824 100.667 33.8045 98.486C39.1654 94.5378 44.1122 92.9769 48.0926 93.964L49.105 94.2165V95.2953C49.105 96.9939 49.7492 100.46 50.3704 102.09C51.3138 104.615 53.1544 107.025 54.1208 107.025C54.9031 107.025 56.3756 105.074 57.388 102.641C57.9402 101.332 58.4233 100.208 58.4694 100.162C58.4924 100.116 59.5507 100.667 60.8392 101.378C79.8901 112.167 104.785 119.466 131.245 122.037C138.377 122.749 153.356 123.736 168.633 124.516C176.41 124.907 206.804 124.93 213.959 124.516C248.449 122.588 275.921 118.066 307.902 109.068C310.617 108.311 312.849 107.714 312.895 107.76C312.918 107.806 313.263 108.448 313.654 109.206C315.012 111.914 316.876 113.957 319.107 115.128C319.844 115.541 320.419 115.633 322.098 115.633C324.054 115.633 324.307 115.564 325.918 114.784C327.966 113.774 330.128 111.731 331.969 109.022L333.211 107.232L333.718 108.288C335.811 112.603 338.964 114.233 342.162 112.626C343.841 111.8 345.866 109.55 347.062 107.209L348.075 105.258L348.857 106.543C349.823 108.173 350.79 109.183 352.239 110.124C357.186 113.315 362.11 111.203 364.158 105.005C365.699 100.368 365.078 95.6855 361.236 82.5785C360.43 79.801 359.786 77.5056 359.832 77.4597C359.878 77.4138 360.407 77.6892 361.005 78.0794C361.627 78.4467 362.156 78.7451 362.179 78.6992C362.271 78.6304 355.852 67.5204 355.552 67.199C355.437 67.0842 355.345 67.0613 355.345 67.1531Z" fill="#A776E4"/>
<path d="M315.61 69.2649C315.081 69.6322 314.621 70.8947 314.621 71.9965C314.621 72.5244 314.69 72.6162 315.035 72.4785C315.909 72.1112 317.52 72.0883 317.796 72.4326C318.049 72.7081 317.888 72.8917 316.83 73.4885C315.38 74.2919 314.529 75.3937 314.023 77.0924C313.631 78.4926 313.539 78.0335 315.725 85.9069C316.645 89.1205 317.681 92.8392 318.026 94.1705C318.693 96.5348 318.716 96.5578 318.877 95.6855C318.969 95.2035 318.992 93.7114 318.923 92.3571C318.785 89.6944 318.141 87.0317 316.83 83.6344C315.288 79.6633 315.288 77.6203 316.83 76.266C317.773 75.4396 319.568 74.8887 321.293 74.8887C322.467 74.8887 322.628 74.8199 322.858 74.3149C323.019 73.9935 323.134 73.3737 323.134 72.9376C323.134 71.9276 321.983 70.5963 320.258 69.6092C319.268 69.0353 318.785 68.9206 317.589 68.9206C316.622 68.9206 315.932 69.0353 315.61 69.2649Z" fill="#A776E4"/>
<path d="M334.086 71.0095C330.566 71.5145 328.449 73.6492 328.058 77.0924L327.897 78.3319L329.254 77.8499C330.013 77.5744 331.486 77.3219 332.59 77.2531C334.914 77.0924 339.976 77.3679 339.815 77.6433C339.631 77.9188 335.811 80.1454 332.107 82.1194C330.266 83.1065 328.702 83.9558 328.61 84.0476C328.518 84.1394 330.22 84.1624 332.406 84.1165L336.364 84.0247L337.399 83.1753C339.562 81.4308 343.841 77.0006 344.739 75.6004C345.728 74.0624 345.981 72.6622 345.406 72.2031C344.785 71.7211 338.342 70.734 336.249 70.7799C335.811 70.8029 334.845 70.8947 334.086 71.0095Z" fill="#A776E4"/>
<path d="M131.59 76.4037C129.933 76.794 129.174 77.5285 129.174 78.6762V79.4567L130.163 79.0206C131.222 78.5385 131.866 78.4696 132.372 78.7681C132.648 78.9517 132.579 79.1812 131.981 80.0994C130.439 82.4867 129.818 84.8051 130.37 85.9069C130.992 87.1005 134.673 87.6744 137.135 86.9399C138.906 86.4349 140.609 85.0805 142.22 82.9458C143.048 81.8899 143.646 80.9946 143.6 80.9487C143.554 80.9028 141.874 81.7751 139.873 82.9228C136.26 84.9658 135.754 85.1264 134.006 84.9887C133.684 84.9658 133.292 84.828 133.154 84.7133C132.579 84.2312 132.832 82.326 133.799 79.801C134.305 78.4467 134.696 77.0694 134.65 76.7481C134.581 76.2431 134.466 76.1512 133.776 76.1053C133.338 76.0824 132.349 76.2201 131.59 76.4037Z" fill="#A776E4"/>
<path d="M62.8179 78.3549C61.3224 81.5915 60.4481 86.1135 61.0463 87.2612C61.4835 88.0647 62.3808 88.2942 63.5312 87.8581C64.7506 87.376 65.4409 86.5497 65.4409 85.4938V84.7133L64.5206 85.5397C63.4622 86.5037 63.5082 86.4808 63.048 85.9987C62.4958 85.4708 62.5879 82.6474 63.2321 79.3649C63.5312 77.8499 63.7613 76.5874 63.7153 76.5415C63.6923 76.5185 63.2781 77.3219 62.8179 78.3549Z" fill="#A776E4"/>
<path d="M207.333 77.1612C205.469 77.6433 205.101 77.9646 204.94 79.2271L204.802 80.1683L205.815 79.7092C206.965 79.2042 207.471 79.1583 208.115 79.5026C208.553 79.7321 208.553 79.7551 208 80.3978C206.528 82.1424 205.584 85.5855 206.229 86.7792C206.643 87.5367 208.714 88.0417 210.945 87.9269C213.062 87.8121 214.581 87.1694 216.145 85.7692C217.112 84.8969 219.481 81.821 219.32 81.6603C219.274 81.5915 217.71 82.4178 215.869 83.4967C212.211 85.6085 210.807 86.0905 209.565 85.6774C208.207 85.2183 208.23 83.9558 209.588 80.3978C210.094 79.1583 210.393 77.9876 210.347 77.5515C210.278 76.9317 210.186 76.8399 209.588 76.794C209.22 76.771 208.184 76.9317 207.333 77.1612Z" fill="#A776E4"/>
<path d="M169.737 78.3779C169.438 78.7681 168.978 80.1224 168.978 80.6504C168.978 80.9029 169.807 81.7292 171.003 82.6703C172.107 83.5656 173.258 84.6444 173.534 85.0806C175.098 87.376 175.812 91.0487 175.467 94.8592C175.352 96.0528 175.305 97.0858 175.329 97.1317C175.559 97.3842 177.1 93.436 177.399 91.8521C177.698 90.2683 177.698 89.8322 177.422 88.1565C176.64 83.7492 174.638 80.6274 171.279 78.5844C170.359 78.0335 170.037 77.9876 169.737 78.3779Z" fill="#A776E4"/>
<path d="M184.739 83.1065C183.98 84.3231 183.358 85.4019 183.358 85.4708C183.358 85.6315 188.88 90.0387 189.064 90.0387C189.226 90.0387 191.987 85.7233 191.987 85.4708C191.987 85.2412 186.58 80.8569 186.303 80.8569C186.211 80.8799 185.498 81.8669 184.739 83.1065Z" fill="#A776E4"/>
<path d="M343.266 83.5426C342.162 86.4808 341.494 89.4419 341.471 91.8981C341.425 93.5737 341.494 93.964 341.863 94.3771C343.082 95.7315 345.912 94.1246 345.912 92.0358V91.1406L344.946 91.9899L344.002 92.8621L343.542 92.3112C343.128 91.8062 343.105 91.5308 343.243 89.1206C343.312 87.6744 343.588 85.356 343.818 83.9558C344.071 82.5785 344.232 81.4078 344.209 81.3619C344.163 81.339 343.749 82.3031 343.266 83.5426Z" fill="#A776E4"/>
<path d="M155.311 89.0058C147.857 92.0817 141.667 94.7215 141.575 94.9051C141.391 95.1806 141.276 96.6956 141.437 96.6956C141.483 96.6956 146.016 94.8822 151.515 92.6556C157.014 90.4519 163.157 87.9728 165.205 87.1465C168.173 85.9529 168.955 85.5397 169.185 85.0806C169.53 84.3231 169.507 83.3819 169.162 83.4049C169.001 83.4049 162.766 85.9299 155.311 89.0058Z" fill="#A776E4"/>
<path d="M297.134 84.3919C296.076 85.1035 295.455 85.9988 294.995 87.399C294.535 88.7992 294.143 91.1635 294.143 92.5408V93.5508L293.43 92.1506C292.372 90.1306 290.508 87.7892 288.967 86.5497C286.919 84.8969 285.423 84.8051 284.802 86.2742C284.457 87.0776 284.388 88.409 284.618 89.3042C284.733 89.7174 285.4 90.1306 287.333 91.0717C288.736 91.7374 290.324 92.6785 290.876 93.1376C292.142 94.2165 293.154 95.984 293.476 97.6596C293.752 99.0828 293.89 99.1976 294.419 98.5778C295.018 97.8892 295.317 96.6267 295.524 93.5737C295.731 90.4749 296.145 88.6844 296.812 87.9499C297.319 87.376 298.423 87.399 299.389 87.9728L300.126 88.4319V87.8581C300.126 86.6644 299.596 84.8969 299.067 84.369C298.4 83.7033 298.124 83.7033 297.134 84.3919Z" fill="#A776E4"/>
<path d="M109.755 96.9481C108.789 98.0728 108.973 98.6926 110.606 100.116C112.516 101.791 113.229 102.733 113.643 104.11C114.126 105.763 114.08 108.655 113.528 110.79C113.252 111.777 113.091 112.626 113.137 112.672C113.298 112.833 115.208 110.124 115.783 108.884C116.289 107.76 116.335 107.461 116.243 105.304C116.151 103.284 116.036 102.756 115.392 101.378C114.61 99.7256 113.183 98.0499 111.527 96.9022C110.997 96.5349 110.514 96.2365 110.468 96.2365C110.399 96.2365 110.077 96.5578 109.755 96.9481Z" fill="#A776E4"/>
<path d="M38.7973 99.9551C37.5548 104.179 37.5318 108.448 38.7512 109.091C40.2468 109.894 42.7087 108.035 42.2945 106.428L42.1565 105.854L41.3742 106.681C40.4999 107.645 40.1778 107.622 39.6716 106.658C39.3955 106.153 39.3265 105.12 39.3265 102.136C39.3265 100.024 39.3265 98.3023 39.3034 98.3023C39.2804 98.3023 39.0504 99.0598 38.7973 99.9551Z" fill="#A776E4"/>
<path d="M9.04753 99.2894C8.47233 99.6796 8.24224 100.001 8.19623 100.552C8.10419 101.401 8.21923 101.447 9.00152 100.827C10.8192 99.4041 11.4864 101.263 10.8192 105.854C10.5891 107.278 10.474 108.494 10.5201 108.54C10.7501 108.77 12.1076 105.303 12.4067 103.697C12.9129 101.057 12.8669 100.001 12.1767 99.3353C11.4404 98.5778 10.1289 98.5548 9.04753 99.2894Z" fill="#A776E4"/>
<path d="M217.526 105.441C208.99 109.091 201.88 112.213 201.696 112.396C201.397 112.672 201.236 114.256 201.466 114.485C201.512 114.554 206.804 112.373 213.223 109.665C219.642 106.979 225.072 104.707 225.303 104.638C225.671 104.523 225.694 104.776 225.694 108.012C225.694 111.019 225.763 111.616 226.154 112.419C226.545 113.2 226.729 113.338 227.419 113.406C229.053 113.521 230.617 111.823 230.134 110.422L229.904 109.78L229.237 110.698C228.869 111.203 228.478 111.616 228.363 111.616C227.626 111.616 226.89 109.412 226.545 106.153C226.315 103.926 225.947 104.293 230.134 102.549C232.182 101.677 232.803 101.332 233.056 100.804C233.424 100.116 233.516 99.0828 233.217 98.8992C233.125 98.8532 226.062 101.791 217.526 105.441Z" fill="#A776E4"/>
<path d="M50.4855 112.19C42.8237 114.233 35.0699 116.299 33.2293 116.781C29.5709 117.768 28.8577 118.204 28.8577 119.42C28.8577 119.88 28.9727 120.109 29.2028 120.109C29.3869 120.109 35.8752 118.456 43.629 116.459C51.3828 114.439 58.0092 112.718 58.3543 112.649C58.9755 112.488 58.9755 112.511 58.7455 113.269C58.3543 114.646 58.2393 117.86 58.5844 118.502C59.2977 119.857 61.9896 118.915 61.9896 117.332C61.9896 116.505 61.8516 116.505 61.2534 117.24C60.241 118.548 59.6658 117.653 59.5047 114.554L59.3897 112.328L60.4021 112.075C63.7383 111.226 64.1984 110.95 64.6126 109.619C65.0267 108.288 65.1188 108.288 50.4855 112.19Z" fill="#A776E4"/>
<path d="M184.923 109.55C184.164 110.009 184.049 110.353 184.302 111.341L184.463 111.868L185.084 111.272C185.498 110.881 185.912 110.698 186.257 110.744C187.201 110.858 187.776 113.338 187.868 117.469L187.891 119.076L188.374 117.699C188.742 116.643 188.857 115.725 188.857 113.682C188.88 110.904 188.604 109.734 187.822 109.321C187.155 108.953 185.705 109.068 184.923 109.55Z" fill="#A776E4"/>
<path d="M356.473 114.761C355.575 115.977 354.816 117.102 354.793 117.286C354.793 117.469 356.036 118.479 357.577 119.535L360.384 121.463L362.248 118.938C363.283 117.538 364.089 116.368 364.043 116.322C363.997 116.299 363.559 116 363.053 115.702C362.547 115.381 361.236 114.554 360.131 113.843L358.152 112.557L356.473 114.761Z" fill="#A776E4"/>
<path d="M310.157 115.174C310.088 115.38 309.674 115.679 309.214 115.863C308.409 116.207 308.017 116.138 306.315 115.426C306.085 115.312 305.855 115.449 305.648 115.84C305.486 116.161 305.003 116.574 304.566 116.781C303.669 117.217 302.864 117.033 301.506 116.092L300.678 115.518L298.975 115.977C297.48 116.39 287.126 121.211 287.333 121.418C287.448 121.532 292.878 119.994 295.501 119.099C296.835 118.64 298.216 118.273 298.584 118.273C298.952 118.273 300.057 118.64 301.046 119.076C302.035 119.512 303.025 119.88 303.278 119.88C303.899 119.88 304.888 119.076 305.302 118.273L305.648 117.607L306.798 118.204C308.639 119.168 309.49 118.663 310.134 116.184C310.456 115.013 310.456 114.393 310.157 115.174Z" fill="#A776E4"/>
<path d="M361.926 122.313C355.967 124.31 354.241 125.136 352.884 126.605C350.997 128.694 352.538 128.488 360.2 125.641C365.561 123.644 366.62 123.185 367.264 122.519C367.747 121.991 368 121.486 368 121.027C368 120.66 367.931 120.339 367.839 120.362C367.724 120.362 365.078 121.234 361.926 122.313Z" fill="#A776E4"/>
</svg>
