<svg width="283" height="60" viewBox="0 0 283 60" fill="none" xmlns="http://www.w3.org/2000/svg">
<g clip-path="url(#clip0_31_184)">
<path d="M279.11 36.0515C279.095 35.5028 278.984 34.7981 278.777 33.9363C278.568 33.0756 278.313 32.1626 278.009 31.1983C277.704 30.234 277.374 29.2653 277.018 28.2934C276.661 27.3214 276.317 26.4422 275.983 25.6557C275.649 24.8692 275.36 24.2278 275.115 23.7303C274.869 23.2329 274.702 22.9776 274.614 22.9624C274.614 23.0071 274.588 23.1664 274.536 23.4413C274.484 23.7161 274.421 24.0499 274.348 24.4427C274.273 24.8365 274.195 25.263 274.114 25.7222C274.032 26.1826 273.961 26.6091 273.903 27.0018C273.843 27.3956 273.795 27.7294 273.758 28.0032C273.72 28.2781 273.716 28.4297 273.747 28.4592C273.761 28.4886 273.799 28.433 273.858 28.2923C273.917 28.1515 273.983 27.9912 274.059 27.8134C274.133 27.6061 274.229 27.3683 274.348 27.1011C274.57 27.4578 274.83 27.9508 275.127 28.5813C275.423 29.2118 275.731 29.9024 276.05 30.6518C276.369 31.4012 276.673 32.1691 276.964 32.9556C277.253 33.7421 277.505 34.473 277.721 35.1483C277.935 35.8235 278.088 36.406 278.177 36.8958C278.266 37.3856 278.266 37.6976 278.177 37.8306C278.147 37.8754 278.061 37.9125 277.92 37.9419C277.779 37.9714 277.608 37.9976 277.409 38.0194C277.208 38.0412 276.993 38.0565 276.763 38.0641C276.533 38.0717 276.321 38.075 276.128 38.075C276.068 38.075 275.927 38.0641 275.705 38.0412C275.482 38.0194 275.226 37.9746 274.937 37.9081C274.648 37.8416 274.343 37.7445 274.024 37.619C273.704 37.4936 273.423 37.3256 273.177 37.1183C272.933 36.9111 272.754 36.6547 272.643 36.3504C272.531 36.046 272.527 35.686 272.632 35.2704C272.661 35.1373 272.658 35.0479 272.621 35.0032C272.584 34.9584 272.55 34.929 272.52 34.9137C272.343 34.8995 272.19 34.9661 272.065 35.1144C271.938 35.2628 271.819 35.4559 271.708 35.6937C271.597 35.9315 271.478 36.1911 271.351 36.4725C271.225 36.7551 271.076 37.0147 270.906 37.2514C270.735 37.4892 270.524 37.6888 270.271 37.8525C270.018 38.0161 269.707 38.0968 269.336 38.0968C268.965 38.0968 268.59 38.0826 268.212 38.0521C267.833 38.0226 267.521 37.9441 267.277 37.8187C267.032 37.6932 266.88 37.4958 266.821 37.2285C266.761 36.9612 266.866 36.5904 267.133 36.1158C267.207 35.9969 267.226 35.89 267.188 35.7929C267.151 35.6969 267.08 35.6337 266.977 35.6042C266.813 35.5748 266.662 35.6304 266.521 35.7711C266.38 35.9118 266.235 36.1017 266.087 36.3384C265.938 36.5762 265.779 36.8467 265.608 37.1511C265.437 37.4554 265.237 37.7521 265.007 38.0412C264.777 38.3303 264.517 38.5899 264.228 38.8201C263.939 39.0502 263.601 39.2095 263.214 39.2989C262.961 39.3589 262.587 39.4146 262.09 39.4658C261.592 39.5182 261.076 39.54 260.543 39.5324C260.008 39.5247 259.508 39.4691 259.041 39.3655C258.573 39.2618 258.243 39.084 258.05 38.831C257.887 38.6237 257.887 38.315 258.05 37.907C258.214 37.499 258.443 37.0431 258.741 36.538C258.815 36.4191 258.834 36.3078 258.797 36.2042C258.759 36.1006 258.689 36.034 258.585 36.0035C258.392 35.9588 258.221 36.0002 258.073 36.1257C257.925 36.2522 257.769 36.43 257.605 36.6602C257.442 36.8903 257.261 37.1467 257.06 37.4281C256.859 37.7107 256.61 37.9888 256.314 38.2626C256.017 38.5375 255.66 38.7786 255.245 38.9859C254.829 39.1942 254.324 39.3349 253.731 39.4091C253.255 39.4691 252.791 39.5204 252.34 39.5651C251.887 39.6098 251.449 39.6316 250.988 39.6316H185.197C184.351 39.6022 183.589 39.4571 182.802 39.1975C182.016 38.9379 181.311 38.4666 180.687 37.7837C180.391 37.427 180.079 37.0376 179.752 36.6154C179.426 36.1922 179.085 35.7951 178.728 35.4242C178.371 35.0533 177.997 34.7414 177.603 34.4894C177.21 34.2374 176.798 34.1109 176.368 34.1109C175.848 34.1109 175.336 34.293 174.832 34.6563C174.327 35.0206 173.889 35.4908 173.518 36.07C173.147 36.6493 172.872 37.3016 172.695 38.0292C172.517 38.7568 172.494 39.4909 172.628 40.2327C172.658 40.3363 172.662 40.4072 172.639 40.4443C172.617 40.4814 172.562 40.537 172.472 40.6112C172.175 40.8338 171.738 41.1719 171.159 41.6246C170.58 42.0773 169.875 42.6042 169.044 43.2053C168.212 43.8063 167.27 44.463 166.216 45.1753C165.162 45.8877 164.013 46.6 162.766 47.3123C162.498 47.4607 162.343 47.5719 162.298 47.6461C162.253 47.7203 162.261 47.7716 162.32 47.8021C162.38 47.8316 162.476 47.8392 162.609 47.8239C162.742 47.8087 162.853 47.7868 162.942 47.7574C163.491 47.5938 164.097 47.393 164.757 47.1563C165.418 46.9185 166.036 46.6851 166.615 46.4549C167.195 46.2247 167.692 46.0207 168.107 45.8429C168.522 45.6651 168.768 45.5539 168.841 45.5091C169.568 45.1088 170.196 44.6299 170.721 44.0736C171.248 43.5172 171.69 42.9936 172.046 42.5039C172.402 42.0141 172.68 41.6137 172.88 41.3017C173.081 40.9897 173.217 40.8785 173.292 40.9679C173.529 41.1457 173.823 41.3279 174.172 41.5134C174.521 41.6988 174.906 41.8657 175.329 42.0141C175.752 42.1624 176.208 42.2813 176.698 42.3708C177.188 42.4602 177.692 42.4897 178.212 42.4602C178.479 42.446 178.694 42.3566 178.858 42.193C179.022 42.0293 179.15 41.8515 179.247 41.6584C179.343 41.4654 179.414 41.2952 179.459 41.1468C179.504 40.9985 179.541 40.9319 179.57 40.9461C179.867 41.2428 180.223 41.5101 180.639 41.7479C181.055 41.9857 181.508 42.193 181.997 42.3708C182.487 42.5486 183.006 42.6904 183.556 42.794C184.105 42.8976 184.588 42.9576 185.166 42.9718H250.978C251.81 42.9718 252.614 42.8824 253.415 42.7046C253.95 42.5715 254.384 42.4079 254.718 42.2148C255.052 42.0217 255.322 41.8363 255.531 41.6584C255.738 41.4806 255.901 41.3214 256.02 41.1796C256.139 41.0388 256.243 40.9603 256.332 40.9461C256.465 40.9319 256.581 40.9756 256.677 41.0792C256.773 41.1828 256.866 41.317 256.955 41.4795C257.045 41.6432 257.136 41.8101 257.233 41.9802C257.329 42.1515 257.445 42.2879 257.578 42.3926C257.845 42.6304 258.219 42.8049 258.703 42.9162C259.185 43.0275 259.686 43.0864 260.206 43.094C260.725 43.1016 261.23 43.0678 261.72 42.9936C262.21 42.9195 262.588 42.8082 262.856 42.6598C263.063 42.5704 263.271 42.4155 263.478 42.1919C263.686 41.9693 263.886 41.7359 264.08 41.4905C264.273 41.2461 264.461 41.0268 264.647 40.8338C264.832 40.6407 265.014 40.5447 265.192 40.5447C265.296 40.5447 265.396 40.5927 265.492 40.6898C265.588 40.7869 265.685 40.9014 265.781 41.0345C265.877 41.1676 265.993 41.3094 266.126 41.4577C266.259 41.6061 266.415 41.725 266.594 41.8144C266.727 41.8744 266.906 41.9224 267.128 41.9595C267.351 41.9966 267.596 42.0228 267.863 42.037C268.13 42.0522 268.4 42.0479 268.675 42.0261C268.95 42.0042 269.191 41.9704 269.398 41.9257C269.68 41.881 269.94 41.7032 270.177 41.3912C270.414 41.0792 270.626 40.753 270.812 40.4116C270.998 40.0702 271.16 39.7735 271.302 39.5215C271.443 39.2695 271.558 39.1648 271.647 39.2095C271.721 39.2095 271.832 39.3284 271.981 39.5662C272.129 39.804 272.362 40.0593 272.682 40.3342C273 40.609 273.435 40.8654 273.984 41.1021C274.533 41.3399 275.245 41.4588 276.121 41.4588C276.834 41.3999 277.393 41.1883 277.802 40.8239C278.21 40.4607 278.515 40.0156 278.715 39.4887C278.916 38.9619 279.034 38.3946 279.072 37.7859C279.109 37.1772 279.12 36.5991 279.106 36.0493L279.11 36.0515ZM178.709 39.0786C178.515 39.1528 178.185 39.1342 177.718 39.0229C177.25 38.9117 176.776 38.7633 176.293 38.5779C175.811 38.3924 175.388 38.1884 175.025 37.9659C174.66 37.7434 174.493 37.5503 174.524 37.3867C174.583 37.2383 174.672 37.09 174.791 36.9416C174.91 36.7933 175.048 36.6602 175.204 36.5413C175.36 36.4224 175.527 36.3264 175.704 36.2522C175.882 36.178 176.053 36.1409 176.216 36.1409C176.453 36.1562 176.732 36.3078 177.05 36.5969C177.369 36.886 177.662 37.2089 177.93 37.5656C178.197 37.9223 178.412 38.2517 178.575 38.5561C178.739 38.8604 178.783 39.0349 178.709 39.0797V39.0786Z" fill="#D1D1D1"/>
<path d="M168.469 34.6868C168.513 34.3683 168.58 33.7934 168.669 32.9611C168.759 32.1299 168.803 31.5365 168.803 31.1798C168.803 30.0813 168.736 28.7057 168.602 27.0498C168.469 25.395 168.308 23.1577 168.123 20.3378C167.937 17.518 167.729 15.0319 167.5 12.8797C167.27 10.7285 167.058 8.63517 166.865 6.60183C166.865 6.42402 166.82 6.42402 166.732 6.60183C166.554 7.06217 166.35 7.68505 166.12 8.47155C165.89 9.25805 165.775 9.69548 165.775 9.78493C165.686 10.0522 165.642 10.3271 165.642 10.6085C166.103 14.3632 166.536 18.4997 166.945 23.0191C167.353 27.5385 167.795 31.5866 168.269 35.1625C168.359 35.1625 168.425 35.0032 168.47 34.6836L168.469 34.6868Z" fill="#D1D1D1"/>
<path d="M149.101 43.0995C149.68 42.818 150.162 42.469 150.547 42.0533C150.933 41.6377 151.244 41.185 151.482 40.6952C151.719 40.2054 151.908 39.7527 152.049 39.3371C152.19 38.9215 152.298 38.5801 152.372 38.3128C152.446 38.0456 152.513 37.9267 152.573 37.9561C152.662 37.9114 152.747 38.0008 152.829 38.2234C152.911 38.4459 153.015 38.735 153.141 39.0917C153.267 39.4484 153.43 39.8378 153.631 40.26C153.832 40.6832 154.102 41.0727 154.444 41.4283C154.785 41.785 155.204 42.0817 155.701 42.3184C156.199 42.5562 156.811 42.6675 157.538 42.6522C158.28 42.638 158.852 42.3959 159.252 41.929C159.652 41.461 159.931 40.8905 160.087 40.2153C160.243 39.54 160.301 38.8244 160.264 38.0674C160.227 37.3103 160.142 36.6427 160.008 36.0635C159.711 34.713 159.291 32.9502 158.75 30.7761C158.208 28.6021 157.485 26.1051 156.579 23.2853C156.505 23.0333 156.461 22.9373 156.446 22.9962C156.431 23.0562 156.417 23.1227 156.402 23.1969C156.372 23.4194 156.338 23.7085 156.301 24.0652C156.264 24.4219 156.23 24.7776 156.201 25.1343C156.171 25.491 156.145 25.8128 156.123 26.1029C156.102 26.392 156.082 26.5895 156.068 26.6931C156.068 26.7225 156.134 27.0051 156.269 27.5385C156.402 28.073 156.599 28.8333 156.859 29.8205C157.118 30.8078 157.444 32.0022 157.838 33.4051C158.231 34.8079 158.688 36.3766 159.207 38.1132C159.266 38.4099 159.2 38.6324 159.007 38.7808C158.813 38.9291 158.546 39.011 158.205 39.0251C157.863 39.0404 157.477 38.9848 157.047 38.8582C156.617 38.7328 156.194 38.5397 155.779 38.279C155.363 38.0194 154.989 37.6888 154.654 37.2885C154.32 36.8882 154.087 36.4278 153.953 35.9086C153.863 35.5519 153.77 35.0741 153.674 34.473C153.577 33.872 153.478 33.2196 153.375 32.5139C153.271 31.8092 153.16 31.0783 153.041 30.3212C152.922 29.5642 152.803 28.841 152.684 28.1505C152.565 27.4599 152.443 26.8371 152.316 26.2807C152.19 25.7244 152.06 25.2902 151.927 24.9783L150.947 27.2047C151.051 28.1254 151.162 28.9381 151.281 29.6427C151.4 30.3474 151.504 31.0303 151.593 31.6903C151.683 32.3513 151.749 33.0255 151.794 33.716C151.839 34.4065 151.839 35.1886 151.794 36.0646C151.764 36.6438 151.635 37.1707 151.404 37.6452C151.174 38.1208 150.878 38.5288 150.514 38.8691C150.15 39.2106 149.742 39.4735 149.29 39.6589C148.838 39.8444 148.366 39.9371 147.877 39.9371C147.03 39.9371 146.281 39.7364 145.628 39.336C144.975 38.9357 144.545 38.423 144.337 37.8001C144.277 37.6223 144.226 37.2209 144.181 36.598C144.136 35.9751 144.103 35.2399 144.08 34.3945C144.059 33.548 144.054 32.6437 144.07 31.6783C144.084 30.714 144.128 29.8009 144.203 28.9402C144.203 28.8508 144.184 28.829 144.147 28.8737C144.11 28.9184 144.076 28.9773 144.047 29.0515L143.089 30.7216C143.029 30.8994 142.985 31.0739 142.956 31.2452C142.926 31.4165 142.893 31.5834 142.855 31.7459C142.818 31.9095 142.763 32.0546 142.689 32.1801C142.614 32.3066 142.503 32.4135 142.355 32.5029C141.82 32.7855 141.286 33.0516 140.752 33.3047C140.218 33.5578 139.702 33.8207 139.205 34.0945C138.708 34.3694 138.237 34.6661 137.792 34.9846C137.347 35.3042 136.953 35.6751 136.611 36.0973C136.27 36.5205 135.984 37.0071 135.754 37.5558C135.524 38.1045 135.372 38.7502 135.298 39.492C135.269 39.7593 135.361 39.9971 135.576 40.2043C135.791 40.4127 136.058 40.5829 136.378 40.716C136.697 40.849 137.038 40.9494 137.402 41.017C137.766 41.0836 138.081 41.1174 138.348 41.1174C139.06 41.1032 139.665 40.9614 140.162 40.6941C140.66 40.4269 141.071 40.1454 141.398 39.8476C141.724 39.5509 141.984 39.2913 142.177 39.0688C142.37 38.8462 142.525 38.7721 142.645 38.8462C142.704 39.3218 142.819 39.8291 142.99 40.3712C143.16 40.9134 143.413 41.4141 143.747 41.8733C144.08 42.3337 144.511 42.7198 145.038 43.0307C145.565 43.3427 146.222 43.5063 147.008 43.5205C147.824 43.5205 148.522 43.3798 149.101 43.0973V43.0995ZM137.982 36.4322C138.138 36.3209 138.352 36.1987 138.627 36.0646C138.902 35.9315 139.217 35.7897 139.573 35.6413C139.93 35.493 140.296 35.337 140.675 35.1733C141.053 35.0097 141.424 34.8319 141.788 34.6388C142.151 34.4458 142.474 34.2461 142.756 34.0378L142.578 36.9536C142.518 37.0431 142.367 37.1281 142.122 37.21C141.878 37.2918 141.588 37.3583 141.254 37.4107C140.92 37.463 140.56 37.4958 140.174 37.511C139.788 37.5263 139.428 37.511 139.094 37.4663C138.76 37.4216 138.475 37.3441 138.237 37.2329C137.999 37.1216 137.851 36.9623 137.792 36.754C137.762 36.6504 137.826 36.5424 137.98 36.4311L137.982 36.4322Z" fill="#D1D1D1"/>
<path d="M125.447 31.0707C125.246 29.7726 125.027 28.5443 124.79 27.3869C124.552 26.2295 124.319 25.1354 124.089 24.1034C123.858 23.0726 123.669 22.0963 123.521 21.1756C123.521 21.1167 123.551 20.9869 123.611 20.7861C123.67 20.5854 123.741 20.3487 123.822 20.0738C123.904 19.7989 123.993 19.4946 124.09 19.1608C124.186 18.827 124.271 18.4899 124.346 18.1474C124.375 17.9696 124.317 17.8289 124.168 17.7241C124.02 17.6205 123.819 17.4645 123.567 17.2562C123.315 17.0489 123.036 16.7522 122.733 16.366C122.428 15.9799 122.142 15.4312 121.875 14.7188C121.846 14.7188 121.764 14.8901 121.631 15.2305C121.498 15.5719 121.356 15.9537 121.208 16.3769C121.059 16.8002 120.925 17.1896 120.807 17.5452C120.688 17.9019 120.629 18.1016 120.629 18.1463C120.629 18.4583 120.682 18.7255 120.785 18.9481C120.889 19.1706 121.008 19.3822 121.142 19.5829C121.275 19.7837 121.402 19.9833 121.521 20.184C121.64 20.3847 121.714 20.6258 121.743 20.9072C121.907 21.6643 122.096 22.525 122.31 23.4893C122.525 24.4547 122.748 25.4593 122.978 26.5055C123.208 27.5516 123.434 28.6097 123.657 29.6777C123.879 30.7467 124.08 31.7743 124.258 32.7604C124.435 33.7476 124.576 34.6607 124.681 35.4984C124.784 36.3373 124.829 37.0387 124.814 37.6016C124.828 37.9878 124.706 38.3401 124.446 38.6586C124.187 38.9782 123.849 39.2455 123.433 39.4604C123.017 39.6753 122.549 39.8313 122.03 39.9284C121.511 40.0255 120.995 40.044 120.505 39.984C120.089 39.8204 119.721 39.5837 119.409 39.2717C119.097 38.9597 118.852 38.6335 118.675 38.2921C118.466 37.8918 118.244 37.4718 118.007 37.0344C117.769 36.5969 117.543 36.1999 117.329 35.8431C117.114 35.4864 116.921 35.1897 116.749 34.953C116.578 34.7163 116.456 34.5974 116.382 34.5974C116.352 34.5974 116.315 34.6498 116.27 34.7534C116.226 34.857 116.181 34.9988 116.137 35.1766C116.093 35.3544 116.048 35.5552 116.004 35.7777C115.96 36.0002 115.915 36.2304 115.871 36.4682C115.768 37.0169 115.663 37.6332 115.559 38.3161C115.573 38.4492 115.644 38.6466 115.771 38.9062C115.896 39.1659 116.049 39.4593 116.227 39.7855C116.405 40.1116 116.59 40.4574 116.783 40.8207C116.976 41.185 117.154 41.5374 117.318 41.8777C117.481 42.2192 117.619 42.5388 117.73 42.8355C117.841 43.1322 117.897 43.37 117.897 43.5478C117.897 44.0223 117.741 44.6125 117.429 45.3172C117.117 46.0219 116.669 46.7527 116.082 47.5098C115.495 48.2668 114.782 49.013 113.945 49.7471C113.106 50.4813 112.163 51.1194 111.117 51.6616C110.071 52.2026 108.925 52.6117 107.678 52.8855C106.431 53.1604 105.11 53.216 103.715 53.0524C103.389 53.0666 103.243 53.1037 103.281 53.1637C103.318 53.2226 103.485 53.2935 103.781 53.3753C104.078 53.4571 104.475 53.5498 104.972 53.6534C105.47 53.7571 106.011 53.8542 106.598 53.9425C107.185 54.032 107.792 54.1171 108.423 54.1989C109.053 54.2807 109.647 54.3472 110.204 54.3996C110.761 54.4519 111.258 54.4814 111.695 54.489C112.133 54.4967 112.456 54.4781 112.664 54.4334C113.124 54.3145 113.591 54.0625 114.067 53.6764C114.541 53.2902 115.005 52.808 115.458 52.2288C115.91 51.6496 116.345 50.9929 116.76 50.2587C117.176 49.5246 117.558 48.7523 117.907 47.9439C118.256 47.1345 118.556 46.3153 118.808 45.4841C119.06 44.6528 119.253 43.8511 119.387 43.0798C119.387 43.0504 119.427 43.0428 119.509 43.058C119.591 43.0733 119.687 43.0995 119.798 43.1355C119.909 43.1726 120.028 43.2097 120.155 43.2467C120.28 43.2838 120.405 43.3024 120.508 43.3024C121.488 43.3318 122.334 43.1169 123.033 42.6566C123.73 42.1963 124.298 41.581 124.735 40.8087C125.173 40.0375 125.488 39.1582 125.681 38.171C125.874 37.1838 125.948 36.1791 125.904 35.1548C125.8 33.7302 125.647 32.3688 125.448 31.0696L125.447 31.0707Z" fill="#D1D1D1"/>
<path d="M131.03 33.1858C130.896 31.531 130.736 29.2937 130.551 26.4738C130.365 23.654 130.157 21.1679 129.928 19.0157C129.698 16.8645 129.486 14.7712 129.293 12.7378C129.293 12.56 129.248 12.56 129.16 12.7378C128.982 13.1982 128.778 13.8211 128.548 14.6076C128.318 15.3941 128.203 15.8315 128.203 15.9209C128.114 16.1882 128.07 16.4631 128.07 16.7445C128.53 20.4992 128.963 24.6357 129.373 29.1551C129.781 33.6745 130.222 37.7227 130.697 41.2985C130.786 41.2985 130.853 41.1392 130.898 40.8196C130.942 40.5011 131.009 39.9262 131.098 39.0939C131.188 38.2626 131.231 37.6692 131.231 37.3125C131.231 36.214 131.165 34.8385 131.031 33.1826L131.03 33.1858Z" fill="#D1D1D1"/>
<path d="M116.504 28.1952C115.205 27.7578 114.003 27.2941 112.897 26.8044C111.791 26.3146 110.768 25.8291 109.826 25.3459C108.883 24.8637 108.004 24.4481 107.188 24.099C106.372 23.7511 105.607 23.4947 104.895 23.3311C104.183 23.1675 103.504 23.1566 102.858 23.2973C102.213 23.438 101.593 23.7609 101 24.2659C100.406 24.771 99.8117 25.5204 99.2182 26.5142C99.1441 26.6178 99.1288 26.7073 99.1735 26.7814C99.1888 26.8109 99.2106 26.8338 99.2401 26.848C99.7746 26.848 100.241 26.8523 100.643 26.8589C101.043 26.8665 101.477 26.8698 101.945 26.8698H104.272C104.539 26.8698 104.672 26.8622 104.672 26.848C104.687 26.7891 104.739 26.7291 104.828 26.6702C104.873 26.656 104.91 26.6407 104.94 26.6255C105.162 26.6549 105.437 26.7476 105.763 26.9036C106.09 27.0596 106.439 27.2483 106.809 27.4709C107.18 27.6934 107.556 27.9312 107.934 28.1832C108.313 28.4352 108.673 28.6588 109.014 28.8508C108.316 28.9839 107.582 29.1628 106.811 29.3853C106.038 29.6078 105.264 29.8609 104.484 30.1424C103.705 30.4249 102.948 30.7325 102.213 31.0663C101.478 31.4001 100.807 31.7448 100.198 32.1015C99.9753 32.2204 99.7451 32.3688 99.5073 32.5466C99.2848 32.7102 99.0732 32.8771 98.8724 33.0473C98.6717 33.2175 98.4492 33.5174 98.3739 33.6811C98.0914 34.1632 97.5743 34.8625 97.1664 35.2486C96.7584 35.6348 96.2391 35.9391 95.6075 36.1617C94.977 36.3842 94.0596 36.4453 93.0353 36.3711C92.575 36.3711 92.0797 36.2282 91.7317 35.9686C91.3827 35.709 90.7336 34.9334 89.7835 33.6418C89.7388 33.5971 89.6722 33.6418 89.5828 33.7749C89.4933 33.908 89.3941 34.0978 89.2817 34.3421C89.1704 34.5876 89.0624 34.8657 88.9588 35.1766C88.8552 35.4886 88.7625 35.7886 88.6806 36.0777C88.5988 36.3667 88.5432 36.6264 88.5137 36.8565C88.4843 37.0867 88.4919 37.246 88.5356 37.3354C88.6992 37.7358 88.9097 38.1852 89.1704 38.6826C89.43 39.18 89.6973 39.7036 89.9722 40.2523C90.2471 40.801 90.5176 41.365 90.7849 41.9443C91.0521 42.5235 91.2703 43.0831 91.4416 43.6253C91.6117 44.1674 91.7197 44.679 91.7645 45.1612C91.8092 45.6433 91.7492 46.0709 91.5867 46.4407C91.2005 47.3167 90.3289 48.185 88.9708 49.0457C87.6127 49.9064 85.8804 50.7158 83.7729 51.4717C81.6654 52.2288 79.2393 52.9182 76.4937 53.5422C73.748 54.165 70.7983 54.6777 67.6447 55.0781C64.4911 55.4784 61.189 55.7533 57.7387 55.9017C54.2883 56.05 50.8074 56.0315 47.2982 55.846C43.7878 55.6606 40.3004 55.2853 36.8358 54.7214C33.3702 54.1574 30.0497 53.3709 26.8742 52.3619C26.1172 52.1099 25.3154 51.8088 24.47 51.4608C23.6246 51.1118 22.7748 50.7441 21.9207 50.3591C21.0676 49.9729 20.2397 49.5835 19.439 49.1908C18.6372 48.797 17.9031 48.4228 17.2355 48.0661C16.5679 47.7094 15.9919 47.3909 15.5097 47.1083C15.0276 46.8269 14.6818 46.6044 14.4745 46.4407C14.0589 46.1288 13.7622 45.9477 13.5844 45.8953C13.4066 45.844 13.3019 45.8506 13.2724 45.9171C13.2429 45.9837 13.2582 46.0764 13.3171 46.1953C13.376 46.3142 13.4426 46.396 13.5178 46.4396C15.1945 47.9243 16.7195 49.2519 18.0929 50.4245C19.4652 51.5972 20.8091 52.6357 22.1225 53.5411C23.4358 54.4465 24.783 55.2286 26.163 55.8897C27.5429 56.5496 29.0712 57.1212 30.7489 57.6034C32.4255 58.0856 34.3105 58.4903 36.4028 58.8164C38.495 59.1426 40.9222 59.4175 43.682 59.64C46.576 59.8767 49.5628 59.9967 52.6422 59.9967C55.7217 59.9967 58.7826 59.8745 61.825 59.6291C64.8674 59.3848 67.8389 59.0095 70.7405 58.5044C73.6422 57.9994 76.3617 57.3689 78.899 56.6118C81.4363 55.8548 83.7336 54.9603 85.7888 53.9294C87.844 52.8975 89.5468 51.7292 90.8972 50.4234C91.3423 50.0078 91.7285 49.5104 92.0546 48.9322C92.3808 48.353 92.6404 47.7378 92.8335 47.0843C93.0266 46.4309 93.1564 45.7677 93.2229 45.0924C93.2895 44.4172 93.2927 43.7682 93.2338 43.1442C93.1444 42.1504 92.9513 41.1185 92.6546 40.0494C92.7582 40.1531 92.8793 40.1694 92.9917 40.1836C93.8294 40.2185 94.4676 40.0505 94.9727 39.8204C95.4766 39.5902 95.9042 39.3229 96.2522 39.0186C96.6002 38.7142 96.8795 38.3881 97.0867 38.039C97.294 37.691 97.4762 37.3747 97.6321 37.0932C97.7881 36.8118 97.9289 36.5893 98.0554 36.4256C98.1808 36.262 98.3259 36.1955 98.4895 36.2249C98.8015 36.5958 99.1353 36.9787 99.491 37.3714C99.8477 37.7652 100.229 38.1252 100.637 38.4514C101.045 38.7775 101.48 39.0491 101.94 39.264C102.4 39.4789 102.898 39.5869 103.431 39.5869C103.698 39.5869 103.895 39.5389 104.021 39.4418C104.147 39.3458 104.233 39.156 104.278 38.8746C104.381 38.1917 104.389 37.547 104.299 36.9383C104.21 36.3296 104.066 35.781 103.865 35.2912C103.665 34.8014 103.428 34.3716 103.153 33.9996C102.978 33.764 102.805 33.5578 102.634 33.3822C102.989 33.1324 103.509 32.8673 104.191 32.5891C104.882 32.3077 105.675 32.0437 106.574 31.7994C107.472 31.555 108.444 31.3434 109.49 31.1645C110.536 30.9867 111.597 30.8678 112.673 30.8078C113.748 30.7489 114.81 30.7674 115.856 30.8634C116.902 30.9605 117.878 31.1568 118.784 31.4536C119.065 31.1721 119.34 30.8972 119.607 30.63C119.815 30.4074 120.026 30.1696 120.242 29.9176C120.457 29.6657 120.616 29.4497 120.721 29.2719C119.207 28.9904 117.801 28.6304 116.503 28.1919L116.504 28.1952Z" fill="#D1D1D1"/>
<path d="M80.8364 40.8218C80.8811 40.5032 80.9477 39.9284 81.0371 39.096C81.1266 38.2648 81.1702 37.6714 81.1702 37.3147C81.1702 36.2162 81.1037 34.8406 80.9695 33.1847C80.8364 31.5299 80.676 29.2926 80.4906 26.4727C80.3052 23.6529 80.0968 21.1668 79.8677 19.0146C79.6376 16.8634 79.4259 14.7701 79.2329 12.7367C79.2329 12.5589 79.1881 12.5589 79.0998 12.7367C78.922 13.1971 78.718 13.82 78.4878 14.6065C78.2576 15.393 78.1431 15.8304 78.1431 15.9198C78.0536 16.1871 78.01 16.462 78.01 16.7434C78.4703 20.4981 78.9034 24.6346 79.3125 29.154C79.7205 33.6734 80.1623 37.7216 80.6368 41.2974C80.7262 41.2974 80.7928 41.1381 80.8375 40.8185L80.8364 40.8218Z" fill="#D1D1D1"/>
<path d="M74.5246 35.1559C74.421 33.7313 74.2682 32.3699 74.0686 31.0707C73.8679 29.7726 73.6486 28.5443 73.4119 27.3869C73.1741 26.2295 72.9407 25.1354 72.7105 24.1034C72.4803 23.0726 72.2905 22.0963 72.1433 21.1756C72.1433 21.1167 72.1727 20.9869 72.2327 20.7861C72.2916 20.5854 72.3625 20.3487 72.4443 20.0738C72.5262 19.7989 72.6145 19.4946 72.7116 19.1608C72.8076 18.827 72.8927 18.4899 72.9679 18.1474C72.9974 17.9696 72.9385 17.8289 72.7901 17.7241C72.6418 17.6205 72.4411 17.4645 72.1891 17.2562C71.936 17.0489 71.6578 16.7522 71.3546 16.366C71.0502 15.9799 70.7644 15.4312 70.4972 14.7188C70.4677 14.7188 70.3859 14.8901 70.2528 15.2305C70.1197 15.5719 69.9779 15.9537 69.8296 16.3769C69.6812 16.8002 69.547 17.1896 69.4292 17.5452C69.3103 17.9019 69.2514 18.1016 69.2514 18.1463C69.2514 18.4583 69.3038 18.7255 69.4074 18.9481C69.511 19.1706 69.6299 19.3822 69.7641 19.5829C69.8972 19.7837 70.0237 19.9833 70.1426 20.184C70.2616 20.3847 70.3357 20.6258 70.3652 20.9072C70.5288 21.6643 70.7175 22.525 70.9324 23.4893C71.1473 24.4547 71.3699 25.4593 71.6 26.5055C71.8302 27.5516 72.056 28.6097 72.2785 29.6777C72.5011 30.7467 72.7018 31.7743 72.8796 32.7604C73.0574 33.7476 73.1981 34.6607 73.3028 35.4984C73.4065 36.3373 73.4512 37.0387 73.4359 37.6016C73.4501 37.9878 73.3279 38.3401 73.0683 38.6586C72.8087 38.9782 72.4705 39.2455 72.0549 39.4604C71.6393 39.6753 71.1713 39.8313 70.6521 39.9284C70.1328 40.0255 69.6201 40.044 69.1303 39.984C68.7147 39.8204 68.3471 39.5837 68.0362 39.2717C67.7242 38.9597 67.4799 38.6335 67.3021 38.2921C67.0937 37.8918 66.8712 37.4718 66.6345 37.0344C66.3967 36.5969 66.1709 36.1999 65.956 35.8431C65.7411 35.4864 65.548 35.1897 65.3767 34.953C65.2055 34.7163 65.0833 34.5974 65.0091 34.5974C64.9797 34.5974 64.9426 34.6498 64.8978 34.7534C64.8531 34.857 64.8084 34.9988 64.7648 35.1766C64.72 35.3544 64.6753 35.5552 64.6317 35.7777C64.587 36.0002 64.5422 36.2304 64.4986 36.4682C64.395 37.0169 64.2902 37.6332 64.1866 38.3161C64.2008 38.4492 64.2717 38.6466 64.3982 38.9062C64.5237 39.1659 64.6764 39.4593 64.8542 39.7855C65.032 40.1116 65.2175 40.4574 65.4105 40.8207C65.6036 41.185 65.7814 41.5374 65.9451 41.8777C66.1087 42.2192 66.2461 42.5388 66.3574 42.8355C66.4687 43.1322 66.5243 43.37 66.5243 43.5478C66.5243 44.0223 66.3683 44.6125 66.0563 45.3172C65.7443 46.0219 65.296 46.7527 64.7091 47.5098C64.1223 48.2668 63.4099 49.013 62.5722 49.7471C61.7333 50.4813 60.7908 51.1194 59.7447 51.6616C58.6985 52.2026 57.5521 52.6117 56.3052 52.8855C55.0584 53.1604 53.7374 53.216 52.3422 53.0524C52.016 53.0666 51.8709 53.1037 51.908 53.1637C51.9451 53.2226 52.112 53.2935 52.4087 53.3753C52.7054 53.4571 53.1025 53.5498 53.5999 53.6534C54.0973 53.7571 54.6384 53.8542 55.2253 53.9425C55.8122 54.032 56.4198 54.1171 57.0503 54.1989C57.6808 54.2807 58.2742 54.3472 58.8316 54.3996C59.388 54.4519 59.8854 54.4814 60.3228 54.489C60.7603 54.4967 61.0831 54.4781 61.2915 54.4334C61.7518 54.3145 62.2187 54.0625 62.6943 53.6764C63.1688 53.2902 63.6325 52.808 64.0852 52.2288C64.5379 51.6496 64.972 50.9929 65.3876 50.2587C65.8032 49.5246 66.185 48.7523 66.5341 47.9439C66.8832 47.1345 67.1832 46.3153 67.4352 45.4841C67.6871 44.6528 67.8802 43.8511 68.0144 43.0798C68.0144 43.0504 68.0548 43.0428 68.1366 43.058C68.2184 43.0733 68.3144 43.0995 68.4257 43.1355C68.5369 43.1726 68.6558 43.2097 68.7824 43.2467C68.9078 43.2838 69.0289 43.3024 69.1336 43.3024C70.1132 43.3318 70.9575 43.1169 71.6546 42.6566C72.3516 42.1963 72.9199 41.581 73.3574 40.8087C73.7948 40.0375 74.1101 39.1582 74.3032 38.171C74.4962 37.1838 74.5704 36.1791 74.5257 35.1548L74.5246 35.1559Z" fill="#D1D1D1"/>
<path d="M54.0909 35.0392C52.7175 34.6978 51.4227 34.293 50.2064 33.8262C48.989 33.3582 47.8469 32.8651 46.7778 32.3459C45.7088 31.8266 44.715 31.363 43.7943 30.955C42.8737 30.5471 42.0174 30.2351 41.2232 30.0202C40.4291 29.8053 39.7015 29.7638 39.0415 29.898C38.3805 30.0311 37.7761 30.3769 37.2274 30.9332C36.6787 31.4896 36.1813 32.3393 35.7362 33.4825C35.7068 33.5567 35.6948 33.6124 35.7024 33.6494C35.7101 33.6865 35.721 33.7204 35.7362 33.7498C35.7504 33.7793 35.7733 33.8022 35.8028 33.8163C36.2031 33.8163 36.7191 33.8273 37.3496 33.8502C37.9801 33.872 38.5888 33.8982 39.1746 33.9276C39.7604 33.9571 40.2654 33.9832 40.6887 34.0051C41.1119 34.0269 41.3236 34.0312 41.3236 34.016C41.3378 33.9712 41.3574 33.9342 41.3792 33.9047C41.401 33.8753 41.4272 33.8458 41.4567 33.8153C41.4861 33.7858 41.5156 33.7629 41.5461 33.7487C41.7392 33.7345 41.9988 33.7858 42.325 33.9047C42.6511 34.0236 43.034 34.1829 43.4715 34.3836C43.9089 34.5843 44.3954 34.8068 44.9299 35.0512C45.4644 35.2955 46.0426 35.5224 46.6666 35.7297C45.3161 36.1159 44.1172 36.5053 43.0711 36.898C42.025 37.2918 41.0596 37.6409 40.1771 37.9441C39.2935 38.2485 38.4557 38.4895 37.6616 38.6674C36.8675 38.8452 36.01 38.915 35.1494 38.8703C34.7185 38.8703 34.352 38.7753 34.0771 38.5823C33.8022 38.3892 33.5687 38.1743 33.3756 37.9365C33.1826 37.6998 33.0157 37.4805 32.8749 37.2798C32.7342 37.0791 32.5968 36.9798 32.4626 36.9798C32.0623 36.9656 31.6532 37.1064 31.2387 37.4031C30.8231 37.6998 30.3518 38.0379 29.8249 38.4165C29.298 38.795 28.6894 39.1473 27.9999 39.4735C27.3094 39.7997 26.4913 39.9851 25.5423 40.0298C24.8147 40.0298 24.1711 39.9818 23.6071 39.8847C23.0431 39.7887 22.5533 39.6589 22.1377 39.4953C21.7221 39.3317 21.3654 39.1386 21.0687 38.9161C20.772 38.6935 20.5265 38.471 20.3345 38.2485C20.0378 37.8918 19.7258 37.5023 19.3997 37.0802C19.0735 36.6569 18.7321 36.2599 18.3754 35.889C18.0187 35.5181 17.6445 35.2061 17.2507 34.9541C16.8569 34.7021 16.4457 34.5756 16.0148 34.5756C15.4955 34.5756 14.9828 34.7578 14.4789 35.121C13.9738 35.4853 13.5364 35.9555 13.1655 36.5347C12.7946 37.114 12.5197 37.7663 12.3419 38.4939C12.1641 39.2215 12.1412 39.9556 12.2753 40.6974C12.3048 40.8011 12.3092 40.872 12.2863 40.909C12.2644 40.9461 12.2088 41.0018 12.1194 41.0759C11.8226 41.2985 11.3852 41.6366 10.806 42.0893C10.2267 42.5421 9.52204 43.0689 8.69081 43.67C7.85958 44.271 6.91709 44.9277 5.86333 45.6401C4.80957 46.3524 3.65981 47.0647 2.41297 47.777C2.14571 47.9254 1.98972 48.0367 1.945 48.1108C1.90027 48.185 1.90791 48.2363 1.96681 48.2668C2.02681 48.2963 2.12281 48.3039 2.25589 48.2886C2.38897 48.2734 2.50024 48.2516 2.58969 48.2221C3.13839 48.0585 3.74381 47.8578 4.40377 47.621C5.06483 47.3832 5.68334 47.1498 6.26258 46.9196C6.84182 46.6895 7.33925 46.4855 7.75377 46.3077C8.16938 46.1299 8.41373 46.0186 8.48791 45.9739C9.21442 45.5735 9.84166 45.0946 10.3685 44.5383C10.8954 43.982 11.3372 43.4584 11.6928 42.9686C12.0495 42.4788 12.3277 42.0784 12.5273 41.7665C12.728 41.4545 12.8644 41.3432 12.9397 41.4327C13.1764 41.6105 13.4698 41.7926 13.8189 41.9781C14.168 42.1635 14.553 42.3304 14.9763 42.4788C15.3995 42.6271 15.8555 42.746 16.3453 42.8355C16.8351 42.9249 17.3391 42.9544 17.8594 42.9249C18.1267 42.9108 18.3416 42.8213 18.5052 42.6577C18.6688 42.4941 18.7975 42.3162 18.8946 42.1232C18.9906 41.9301 19.0615 41.7599 19.1062 41.6116C19.151 41.4632 19.1881 41.3967 19.2175 41.4108C19.5437 41.7228 19.9189 42.0119 20.3422 42.2792C20.7654 42.5464 21.2356 42.7733 21.7559 42.9577C22.2752 43.1431 22.85 43.2773 23.4816 43.358C24.1121 43.4398 24.7961 43.4584 25.539 43.4136C26.0877 43.3842 26.5862 43.2729 27.04 43.0798C27.4927 42.8868 27.9039 42.6533 28.2759 42.3784C28.6468 42.1035 28.9806 41.8188 29.2773 41.521C29.574 41.2243 29.8446 40.9461 30.09 40.6865C30.3344 40.4269 30.558 40.212 30.7576 40.0407C30.9583 39.8706 31.147 39.7844 31.3248 39.7844C31.5321 39.7844 31.7437 39.9109 31.9597 40.1629C32.1746 40.416 32.4233 40.6974 32.7059 41.0094C32.9873 41.3214 33.3211 41.6072 33.7073 41.8668C34.0934 42.1264 34.5898 42.2552 35.1548 42.2552C36.0897 42.2846 37.054 42.1493 38.0041 41.8526C38.9543 41.5559 39.9371 41.1992 40.9538 40.7836C41.9704 40.368 43.0384 39.9338 44.1598 39.4811C45.2801 39.0284 46.4931 38.6608 47.7999 38.3794C49.1057 38.0979 50.5162 37.9452 52.0292 37.9234C53.5433 37.9016 55.1905 38.1056 56.9707 38.5354C57.1933 38.135 57.4005 37.7489 57.5936 37.378C57.7572 37.066 57.9241 36.7475 58.0943 36.4202C58.2645 36.094 58.3866 35.8344 58.4619 35.6413C56.9184 35.5824 55.4599 35.3817 54.0876 35.0403L54.0909 35.0392ZM18.3536 39.54C18.1605 39.6142 17.8299 39.5957 17.3631 39.4844C16.8951 39.3731 16.4206 39.2248 15.9384 39.0393C15.4563 38.8539 15.033 38.6499 14.6698 38.4274C14.3054 38.2048 14.1385 38.0118 14.1691 37.8481C14.228 37.6998 14.3174 37.5514 14.4363 37.4031C14.5552 37.2547 14.6927 37.1216 14.8487 37.0027C15.0046 36.8838 15.1715 36.7878 15.3494 36.7136C15.5272 36.6395 15.6984 36.6024 15.861 36.6024C16.0977 36.6177 16.3769 36.7693 16.6955 37.0584C17.014 37.3474 17.3074 37.6703 17.5747 38.027C17.8419 38.3837 18.0568 38.7132 18.2205 39.0175C18.3841 39.3219 18.4277 39.4964 18.3536 39.5411V39.54Z" fill="#D1D1D1"/>
<path d="M85.7527 25.9459C86.0418 26.1095 86.3352 26.2829 86.6319 26.4695C86.9286 26.6549 87.2112 26.848 87.4773 27.0487C87.7446 27.2494 87.9671 27.4229 88.1449 27.5723C88.2191 27.4534 88.3413 27.22 88.5125 26.8709C88.6827 26.5218 88.8496 26.1619 89.0132 25.791C89.2063 25.3601 89.4136 24.8932 89.6361 24.3881C89.5467 24.2692 89.3765 24.1209 89.1245 23.9431C88.8714 23.7653 88.5867 23.5798 88.2671 23.3867C87.9475 23.1937 87.6137 23.0158 87.2657 22.8522C86.9177 22.6886 86.609 22.5631 86.3418 22.4737C86.3276 22.4737 86.2861 22.5446 86.2196 22.6853C86.153 22.826 86.0679 23.0115 85.9632 23.2417C85.8596 23.4718 85.7516 23.7173 85.6403 23.9758C85.5291 24.2354 85.4254 24.4809 85.3283 24.7099C85.2324 24.9401 85.1505 25.1397 85.084 25.311C85.0175 25.4812 84.9836 25.5739 84.9836 25.5892C85.2062 25.6633 85.4625 25.7822 85.7516 25.9448L85.7527 25.9459Z" fill="#D1D1D1"/>
<path d="M35.9173 50.6012C36.0657 50.3481 36.226 50.0743 36.3962 49.7776C36.5675 49.4809 36.7267 49.206 36.8751 48.954C37.0235 48.701 37.1194 48.5537 37.1642 48.509C37.1794 48.5232 37.3387 48.6202 37.6431 48.7981C37.9474 48.9759 38.2812 49.1689 38.6445 49.3773C39.0077 49.5846 39.3459 49.7744 39.6579 49.9445C39.9698 50.1147 40.14 50.2009 40.1695 50.2009C40.3025 50.0078 40.4444 49.7744 40.5927 49.4995C40.7411 49.2246 40.8742 48.9464 40.9931 48.665C41.112 48.3824 41.2123 48.1119 41.293 47.8523C41.3749 47.5927 41.4305 47.381 41.4599 47.2174C41.4741 47.128 41.3596 46.9872 41.1152 46.7942C40.8709 46.6011 40.5807 46.4015 40.2469 46.1931C39.9131 45.9858 39.575 45.7895 39.2335 45.603C38.8921 45.4175 38.6248 45.2801 38.4317 45.1906C38.4023 45.2648 38.3237 45.447 38.1983 45.736C38.0718 46.0251 37.9278 46.3262 37.7641 46.6371C37.5863 47.008 37.3856 47.4159 37.1631 47.861C36.7333 47.5796 36.2577 47.2861 35.7384 46.9818C35.2192 46.6774 34.7218 46.4364 34.2472 46.2586C34.2178 46.2444 34.1283 46.3884 33.98 46.6927C33.8316 46.9971 33.6724 47.3352 33.5011 47.7061C33.3309 48.077 33.1782 48.4217 33.0451 48.7413C32.912 49.0599 32.852 49.2202 32.8673 49.2202C33.1498 49.398 33.4095 49.5573 33.6462 49.6991C33.884 49.8398 34.1098 49.9773 34.3247 50.1114C34.5396 50.2445 34.7512 50.3863 34.9596 50.5347C35.1679 50.683 35.3905 50.8532 35.6272 51.0463C35.6719 51.0016 35.7679 50.8532 35.9162 50.6012H35.9173Z" fill="#D1D1D1"/>
<path d="M271.969 50.5914C272.258 50.7551 272.552 50.9285 272.849 51.115C273.145 51.3005 273.428 51.4936 273.694 51.6943C273.961 51.895 274.184 52.0684 274.362 52.2179C274.436 52.099 274.558 51.8655 274.729 51.5165C274.899 51.1674 275.066 50.8074 275.23 50.4365C275.423 50.0056 275.63 49.5388 275.853 49.0337C275.763 48.9148 275.593 48.7664 275.341 48.5886C275.088 48.4108 274.803 48.2254 274.484 48.0323C274.164 47.8392 273.83 47.6614 273.482 47.4978C273.134 47.3342 272.826 47.2087 272.558 47.1193C272.544 47.1193 272.503 47.1902 272.436 47.3309C272.37 47.4716 272.285 47.657 272.18 47.8872C272.076 48.1174 271.968 48.3628 271.857 48.6214C271.746 48.881 271.642 49.1264 271.545 49.3555C271.449 49.5857 271.367 49.7853 271.3 49.9566C271.233 50.1267 271.199 50.2195 271.199 50.2347C271.422 50.3089 271.678 50.4278 271.967 50.5903L271.969 50.5914Z" fill="#D1D1D1"/>
<path d="M274.258 57.2009C274.209 57.3252 274.162 57.4638 274.118 57.6143C274.065 57.7834 274.011 57.9699 273.958 58.175C274.101 58.0855 274.325 57.9765 274.632 57.8477C274.939 57.719 275.293 57.5739 275.694 57.4136C276.094 57.2532 276.526 57.0863 276.988 56.9129C277.451 56.7394 277.913 56.566 278.376 56.3926C278.838 56.2191 279.288 56.0522 279.724 55.8918C280.161 55.7315 280.549 55.5897 280.893 55.4642C281.235 55.3399 281.515 55.233 281.734 55.1435C281.952 55.0552 282.074 54.9963 282.1 54.9701C282.145 54.9439 282.2 54.8741 282.267 54.7628C282.334 54.6516 282.415 54.4934 282.514 54.2894C282.558 54.1476 282.565 54.0647 282.533 54.0429C282.502 54.021 282.411 54.0363 282.259 54.0898C282.188 54.1258 281.979 54.2054 281.632 54.3298C281.285 54.4541 280.86 54.6057 280.358 54.7835C279.855 54.9614 279.305 55.1555 278.71 55.3639C278.113 55.5733 277.537 55.7773 276.982 55.978C276.426 56.1787 275.916 56.3653 275.454 56.5387C274.991 56.7122 274.64 56.8529 274.399 56.9587C274.354 56.9947 274.307 57.0743 274.259 57.1987L274.258 57.2009Z" fill="#D1D1D1"/>
<path d="M259.81 28.2017C259.974 28.0861 260.124 27.9639 260.257 27.8352C260.39 27.7065 260.509 27.5974 260.61 27.508C260.713 27.4185 260.803 27.4011 260.884 27.4545C261.053 27.5701 261.269 27.6236 261.531 27.6149C261.793 27.6061 262.038 27.4861 262.265 27.2549C262.492 27.0236 262.67 26.6538 262.799 26.1477C262.927 25.6404 262.947 24.9466 262.859 24.0652C262.859 24.0303 262.827 24.05 262.765 24.1252C262.703 24.2005 262.636 24.2965 262.564 24.4121C262.493 24.5278 262.429 24.6412 262.371 24.7525C262.313 24.8637 262.294 24.9368 262.311 24.9728C262.32 24.9903 262.335 25.0372 262.358 25.1125C262.38 25.1877 262.4 25.2728 262.418 25.3655C262.435 25.4593 262.444 25.5477 262.444 25.6328C262.444 25.7179 262.427 25.7822 262.391 25.8259C262.328 25.9055 262.241 25.9644 262.13 25.9993C262.019 26.0353 261.907 26.0528 261.796 26.0528C261.685 26.0528 261.582 26.0419 261.49 26.019C261.396 25.9971 261.336 25.972 261.31 25.9459C261.211 25.8575 261.151 25.7386 261.13 25.5924C261.108 25.4452 261.103 25.299 261.117 25.1517C261.13 25.0045 261.153 24.8648 261.183 24.7318C261.214 24.5987 261.239 24.4961 261.256 24.4252C261.265 24.399 261.263 24.3652 261.25 24.3249C261.237 24.2845 261.209 24.2649 261.17 24.2649C261.131 24.2649 261.078 24.303 261.016 24.3783C260.954 24.4536 260.883 24.5987 260.802 24.8125C260.723 25.0263 260.671 25.2423 260.649 25.4593C260.627 25.6775 260.589 25.8793 260.535 26.067C260.482 26.2535 260.388 26.4117 260.255 26.5404C260.122 26.6691 259.904 26.7476 259.6 26.7738C259.271 26.8087 259.042 26.7564 258.913 26.6135C258.784 26.4717 258.711 26.3048 258.693 26.1128C258.675 25.9219 258.688 25.7342 258.733 25.5521C258.778 25.3699 258.804 25.2521 258.813 25.1986C258.875 25.0121 258.86 24.9357 258.766 24.9717C258.672 25.0077 258.568 25.1899 258.452 25.5193C258.434 25.5815 258.4 25.695 258.351 25.8597C258.302 26.0244 258.26 26.2109 258.225 26.4204C258.189 26.6298 258.169 26.8491 258.165 27.0814C258.16 27.3127 258.191 27.5243 258.259 27.7152C258.325 27.9061 258.436 28.0643 258.592 28.1887C258.748 28.313 258.969 28.3752 259.253 28.3752C259.458 28.3752 259.643 28.3174 259.808 28.2017H259.81Z" fill="#D1D1D1"/>
<path d="M260.585 19.7062C260.376 19.8491 260.116 20.0084 259.804 20.1862C259.492 20.364 259.152 20.5527 258.783 20.7534C258.414 20.9541 258.043 21.1559 257.668 21.361C257.544 21.4407 257.512 21.4897 257.575 21.5083C257.637 21.5257 257.735 21.5257 257.868 21.5083C258.5 21.4636 259.047 21.3643 259.51 21.2083C259.972 21.0523 260.371 20.8658 260.704 20.6476C261.038 20.4294 261.312 20.1938 261.525 19.9407C261.738 19.6877 261.908 19.44 262.032 19.2001C262.156 18.9601 262.248 18.7375 262.306 18.5325C262.364 18.3285 262.406 18.1725 262.432 18.0656C262.432 17.7983 262.377 17.5921 262.265 17.4449C262.154 17.2976 262.023 17.2027 261.872 17.158C261.632 17.0958 261.36 17.0489 261.058 17.0184C260.756 16.9878 260.457 16.9671 260.163 16.9584C259.87 16.9496 259.605 16.9496 259.369 16.9584C259.133 16.9671 258.967 16.9845 258.868 17.0118C258.628 17.0653 258.388 17.2082 258.147 17.4383C257.907 17.6696 257.687 17.9303 257.486 18.2194C257.286 18.5085 257.117 18.791 256.979 19.067C256.841 19.343 256.763 19.5469 256.746 19.6811C256.746 19.7073 256.757 19.7193 256.779 19.7149C256.801 19.7106 256.822 19.6997 256.839 19.6811C256.964 19.5568 257.111 19.4237 257.28 19.2808C257.449 19.139 257.631 19.0495 257.828 19.0135C257.961 18.9961 258.134 18.9852 258.348 18.9797C258.562 18.9753 258.789 18.9797 259.029 18.9928C259.269 19.0059 259.511 19.0244 259.756 19.0462C260.001 19.0681 260.219 19.0975 260.41 19.1335C260.601 19.1695 260.75 19.2066 260.857 19.247C260.964 19.2873 261.004 19.3288 260.977 19.3735C260.924 19.4531 260.793 19.5644 260.583 19.7073L260.585 19.7062Z" fill="#D1D1D1"/>
<path d="M159.242 51.8328C159.193 51.9572 159.146 52.0946 159.102 52.2462C159.049 52.4153 158.996 52.6019 158.942 52.8069C159.085 52.7175 159.309 52.6084 159.616 52.4797C159.923 52.351 160.277 52.2059 160.678 52.0455C161.078 51.8852 161.51 51.7183 161.973 51.5448C162.435 51.3714 162.898 51.1979 163.36 51.0245C163.823 50.851 164.272 50.6841 164.708 50.5238C165.145 50.3634 165.533 50.2216 165.877 50.0973C166.219 49.9729 166.5 49.866 166.718 49.7766C166.936 49.6882 167.058 49.6293 167.084 49.6031C167.129 49.5769 167.185 49.5071 167.251 49.3958C167.318 49.2846 167.399 49.1264 167.498 48.9224C167.542 48.7806 167.549 48.6977 167.517 48.6759C167.486 48.6541 167.395 48.6693 167.243 48.7228C167.173 48.7588 166.963 48.8384 166.616 48.9628C166.269 49.0871 165.844 49.2388 165.342 49.4166C164.839 49.5944 164.289 49.7886 163.694 49.9969C163.097 50.2063 162.522 50.4103 161.966 50.6111C161.41 50.8118 160.9 50.9983 160.438 51.1718C159.975 51.3452 159.624 51.4859 159.383 51.5917C159.338 51.6266 159.291 51.7074 159.243 51.8317L159.242 51.8328Z" fill="#D1D1D1"/>
<path d="M151.365 20.424C151.53 20.3083 151.679 20.1862 151.812 20.0574C151.945 19.9287 152.064 19.8196 152.166 19.7302C152.268 19.6407 152.359 19.6233 152.44 19.6767C152.609 19.7924 152.825 19.8458 153.086 19.8371C153.348 19.8284 153.594 19.7084 153.821 19.4771C154.048 19.2459 154.225 18.8761 154.354 18.3699C154.483 17.8627 154.502 17.1689 154.414 16.2875C154.414 16.2526 154.382 16.2722 154.32 16.3475C154.258 16.4227 154.192 16.5187 154.12 16.6344C154.049 16.75 153.984 16.8634 153.926 16.9747C153.869 17.086 153.849 17.1591 153.866 17.1951C153.875 17.2125 153.89 17.2594 153.913 17.3347C153.935 17.41 153.956 17.495 153.973 17.5878C153.991 17.6816 154 17.7699 154 17.855C154 17.9401 153.982 18.0045 153.946 18.0481C153.884 18.1277 153.797 18.1866 153.685 18.2215C153.574 18.2575 153.463 18.275 153.352 18.275C153.24 18.275 153.138 18.2641 153.045 18.2412C152.951 18.2194 152.891 18.1943 152.865 18.1681C152.767 18.0797 152.707 17.9608 152.685 17.8147C152.663 17.6674 152.659 17.5212 152.672 17.374C152.685 17.2267 152.708 17.0871 152.739 16.954C152.769 16.8209 152.794 16.7184 152.812 16.6475C152.82 16.6213 152.818 16.5875 152.805 16.5471C152.792 16.5067 152.765 16.4871 152.725 16.4871C152.686 16.4871 152.634 16.5253 152.572 16.6005C152.509 16.6758 152.439 16.8209 152.358 17.0347C152.278 17.2485 152.227 17.4645 152.204 17.6816C152.182 17.8997 152.144 18.1016 152.091 18.2892C152.037 18.4757 151.943 18.6339 151.81 18.7626C151.677 18.8913 151.459 18.9699 151.156 18.9961C150.826 19.031 150.597 18.9786 150.468 18.8357C150.34 18.6939 150.267 18.527 150.248 18.335C150.231 18.1441 150.244 17.9565 150.288 17.7743C150.333 17.5921 150.359 17.4743 150.368 17.4209C150.43 17.2343 150.415 17.158 150.321 17.194C150.227 17.23 150.124 17.4121 150.007 17.7416C149.99 17.8038 149.956 17.9172 149.907 18.0819C149.858 18.2466 149.815 18.4332 149.78 18.6426C149.744 18.8521 149.724 19.0713 149.72 19.3037C149.716 19.5349 149.746 19.7466 149.814 19.9375C149.88 20.1284 149.992 20.2865 150.148 20.4109C150.304 20.5352 150.524 20.5974 150.809 20.5974C151.014 20.5974 151.198 20.5396 151.363 20.424H151.365Z" fill="#D1D1D1"/>
<path d="M149.523 8.19992C149.638 8.2981 149.812 8.465 150.043 8.70062C150.274 8.93625 150.505 9.26787 150.737 9.69439C150.968 10.122 151.165 10.6489 151.33 11.2761C151.495 11.9034 151.572 12.6484 151.564 13.5113C151.564 13.6182 151.572 13.6782 151.59 13.6913C151.607 13.7044 151.63 13.6956 151.656 13.6651C151.683 13.6334 151.71 13.5964 151.736 13.5516C151.762 13.5069 151.781 13.4764 151.789 13.4578C151.976 12.9506 152.081 12.4302 152.104 11.8968C152.125 11.3634 152.093 10.8354 152.003 10.3151C151.914 9.79474 151.779 9.29186 151.596 8.80644C151.414 8.3221 151.216 7.87921 151.003 7.47887C150.789 7.07853 150.567 6.73164 150.335 6.4382C150.104 6.14476 149.895 5.92659 149.708 5.78369C149.691 5.93532 149.666 6.1284 149.635 6.36402C149.603 6.59965 149.573 6.83309 149.541 7.06435C149.51 7.29561 149.483 7.50069 149.462 7.6785C149.44 7.85631 149.428 7.95885 149.428 7.98503C149.428 8.07448 149.458 8.14538 149.522 8.19883L149.523 8.19992Z" fill="#D1D1D1"/>
<path d="M133.062 51.2852C133.013 51.4096 132.966 51.547 132.922 51.6986C132.869 51.8677 132.815 52.0542 132.762 52.2593C132.905 52.1699 133.128 52.0608 133.436 51.9321C133.742 51.8034 134.097 51.6583 134.497 51.4979C134.898 51.3376 135.33 51.1707 135.792 50.9972C136.255 50.8238 136.717 50.6503 137.18 50.4769C137.642 50.3034 138.092 50.1365 138.528 49.9762C138.964 49.8158 139.353 49.674 139.696 49.5497C140.039 49.4253 140.319 49.3184 140.537 49.2289C140.755 49.1406 140.878 49.0817 140.904 49.0555C140.949 49.0293 141.004 48.9595 141.071 48.8482C141.137 48.737 141.219 48.5788 141.317 48.3748C141.362 48.233 141.369 48.1501 141.337 48.1283C141.305 48.1065 141.215 48.1217 141.063 48.1752C140.992 48.2112 140.783 48.2908 140.436 48.4152C140.089 48.5395 139.664 48.6912 139.162 48.869C138.659 49.0468 138.109 49.2409 137.513 49.4493C136.917 49.6587 136.342 49.8627 135.786 50.0634C135.229 50.2642 134.72 50.4507 134.257 50.6241C133.795 50.7976 133.443 50.9383 133.202 51.0441C133.158 51.079 133.111 51.1598 133.063 51.2841L133.062 51.2852Z" fill="#D1D1D1"/>
<path d="M137.084 28.5704C136.874 28.7799 136.619 29.0024 136.317 29.238C136.015 29.4737 135.638 29.7431 135.189 30.0453C134.74 30.3474 134.181 30.726 133.514 31.1798C133.363 31.2779 133.29 31.3576 133.294 31.4197C133.298 31.4819 133.354 31.4994 133.461 31.4732C134.341 31.2059 135.083 30.8754 135.683 30.4794C136.284 30.0835 136.768 29.6984 137.138 29.3253C137.507 28.9512 137.774 28.6337 137.939 28.3708C138.104 28.1079 138.194 27.977 138.213 27.977C138.292 27.9858 138.44 28.0087 138.653 28.0436C138.867 28.0796 139.101 28.1101 139.354 28.1374C139.607 28.1636 139.857 28.1799 140.101 28.1843C140.345 28.1886 140.53 28.1603 140.655 28.097C140.966 27.8919 141.18 27.6192 141.296 27.2767C141.411 26.9342 141.469 26.5982 141.469 26.2688C141.469 26.0549 141.409 25.8062 141.289 25.5215C141.169 25.2368 141.013 24.9434 140.822 24.6412C140.631 24.339 140.415 24.0456 140.175 23.7609C139.935 23.4762 139.69 23.2253 139.441 23.0071C139.192 22.7889 138.953 22.6242 138.727 22.513C138.5 22.4017 138.301 22.369 138.133 22.4126C138.124 22.4126 138.104 22.4595 138.073 22.5522C138.041 22.646 138.009 22.7617 137.973 22.8991C137.937 23.0377 137.898 23.186 137.853 23.3464C137.808 23.5067 137.768 23.6562 137.733 23.7936C137.697 23.9322 137.666 24.0467 137.639 24.1405C137.613 24.2343 137.594 24.2801 137.586 24.2801C137.506 24.3336 137.408 24.4492 137.292 24.627C137.176 24.8048 137.065 25.0143 136.958 25.2543C136.851 25.4942 136.766 25.7506 136.705 26.0211C136.643 26.2928 136.627 26.5535 136.658 26.8022C136.689 27.0509 136.785 27.2712 136.945 27.4632C137.106 27.6541 137.35 27.7861 137.679 27.857C137.493 28.1243 137.294 28.3621 137.086 28.5715L137.084 28.5704ZM139.272 25.9011C139.347 25.6295 139.394 25.4004 139.412 25.2139C139.42 25.1605 139.467 25.1539 139.551 25.1943C139.635 25.2346 139.742 25.3055 139.872 25.4081C140.001 25.5106 140.134 25.6328 140.272 25.7746C140.41 25.9175 140.537 26.0593 140.653 26.2011C140.769 26.344 140.858 26.4793 140.92 26.608C140.982 26.7367 141 26.8371 140.974 26.908C140.956 26.9527 140.894 26.9767 140.787 26.9811C140.68 26.9854 140.549 26.9833 140.393 26.9745C140.237 26.9658 140.073 26.9484 139.899 26.9211C139.726 26.8949 139.568 26.8654 139.426 26.8338C139.283 26.8033 139.165 26.7738 139.072 26.7465C138.979 26.7204 138.937 26.6975 138.946 26.68C139.088 26.4313 139.197 26.1706 139.273 25.899L139.272 25.9011ZM137.25 25.7004C137.312 25.5717 137.385 25.4397 137.47 25.3066C137.554 25.1735 137.648 25.0535 137.75 24.9466C137.853 24.8397 137.943 24.7907 138.024 24.7994C138.255 24.8168 138.413 24.9128 138.497 25.0863C138.581 25.2597 138.624 25.4484 138.624 25.6535C138.624 25.8586 138.599 26.0539 138.551 26.2404C138.502 26.4269 138.464 26.5469 138.437 26.6004C138.331 26.5829 138.202 26.56 138.05 26.5338C137.899 26.5066 137.755 26.4695 137.616 26.4204C137.478 26.3713 137.364 26.3091 137.276 26.2338C137.186 26.1586 137.147 26.0626 137.156 25.947C137.156 25.911 137.187 25.8291 137.25 25.7004Z" fill="#D1D1D1"/>
<path d="M126.096 8.19773C125.784 8.41154 125.49 8.67116 125.215 8.97878C124.939 9.28531 124.695 9.6082 124.481 9.94637C124.267 10.2845 124.107 10.5823 124.001 10.8409C123.984 10.903 123.995 10.9369 124.035 10.9412C124.075 10.9456 124.117 10.9259 124.162 10.8812C124.286 10.7569 124.417 10.626 124.555 10.4874C124.693 10.35 124.838 10.2202 124.99 10.1002C125.141 9.98018 125.296 9.88201 125.456 9.80674C125.617 9.73147 125.786 9.69329 125.964 9.69329C126.186 9.69329 126.388 9.7402 126.571 9.83292C126.753 9.92673 126.942 10.0315 127.138 10.1471C127.334 10.2627 127.545 10.3696 127.772 10.4678C127.999 10.566 128.269 10.6151 128.579 10.6151C128.962 10.6238 129.338 10.5616 129.707 10.4285C130.076 10.2954 130.426 10.1176 130.755 9.8951C131.084 9.67256 131.388 9.41949 131.669 9.13477C131.949 8.85006 132.193 8.55662 132.403 8.25446C132.612 7.95229 132.777 7.65667 132.897 7.36651C133.017 7.07743 133.081 6.81672 133.09 6.58546C133.108 6.2473 133.045 5.96258 132.904 5.73132C132.761 5.50006 132.538 5.38007 132.236 5.37134C131.844 5.36262 131.474 5.46952 131.121 5.69205C130.77 5.91459 130.438 6.18621 130.127 6.50583C129.815 6.82654 129.522 7.1647 129.247 7.52032C128.971 7.87593 128.714 8.18792 128.473 8.45408C128.446 8.46281 128.391 8.43881 128.306 8.381C128.221 8.32318 128.117 8.25664 127.992 8.18028C127.867 8.10501 127.72 8.03629 127.551 7.97302C127.382 7.91084 127.204 7.87921 127.017 7.87921C126.715 7.87921 126.408 7.98611 126.097 8.19992L126.096 8.19773ZM131.64 7.17015C131.716 7.24106 131.767 7.32615 131.794 7.42323C131.82 7.52141 131.818 7.62395 131.788 7.72976C131.756 7.83666 131.7 7.93048 131.621 8.01011C131.354 8.27737 131.06 8.45954 130.74 8.55771C130.42 8.65589 130.122 8.71371 129.846 8.73116C129.525 8.74861 129.206 8.71807 128.885 8.63735C128.894 8.62862 128.962 8.53699 129.092 8.36354C129.221 8.1901 129.394 8.00356 129.613 7.80285C129.831 7.60213 130.086 7.42214 130.379 7.26288C130.673 7.10252 130.989 7.03162 131.327 7.04907C131.46 7.0578 131.565 7.09816 131.642 7.16906L131.64 7.17015Z" fill="#D1D1D1"/>
<path d="M163.886 2.82966C163.574 3.04347 163.28 3.30309 163.006 3.61071C162.73 3.91724 162.485 4.24013 162.271 4.57829C162.058 4.91646 161.897 5.21426 161.791 5.47279C161.774 5.53497 161.785 5.56879 161.825 5.57315C161.866 5.57751 161.907 5.55788 161.952 5.51315C162.076 5.3888 162.207 5.25789 162.346 5.11936C162.483 4.98191 162.628 4.8521 162.78 4.7321C162.931 4.61211 163.086 4.51393 163.247 4.43867C163.407 4.3634 163.576 4.32522 163.754 4.32522C163.976 4.32522 164.178 4.37212 164.362 4.46485C164.544 4.55866 164.732 4.66338 164.929 4.77901C165.124 4.89464 165.336 5.00154 165.563 5.09972C165.789 5.1979 166.059 5.24698 166.37 5.24698C166.753 5.25571 167.128 5.19353 167.498 5.06045C167.866 4.92737 168.217 4.74956 168.545 4.52702C168.874 4.30449 169.179 4.05141 169.459 3.7667C169.739 3.48199 169.984 3.18855 170.193 2.88639C170.403 2.58422 170.567 2.2886 170.687 1.99843C170.807 1.70936 170.872 1.44865 170.88 1.21739C170.898 0.879223 170.836 0.594512 170.694 0.363251C170.551 0.131991 170.328 0.0119979 170.026 0.00327107C169.635 -0.00545573 169.264 0.101448 168.911 0.323981C168.56 0.546514 168.229 0.818136 167.918 1.13775C167.606 1.45846 167.312 1.79663 167.037 2.15224C166.761 2.50786 166.504 2.81984 166.263 3.08601C166.237 3.09474 166.18 3.07074 166.096 3.01292C166.011 2.95511 165.907 2.88857 165.782 2.81221C165.657 2.73694 165.51 2.66822 165.341 2.60495C165.172 2.54277 164.994 2.51113 164.808 2.51113C164.505 2.51113 164.198 2.61804 163.887 2.83184L163.886 2.82966ZM169.431 1.80208C169.506 1.87299 169.557 1.95807 169.584 2.05516C169.611 2.15334 169.609 2.25588 169.578 2.36169C169.546 2.46859 169.491 2.5624 169.411 2.64204C169.144 2.90929 168.85 3.09147 168.531 3.18964C168.21 3.28782 167.912 3.34563 167.636 3.36309C167.316 3.38054 166.996 3.35 166.675 3.26927C166.684 3.26055 166.753 3.16892 166.882 2.99547C167.011 2.82203 167.185 2.63549 167.403 2.43477C167.621 2.23406 167.876 2.05407 168.17 1.8948C168.463 1.73445 168.779 1.66354 169.118 1.681C169.251 1.68972 169.355 1.73009 169.432 1.80099L169.431 1.80208Z" fill="#D1D1D1"/>
<path d="M112.369 21.8486C112.534 21.733 112.684 21.6108 112.817 21.4821C112.95 21.3534 113.069 21.2443 113.17 21.1548C113.273 21.0654 113.363 21.0479 113.444 21.1014C113.613 21.217 113.829 21.2705 114.091 21.2617C114.353 21.253 114.598 21.133 114.825 20.9018C115.052 20.6705 115.23 20.3007 115.358 19.7946C115.487 19.2873 115.508 18.5935 115.418 17.7121C115.418 17.6772 115.387 17.6969 115.325 17.7721C115.262 17.8474 115.196 17.9434 115.124 18.059C115.053 18.1746 114.989 18.2881 114.931 18.3994C114.873 18.5106 114.852 18.5837 114.871 18.6197C114.879 18.6372 114.895 18.6841 114.918 18.7593C114.939 18.8346 114.96 18.9197 114.978 19.0124C114.995 19.1062 115.004 19.1946 115.004 19.2797C115.004 19.3648 114.986 19.4291 114.95 19.4728C114.888 19.5524 114.801 19.6113 114.69 19.6462C114.578 19.6822 114.467 19.6997 114.356 19.6997C114.245 19.6997 114.142 19.6887 114.049 19.6658C113.956 19.644 113.896 19.6189 113.869 19.5927C113.771 19.5044 113.711 19.3855 113.689 19.2393C113.668 19.092 113.663 18.9459 113.676 18.7986C113.689 18.6513 113.712 18.5117 113.743 18.3786C113.774 18.2455 113.798 18.143 113.816 18.0721C113.825 18.0459 113.822 18.0121 113.809 17.9717C113.796 17.9314 113.769 17.9117 113.73 17.9117C113.69 17.9117 113.638 17.9499 113.576 18.0252C113.514 18.1005 113.443 18.2455 113.362 18.4594C113.282 18.6732 113.231 18.8892 113.208 19.1062C113.186 19.3244 113.148 19.5262 113.095 19.7138C113.041 19.9004 112.948 20.0585 112.814 20.1873C112.681 20.316 112.463 20.3945 112.161 20.4207C111.832 20.4556 111.603 20.4032 111.474 20.2603C111.345 20.1185 111.272 19.9516 111.253 19.7596C111.236 19.5688 111.249 19.3811 111.294 19.199C111.339 19.0168 111.365 18.899 111.373 18.8455C111.436 18.659 111.42 18.5826 111.327 18.6186C111.233 18.6546 111.129 18.8368 111.012 19.1662C110.995 19.2284 110.961 19.3419 110.912 19.5066C110.863 19.6713 110.82 19.8578 110.786 20.0673C110.75 20.2767 110.73 20.496 110.726 20.7283C110.721 20.9596 110.752 21.1712 110.819 21.3621C110.886 21.553 110.997 21.7112 111.153 21.8355C111.309 21.9599 111.529 22.0221 111.814 22.0221C112.019 22.0221 112.204 21.9643 112.368 21.8486H112.369Z" fill="#D1D1D1"/>
<path d="M104.254 17.1089C104.205 17.2332 104.158 17.3718 104.114 17.5223C104.061 17.6914 104.007 17.8779 103.954 18.083C104.097 17.9936 104.32 17.8845 104.628 17.7558C104.934 17.627 105.289 17.482 105.689 17.3216C106.089 17.1613 106.521 16.9944 106.984 16.8209C107.447 16.6475 107.909 16.474 108.372 16.3006C108.834 16.1271 109.284 15.9602 109.72 15.7999C110.156 15.6395 110.545 15.4977 110.888 15.3723C111.231 15.2479 111.511 15.141 111.729 15.0515C111.947 14.9632 112.07 14.9043 112.096 14.8781C112.14 14.8519 112.196 14.7821 112.263 14.6708C112.329 14.5596 112.411 14.4014 112.509 14.1974C112.554 14.0556 112.56 13.9727 112.529 13.9509C112.497 13.9291 112.407 13.9443 112.255 13.9978C112.184 14.0338 111.975 14.1134 111.628 14.2378C111.281 14.3621 110.855 14.5138 110.354 14.6916C109.851 14.8694 109.301 15.0635 108.705 15.2719C108.109 15.4813 107.533 15.6853 106.977 15.886C106.421 16.0868 105.912 16.2733 105.449 16.4467C104.987 16.6202 104.635 16.7609 104.394 16.8667C104.35 16.9027 104.303 16.9824 104.255 17.1067L104.254 17.1089Z" fill="#D1D1D1"/>
<path d="M104.43 47.5349C104.514 47.6909 104.631 47.8283 104.777 47.9483C104.924 48.0683 105.1 48.1643 105.304 48.2352C105.509 48.3061 105.73 48.3421 105.972 48.3421C106.933 48.3421 107.813 48.0596 108.614 47.4945C109.414 46.9294 110.108 46.1091 110.696 45.0325C110.722 44.9343 110.707 44.8808 110.649 44.8721C110.591 44.8634 110.527 44.8994 110.456 44.979C110.18 45.2812 109.867 45.5441 109.515 45.7666C109.163 45.9891 108.802 46.1735 108.434 46.3208C108.064 46.468 107.699 46.5727 107.339 46.6349C106.98 46.6971 106.652 46.7222 106.359 46.708C106.065 46.6938 105.818 46.6415 105.618 46.5476C105.419 46.4538 105.295 46.3229 105.252 46.1539C105.198 45.976 105.225 45.7851 105.331 45.5801C105.438 45.375 105.58 45.1666 105.759 44.9528C105.937 44.739 106.134 44.5143 106.352 44.2787C106.57 44.0431 106.768 43.8031 106.946 43.5576C107.124 43.3133 107.264 43.0613 107.366 42.8039C107.468 42.5464 107.492 42.2792 107.439 42.0032C107.413 41.8614 107.343 41.725 107.232 41.5963C107.12 41.4676 106.985 41.3541 106.825 41.2559C106.664 41.1578 106.489 41.0825 106.298 41.029C106.107 40.9756 105.917 40.9538 105.73 40.9625C105.508 40.98 105.292 41.0498 105.084 41.1698C104.874 41.2898 104.692 41.4305 104.536 41.5897C104.38 41.7501 104.256 41.9061 104.162 42.0566C104.068 42.2082 104.027 42.3239 104.035 42.4035C104.32 42.3675 104.631 42.3697 104.969 42.4101C105.307 42.4504 105.609 42.5126 105.877 42.5966C106.144 42.6817 106.346 42.7809 106.484 42.8966C106.622 43.0122 106.638 43.1366 106.531 43.2707C106.495 43.3155 106.416 43.4038 106.291 43.538C106.167 43.6711 106.022 43.8358 105.857 44.0321C105.692 44.2285 105.519 44.4478 105.337 44.6932C105.155 44.9376 104.988 45.1939 104.836 45.4601C104.684 45.7273 104.558 45.9968 104.455 46.2673C104.353 46.5389 104.301 46.7985 104.301 47.0483C104.301 47.2174 104.344 47.38 104.428 47.536L104.43 47.5349Z" fill="#D1D1D1"/>
<path d="M94.2048 4.91318C94.3204 5.01136 94.4938 5.17826 94.7251 5.41388C94.9564 5.6495 95.1876 5.98112 95.4189 6.40764C95.6501 6.83526 95.8476 7.36214 96.0123 7.98938C96.177 8.61661 96.2545 9.36166 96.2457 10.2245C96.2457 10.3314 96.2545 10.3914 96.2719 10.4045C96.2894 10.4176 96.3123 10.4089 96.3385 10.3783C96.3647 10.3467 96.3919 10.3096 96.4181 10.2649C96.4443 10.2202 96.4628 10.1896 96.4716 10.1711C96.6581 9.66383 96.7628 9.14349 96.7857 8.61007C96.8075 8.07664 96.7748 7.54867 96.6854 7.02834C96.5959 6.508 96.4606 6.00512 96.2785 5.51969C96.0963 5.03536 95.8978 4.59247 95.6851 4.19213C95.4712 3.79179 95.2487 3.4449 95.0175 3.15146C94.7862 2.85802 94.5767 2.63985 94.3902 2.49695C94.3728 2.64858 94.3477 2.84166 94.3171 3.07728C94.2855 3.3129 94.255 3.54635 94.2233 3.77761C94.1917 4.00887 94.1655 4.21395 94.1437 4.39175C94.1219 4.56956 94.1099 4.6721 94.1099 4.69828C94.1099 4.78773 94.1404 4.85864 94.2037 4.91209L94.2048 4.91318Z" fill="#D1D1D1"/>
<path d="M92.7516 56.9816C92.7026 57.106 92.6556 57.2434 92.612 57.395C92.5586 57.5641 92.5051 57.7507 92.4517 57.9557C92.5946 57.8663 92.8182 57.7572 93.1258 57.6285C93.4323 57.4998 93.7869 57.3547 94.1872 57.1943C94.5875 57.034 95.0195 56.8671 95.482 56.6936C95.9446 56.5202 96.4071 56.3467 96.8696 56.1733C97.3321 55.9998 97.7815 55.8329 98.2179 55.6726C98.6542 55.5122 99.0426 55.3704 99.3862 55.2461C99.7287 55.1217 100.009 55.0148 100.227 54.9254C100.445 54.837 100.568 54.7781 100.594 54.7519C100.638 54.7257 100.694 54.6559 100.761 54.5446C100.827 54.4334 100.91 54.2752 101.007 54.0712C101.052 53.9294 101.058 53.8465 101.027 53.8247C100.995 53.8029 100.905 53.8181 100.753 53.8716C100.682 53.9076 100.473 53.9872 100.126 54.1116C99.7789 54.2359 99.3535 54.3876 98.8517 54.5654C98.3488 54.7432 97.799 54.9374 97.2034 55.1457C96.6067 55.3552 96.0307 55.5591 95.4755 55.7599C94.9192 55.9606 94.4097 56.1471 93.9472 56.3206C93.4847 56.494 93.1334 56.6347 92.8924 56.7405C92.8476 56.7754 92.8007 56.8562 92.7527 56.9805L92.7516 56.9816Z" fill="#D1D1D1"/>
<path d="M75.1836 50.4921C75.2676 50.6481 75.3843 50.7856 75.5305 50.9056C75.6778 51.0256 75.8534 51.1216 76.0574 51.1925C76.2625 51.2634 76.485 51.2994 76.725 51.2994C77.686 51.2994 78.5663 51.0168 79.367 50.4518C80.1677 49.8867 80.8615 49.0664 81.4495 47.9897C81.4756 47.8916 81.4604 47.8381 81.4026 47.8294C81.3447 47.8207 81.2804 47.8567 81.2095 47.9363C80.9335 48.2384 80.6204 48.5013 80.2681 48.7239C79.9168 48.9464 79.5557 49.1308 79.187 49.278C78.8172 49.4253 78.4529 49.53 78.0929 49.5922C77.7329 49.6544 77.4057 49.6795 77.1122 49.6653C76.8188 49.6511 76.5712 49.5987 76.3716 49.5049C76.1708 49.4111 76.0487 49.2802 76.005 49.1111C75.9516 48.9333 75.9789 48.7424 76.0847 48.5373C76.1916 48.3323 76.3334 48.1239 76.5123 47.9101C76.6901 47.6963 76.8875 47.4716 77.1057 47.236C77.3239 47.0003 77.5213 46.7603 77.6991 46.5149C77.8769 46.2706 78.0177 46.0186 78.1191 45.7611C78.2216 45.5037 78.2456 45.2364 78.1922 44.9604C78.166 44.8186 78.0962 44.6823 77.9849 44.5536C77.8737 44.4248 77.7384 44.3114 77.578 44.2132C77.4177 44.115 77.2421 44.0398 77.0512 43.9863C76.8603 43.9329 76.6705 43.911 76.4839 43.9198C76.2614 43.9372 76.0454 44.007 75.837 44.127C75.6276 44.247 75.4454 44.3877 75.2894 44.547C75.1334 44.7074 75.0091 44.8634 74.9153 45.0139C74.8215 45.1655 74.78 45.2812 74.7887 45.3608C75.0734 45.3248 75.3843 45.327 75.7225 45.3673C76.0607 45.4077 76.3628 45.4699 76.6301 45.5539C76.8973 45.639 77.0992 45.7382 77.2377 45.8539C77.3751 45.9695 77.3915 46.0938 77.2846 46.228C77.2486 46.2727 77.169 46.3611 77.0446 46.4953C76.9203 46.6284 76.7752 46.7931 76.6105 46.9894C76.4457 47.1858 76.2723 47.405 76.0901 47.6505C75.908 47.8948 75.741 48.1512 75.5894 48.4173C75.4378 48.6846 75.3113 48.954 75.2087 49.2246C75.1062 49.4962 75.0549 49.7558 75.0549 50.0056C75.0549 50.1747 75.0974 50.3372 75.1814 50.4932L75.1836 50.4921Z" fill="#D1D1D1"/>
<path d="M77.1308 8.4159C76.8188 8.62971 76.5254 8.88933 76.2505 9.19695C75.9745 9.50348 75.7301 9.82637 75.5163 10.1645C75.3025 10.5027 75.1422 10.8005 75.0363 11.059C75.0189 11.1212 75.0298 11.155 75.0702 11.1594C75.1105 11.1638 75.152 11.1441 75.1967 11.0994C75.3211 10.975 75.452 10.8441 75.5905 10.7056C75.7279 10.5682 75.873 10.4383 76.0247 10.3183C76.1763 10.1984 76.3312 10.1002 76.4915 10.0249C76.6519 9.94964 76.821 9.91146 76.9988 9.91146C77.2213 9.91146 77.4231 9.95837 77.6064 10.0511C77.7886 10.1449 77.9773 10.2496 78.1736 10.3653C78.3689 10.4809 78.5805 10.5878 78.8074 10.686C79.0343 10.7841 79.3038 10.8332 79.6146 10.8332C79.9975 10.842 80.3728 10.7798 80.7426 10.6467C81.1113 10.5136 81.4615 10.3358 81.7898 10.1133C82.1192 9.89073 82.4236 9.63766 82.7039 9.35294C82.9843 9.06823 83.2286 8.77479 83.4381 8.47263C83.6475 8.17046 83.8122 7.87484 83.9322 7.58468C84.0522 7.2956 84.1166 7.03489 84.1253 6.80363C84.1428 6.46547 84.0806 6.18075 83.9388 5.94949C83.7959 5.71823 83.5733 5.59824 83.2712 5.58951C82.8796 5.58079 82.5087 5.68769 82.1563 5.91022C81.8051 6.13276 81.4735 6.40438 81.1626 6.724C80.8506 7.04471 80.5571 7.38287 80.2822 7.73849C80.0063 8.0941 79.7488 8.40609 79.5077 8.67225C79.4816 8.68098 79.4248 8.65698 79.3408 8.59917C79.2558 8.54135 79.1521 8.47481 79.0267 8.39845C78.9023 8.32318 78.755 8.25446 78.586 8.19119C78.4169 8.12901 78.2391 8.09738 78.0525 8.09738C77.7504 8.09738 77.4428 8.20428 77.1319 8.41809L77.1308 8.4159ZM82.6756 7.38832C82.7508 7.45923 82.8021 7.54432 82.8294 7.6414C82.8556 7.73958 82.8534 7.84212 82.8228 7.94793C82.7912 8.05483 82.7356 8.14865 82.6559 8.22828C82.3887 8.49554 82.0952 8.67771 81.7756 8.77588C81.4549 8.87406 81.1571 8.93188 80.8811 8.94933C80.5604 8.96678 80.2408 8.93624 79.9201 8.85552C79.9288 8.84679 79.9975 8.75516 80.1273 8.58171C80.2561 8.40827 80.4295 8.22173 80.6477 8.02102C80.8658 7.8203 81.1211 7.64031 81.4145 7.48105C81.708 7.32069 82.0243 7.24979 82.3625 7.26724C82.4956 7.27597 82.6003 7.31633 82.6767 7.38723L82.6756 7.38832Z" fill="#D1D1D1"/>
<path d="M60.6676 27.8734C60.8323 27.7577 60.9818 27.6356 61.1149 27.5068C61.248 27.3781 61.3669 27.269 61.4683 27.1796C61.5708 27.0901 61.6614 27.0727 61.7421 27.1261C61.9112 27.2418 62.1272 27.2952 62.389 27.2865C62.6508 27.2778 62.8962 27.1578 63.1231 26.9265C63.35 26.6953 63.5278 26.3255 63.6566 25.8193C63.7853 25.3121 63.8049 24.6183 63.7165 23.7369C63.7165 23.702 63.6849 23.7216 63.6227 23.7969C63.5606 23.8721 63.494 23.9681 63.422 24.0838C63.3511 24.1994 63.2868 24.3128 63.2289 24.4241C63.1711 24.5354 63.1515 24.6085 63.1689 24.6445C63.1777 24.6619 63.1929 24.7088 63.2159 24.7841C63.2377 24.8594 63.2584 24.9444 63.2758 25.0372C63.2933 25.131 63.302 25.2193 63.302 25.3044C63.302 25.3895 63.2846 25.4539 63.2486 25.4975C63.1864 25.5771 63.0991 25.636 62.9879 25.6709C62.8766 25.7069 62.7653 25.7244 62.6541 25.7244C62.5428 25.7244 62.4403 25.7135 62.3475 25.6906C62.2537 25.6688 62.1937 25.6437 62.1675 25.6175C62.0694 25.5291 62.0094 25.4102 61.9876 25.2641C61.9657 25.1168 61.9614 24.9706 61.9745 24.8234C61.9876 24.6761 62.0105 24.5365 62.041 24.4034C62.0715 24.2703 62.0966 24.1678 62.1141 24.0969C62.1228 24.0707 62.1206 24.0369 62.1075 23.9965C62.0945 23.9561 62.0672 23.9365 62.0279 23.9365C61.9886 23.9365 61.9363 23.9747 61.8741 24.0499C61.8119 24.1252 61.741 24.2703 61.6603 24.4841C61.5807 24.6979 61.5294 24.9139 61.5065 25.131C61.4847 25.3491 61.4465 25.551 61.393 25.7386C61.3396 25.9251 61.2458 26.0833 61.1127 26.212C60.9796 26.3407 60.7614 26.4193 60.4582 26.4455C60.1287 26.4804 59.8997 26.428 59.7709 26.2851C59.6422 26.1433 59.5691 25.9764 59.5506 25.7844C59.5331 25.5935 59.5462 25.4059 59.591 25.2237C59.6357 25.0415 59.6619 24.9237 59.6706 24.8703C59.7328 24.6837 59.7175 24.6074 59.6237 24.6434C59.5299 24.6794 59.4262 24.8615 59.3095 25.191C59.2921 25.2532 59.2583 25.3666 59.2092 25.5313C59.1601 25.696 59.1175 25.8826 59.0826 26.092C59.0466 26.3015 59.027 26.5207 59.0226 26.7531C59.0183 26.9843 59.0488 27.196 59.1164 27.3869C59.183 27.5778 59.2942 27.7359 59.4502 27.8603C59.6062 27.9846 59.8266 28.0468 60.1113 28.0468C60.3164 28.0468 60.5007 27.989 60.6654 27.8734H60.6676Z" fill="#D1D1D1"/>
<path d="M31.8473 22.6962C31.7983 22.8206 31.7514 22.9591 31.7077 23.1096C31.6543 23.2787 31.6008 23.4653 31.5474 23.6703C31.6903 23.5809 31.9139 23.4718 32.2215 23.3431C32.528 23.2144 32.8826 23.0693 33.2829 22.9089C33.6832 22.7486 34.1152 22.5817 34.5777 22.4082C35.0403 22.2348 35.5028 22.0613 35.9653 21.8879C36.4278 21.7144 36.8773 21.5475 37.3136 21.3872C37.7499 21.2268 38.1383 21.085 38.4819 20.9596C38.8244 20.8352 39.1048 20.7283 39.3229 20.6389C39.5411 20.5505 39.6633 20.4916 39.6895 20.4654C39.7342 20.4392 39.7898 20.3694 39.8564 20.2582C39.9229 20.1469 40.0047 19.9887 40.1029 19.7847C40.1476 19.6429 40.1542 19.56 40.1225 19.5382C40.0909 19.5164 40.0004 19.5316 39.8487 19.5851C39.7778 19.6211 39.5684 19.7007 39.2215 19.8251C38.8746 19.9494 38.4492 20.1011 37.9474 20.2789C37.4445 20.4567 36.8947 20.6509 36.2991 20.8592C35.7024 21.0687 35.1264 21.2726 34.5712 21.4734C34.0149 21.6741 33.5054 21.8606 33.0429 22.0341C32.5804 22.2075 32.2291 22.3482 31.9881 22.454C31.9433 22.49 31.8964 22.5697 31.8484 22.694L31.8473 22.6962Z" fill="#D1D1D1"/>
<path d="M28.529 33.8458C28.7471 33.704 28.9424 33.5229 29.1158 33.3058C29.2893 33.0876 29.4431 32.8498 29.5762 32.5913C29.7093 32.3339 29.8205 32.0884 29.91 31.8572C29.9449 31.7503 29.9503 31.6815 29.9231 31.6499C29.8969 31.6194 29.8522 31.6434 29.79 31.723C29.6296 31.9455 29.4234 32.1015 29.1693 32.1899C28.9162 32.2793 28.662 32.3077 28.409 32.276C28.1559 32.2455 27.9213 32.1561 27.7086 32.0088C27.4948 31.8615 27.3421 31.6663 27.2483 31.4219C27.1545 31.1776 27.1458 30.8809 27.2221 30.534C27.2974 30.1871 27.4959 29.7955 27.8155 29.3591C27.833 29.3329 27.8352 29.3078 27.8221 29.286C27.809 29.2642 27.7883 29.2522 27.7621 29.2522C27.6912 29.2435 27.5756 29.3482 27.4152 29.5664C27.2548 29.7845 27.0945 30.0649 26.9352 30.4074C26.7749 30.7499 26.6396 31.1241 26.5283 31.5288C26.4171 31.9335 26.3745 32.3164 26.4018 32.6764C26.428 33.0364 26.5491 33.344 26.7618 33.5971C26.9756 33.8501 27.3268 33.9952 27.8166 34.0312C28.0741 34.0487 28.313 33.9865 28.5311 33.8447L28.529 33.8458Z" fill="#D1D1D1"/>
<path d="M0.299984 53.6949C0.250895 53.8192 0.203989 53.9578 0.160355 54.1083C0.106903 54.2774 0.0534516 54.4639 0 54.669C0.142901 54.5796 0.366525 54.4705 0.674145 54.3418C0.980674 54.213 1.3352 54.068 1.73554 53.9076C2.13588 53.7472 2.56786 53.5804 3.03038 53.4069C3.4929 53.2335 3.95542 53.06 4.41794 52.8866C4.88046 52.7131 5.32989 52.5462 5.76623 52.3859C6.20257 52.2255 6.59091 52.0837 6.93453 51.9583C7.27706 51.8339 7.5574 51.727 7.77558 51.6375C7.99374 51.5492 8.11592 51.4903 8.1421 51.4641C8.18683 51.4379 8.24246 51.3681 8.309 51.2568C8.37554 51.1456 8.45736 50.9874 8.55553 50.7834C8.60026 50.6416 8.6068 50.5587 8.57517 50.5369C8.54353 50.5151 8.45299 50.5303 8.30136 50.5838C8.23046 50.6198 8.02102 50.6994 7.67413 50.8238C7.32724 50.9481 6.9018 51.0998 6.40001 51.2776C5.89713 51.4554 5.34734 51.6495 4.75174 51.8579C4.15505 52.0673 3.57908 52.2713 3.02383 52.472C2.4675 52.6728 1.95807 52.8593 1.49555 53.0327C1.03303 53.2062 0.681781 53.3469 0.440703 53.4527C0.395978 53.4887 0.349072 53.5684 0.301074 53.6927L0.299984 53.6949Z" fill="#D1D1D1"/>
<path d="M49.3063 48.7043C49.2572 48.8286 49.2103 48.9672 49.1667 49.1177C49.1133 49.2868 49.0598 49.4733 49.0063 49.6784C49.1492 49.5889 49.3729 49.4799 49.6805 49.3511C49.987 49.2224 50.3415 49.0773 50.7419 48.917C51.1422 48.7566 51.5742 48.5897 52.0367 48.4163C52.4992 48.2428 52.9618 48.0694 53.4243 47.8959C53.8868 47.7225 54.3362 47.5556 54.7726 47.3952C55.2089 47.2349 55.5973 47.0931 55.9409 46.9676C56.2834 46.8433 56.5638 46.7364 56.7819 46.6469C57.0001 46.5586 57.1223 46.4997 57.1484 46.4735C57.1932 46.4473 57.2488 46.3775 57.3153 46.2662C57.3819 46.1549 57.4637 45.9968 57.5619 45.7928C57.6066 45.651 57.6131 45.5681 57.5815 45.5462C57.5499 45.5244 57.4593 45.5397 57.3077 45.5932C57.2368 45.6292 57.0274 45.7088 56.6805 45.8331C56.3336 45.9575 55.9082 46.1091 55.4064 46.2869C54.9035 46.4647 54.3537 46.6589 53.7581 46.8673C53.1614 47.0767 52.5854 47.2807 52.0302 47.4814C51.4738 47.6821 50.9644 47.8687 50.5019 48.0421C50.0394 48.2156 49.6881 48.3563 49.4471 48.4621C49.4023 48.4981 49.3554 48.5777 49.3074 48.7021L49.3063 48.7043Z" fill="#D1D1D1"/>
</g>
<defs>
<clipPath id="clip0_31_184">
<rect width="282.552" height="60" fill="white"/>
</clipPath>
</defs>
</svg>
