<svg width="16" height="16" viewBox="0 0 16 16" fill="none" xmlns="http://www.w3.org/2000/svg">
<path fill-rule="evenodd" clip-rule="evenodd" d="M8 16C12.4183 16 16 12.4183 16 8C16 3.58172 12.4183 0 8 0C3.58172 0 0 3.58172 0 8C0 12.4183 3.58172 16 8 16ZM11.7433 6.66896C12.1128 6.25845 12.0795 5.62616 11.669 5.25671C11.2585 4.88725 10.6262 4.92053 10.2567 5.33104L7.3352 8.57716L5.67941 7.04402C5.27416 6.66879 4.64147 6.69312 4.26624 7.09837C3.89101 7.50361 3.91535 8.13631 4.32059 8.51154L7.4648 11.4228L11.7433 6.66896Z" fill="#A776E4"/>
</svg>
