<svg width="26" height="25" viewBox="0 0 26 25" fill="none" xmlns="http://www.w3.org/2000/svg">
<path d="M25.6443 5.12565C25.6443 5.83408 25.0705 6.40787 24.3621 6.40787H1.28222C0.573792 6.40787 0 5.83408 0 5.12565C0 4.41723 0.573792 3.84344 1.28222 3.84344H5.84369C6.39505 3.84344 6.88551 3.49083 7.0586 2.96832L7.46251 1.75343C7.81191 0.705219 8.78959 0 9.8955 0H15.7392C16.8451 0 17.8228 0.705219 18.1722 1.75343L18.5761 2.97153C18.7492 3.49403 19.2396 3.84665 19.791 3.84665H24.3525C25.0609 3.84665 25.6347 4.42044 25.6347 5.12886L25.6443 5.12565ZM22.1823 9.01077L21.4002 20.8072C21.2335 23.1664 19.2589 25 16.9124 25H8.73189C6.38543 25 4.41082 23.1664 4.24413 20.82L3.46196 9.01077C3.44914 8.84408 3.51325 8.66457 3.62865 8.53635C3.75688 8.40813 3.92356 8.33119 4.10307 8.33119H21.5412C21.7207 8.33119 21.8874 8.40813 22.0156 8.53635C22.131 8.66457 22.1951 8.84408 22.1823 9.01077ZM11.5399 12.8189C11.5399 12.1137 10.9629 11.5367 10.2577 11.5367C9.55251 11.5367 8.97551 12.1137 8.97551 12.8189V19.23C8.97551 19.9352 9.55251 20.5122 10.2577 20.5122C10.9629 20.5122 11.5399 19.9352 11.5399 19.23V12.8189ZM16.6688 12.8189C16.6688 12.1137 16.0918 11.5367 15.3866 11.5367C14.6814 11.5367 14.1044 12.1137 14.1044 12.8189V19.23C14.1044 19.9352 14.6814 20.5122 15.3866 20.5122C16.0918 20.5122 16.6688 19.9352 16.6688 19.23V12.8189Z" fill="#D9D9D9"/>
</svg>
