<svg width="10" height="8" viewBox="0 0 10 8" fill="none" xmlns="http://www.w3.org/2000/svg">
<path d="M6.62575 6.98135L9.64971 2.87949C10.0525 2.33499 10.1109 1.65158 9.80945 1.05706C9.48025 0.4056 8.79545 -5.26527e-08 8.02314 -8.64115e-08L1.97661 -3.50713e-07C1.20291 -3.84533e-07 0.518114 0.40421 0.190299 1.05706C0.0625066 1.30848 -6.89141e-08 1.57657 -8.05111e-08 1.84188C-9.6419e-08 2.20581 0.118072 2.56557 0.350043 2.88088L3.37399 6.98274C3.74209 7.48141 4.3505 7.78006 5.00057 7.78006C5.65065 7.78006 6.26044 7.48141 6.62714 6.98275L6.62575 6.98135Z" fill="white"/>
</svg>
