<svg width="27" height="25" viewBox="0 0 27 25" fill="none" xmlns="http://www.w3.org/2000/svg">
<path d="M26.2066 11.1979C24.8802 18 17.908 22.7743 14.974 24.5139C14.4254 24.8368 13.8073 25 13.1927 25C12.5781 25 11.9636 24.8368 11.4115 24.5139C8.47746 22.7743 1.50524 18 0.178847 11.1979C-0.376709 8.35417 0.380235 5.34028 2.19621 3.13194C3.8594 1.11111 6.17189 0 8.71009 0C10.3073 0 11.8455 0.402778 13.1927 1.17361C14.54 0.40625 16.0781 0 17.6754 0C20.2101 0 22.5226 1.11111 24.1893 3.13194C26.0087 5.34028 26.7622 8.35417 26.2066 11.1979Z" fill="#D1D1D1"/>
</svg>
