<svg width="28" height="25" viewBox="0 0 28 25" fill="none" xmlns="http://www.w3.org/2000/svg">
<path d="M24.9425 3.13238C23.2791 1.11127 20.9663 0 18.4277 0C16.8303 0 15.2919 0.402834 13.9445 1.17377C12.597 0.406306 11.0586 0 9.46119 0C6.92612 0 4.6133 1.11127 2.94641 3.13238C1.12671 5.34102 0.373133 8.35533 0.928765 11.196C2.25534 17.999 9.22853 22.774 12.163 24.5138C12.7117 24.8403 13.3263 25 13.9445 25C14.5626 25 15.1773 24.8368 15.726 24.5138C18.6604 22.774 25.6336 17.999 26.9602 11.196C27.5158 8.35186 26.7587 5.33755 24.9425 3.13238ZM25.5989 10.9321C24.3799 17.1829 17.7957 21.6766 15.021 23.3192C14.3577 23.7116 13.5382 23.7116 12.8749 23.3192C10.1002 21.6766 3.51593 17.1795 2.29701 10.9321C1.82125 8.49076 2.46717 5.90707 4.02295 4.01792C5.41897 2.32324 7.34979 1.39255 9.46467 1.39255C10.944 1.39255 12.3644 1.79886 13.5729 2.57327C13.8021 2.71913 14.0938 2.71913 14.3195 2.57327C15.528 1.80233 16.9483 1.39255 18.4277 1.39255C20.5426 1.39255 22.4734 2.32671 23.8695 4.01792C25.4252 5.90707 26.0711 8.49424 25.5954 10.9321H25.5989Z" fill="#BDBDBD"/>
</svg>
