<svg width="22" height="20" viewBox="0 0 22 20" fill="none" xmlns="http://www.w3.org/2000/svg">
<path d="M20.9653 8.95833C19.9042 14.4 14.3264 18.2194 11.9792 19.6111C11.5403 19.8694 11.0459 20 10.5542 20C10.0625 20 9.57086 19.8694 9.12919 19.6111C6.78197 18.2194 1.20419 14.4 0.143077 8.95833C-0.301367 6.68333 0.304188 4.27222 1.75697 2.50556C3.08752 0.888889 4.93752 0 6.96807 0C8.24585 0 9.47641 0.322222 10.5542 0.938889C11.632 0.325 12.8625 0 14.1403 0C16.1681 0 18.0181 0.888889 19.3514 2.50556C20.807 4.27222 21.4097 6.68333 20.9653 8.95833Z" fill="#E3BE92"/>
</svg>
