<svg width="14" height="14" viewBox="0 0 14 14" fill="none" xmlns="http://www.w3.org/2000/svg">
<path d="M4.33333 0H1.44444C0.6467 0 0 0.6467 0 1.44444V4.33333C0 5.13108 0.6467 5.77778 1.44444 5.77778H4.33333C5.13108 5.77778 5.77778 5.13108 5.77778 4.33333V1.44444C5.77778 0.6467 5.13108 0 4.33333 0Z" fill="#D1D1D1"/>
<path d="M12.1112 0H9.22228C8.42453 0 7.77783 0.6467 7.77783 1.44444V4.33333C7.77783 5.13108 8.42453 5.77778 9.22228 5.77778H12.1112C12.9089 5.77778 13.5556 5.13108 13.5556 4.33333V1.44444C13.5556 0.6467 12.9089 0 12.1112 0Z" fill="#D1D1D1"/>
<path d="M4.33333 7.77777H1.44444C0.6467 7.77777 0 8.42447 0 9.22222V12.1111C0 12.9088 0.6467 13.5555 1.44444 13.5555H4.33333C5.13108 13.5555 5.77778 12.9088 5.77778 12.1111V9.22222C5.77778 8.42447 5.13108 7.77777 4.33333 7.77777Z" fill="#D1D1D1"/>
<path d="M12.1112 7.77777H9.22228C8.42453 7.77777 7.77783 8.42447 7.77783 9.22222V12.1111C7.77783 12.9088 8.42453 13.5555 9.22228 13.5555H12.1112C12.9089 13.5555 13.5556 12.9088 13.5556 12.1111V9.22222C13.5556 8.42447 12.9089 7.77777 12.1112 7.77777Z" fill="#D1D1D1"/>
</svg>
