<svg width="24" height="24" viewBox="0 0 24 24" fill="none" xmlns="http://www.w3.org/2000/svg">
<path opacity="0.5" d="M13.3643 1.36489L13.1522 1.17925C12.8383 0.904556 12.4279 0.75 11.9992 0.75C11.5705 0.75 11.16 0.904548 10.8462 1.17923L13.3643 1.36489ZM13.3643 1.36489H13.3659L22.1893 9.08823C22.3673 9.24421 22.5084 9.43374 22.6045 9.64379L23.2865 9.33174L22.6045 9.64379C22.7006 9.85374 22.7499 10.0801 22.75 10.3085C22.75 10.3086 22.75 10.3087 22.75 10.3087V21.5994C22.75 22.0307 22.5743 22.4485 22.2549 22.7597C21.9348 23.0715 21.4966 23.25 21.0357 23.25H17.75C17.2891 23.25 16.8509 23.0715 16.5308 22.7597C16.2114 22.4485 16.0357 22.0307 16.0357 21.5994V15.1978C16.0357 14.7802 15.8653 14.3838 15.5685 14.0947C15.2723 13.8063 14.8748 13.6476 14.4643 13.6476H9.53571C9.12519 13.6476 8.72765 13.8063 8.43153 14.0947L8.95488 14.6319L8.43153 14.0947C8.13475 14.3838 7.96429 14.7802 7.96429 15.1978V21.5994C7.96429 22.0307 7.78858 22.4485 7.46917 22.7597C7.1491 23.0715 6.7109 23.25 6.25 23.25H2.96429C2.50339 23.25 2.06519 23.0715 1.74512 22.7597C1.42571 22.4485 1.25 22.0307 1.25 21.5994V10.3087C1.25 10.3087 1.25 10.3086 1.25 10.3085C1.25008 10.0801 1.29941 9.85373 1.39547 9.64379C1.49155 9.43383 1.63254 9.24437 1.81048 9.08843C1.81051 9.0884 1.81055 9.08837 1.81058 9.08835C1.81062 9.08831 1.81067 9.08827 1.81071 9.08823L10.8462 1.17925L13.3643 1.36489Z" stroke="#A776E4" stroke-width="1.5"/>
</svg>
