<svg width="26" height="25" viewBox="0 0 26 25" fill="none" xmlns="http://www.w3.org/2000/svg">
<path d="M22.7981 6.58843L16.2167 1.29695C14.0645 -0.433963 10.9416 -0.430672 8.78951 1.29695L2.20807 6.58843C0.802936 7.71715 0 9.39541 0 11.1954V19.0833C0 22.3444 2.65561 25 5.92329 25H9.21401V19.0833C9.21401 17.2701 10.6915 15.7992 12.5047 15.7992C14.3179 15.7992 15.7954 17.2734 15.7954 19.0833V25H19.0862C22.3539 25 25.0095 22.3477 25.0095 19.0833V11.1954C25.0095 9.39541 24.2032 7.71715 22.8014 6.58843H22.7981ZM23.6899 19.0833C23.6899 21.6204 21.6233 23.6837 19.0829 23.6837H17.1084V19.0833C17.1084 16.5461 15.0419 14.4829 12.5014 14.4829C9.961 14.4829 7.89443 16.5461 7.89443 19.0833V23.6837H5.92C3.37957 23.6837 1.313 21.6204 1.313 19.0833V11.1954C1.313 9.79688 1.93823 8.49047 3.03075 7.61184L9.61219 2.32366C11.2872 0.977755 13.7157 0.977755 15.3907 2.32366L21.9721 7.61513C23.0646 8.49376 23.6899 9.79688 23.6899 11.1987V19.0866V19.0833Z" fill="#BDBDBD"/>
</svg>
