<svg width="20" height="20" viewBox="0 0 20 20" fill="none" xmlns="http://www.w3.org/2000/svg">
<path d="M10 0C8.02219 0 6.08879 0.58649 4.4443 1.6853C2.79981 2.78412 1.51809 4.3459 0.761209 6.17316C0.00433283 8.00043 -0.1937 10.0111 0.192152 11.9509C0.578004 13.8907 1.53041 15.6725 2.92894 17.0711C4.32746 18.4696 6.10929 19.422 8.0491 19.8078C9.98891 20.1937 11.9996 19.9957 13.8268 19.2388C15.6541 18.4819 17.2159 17.2002 18.3147 15.5557C19.4135 13.9112 20 11.9778 20 10C20 7.34783 18.9464 4.80429 17.0711 2.92893C15.1957 1.05357 12.6522 0 10 0ZM10 18.5714C8.30473 18.5714 6.64754 18.0687 5.23797 17.1269C3.82841 16.185 2.72979 14.8464 2.08104 13.2801C1.43229 11.7139 1.26254 9.99049 1.59327 8.3278C1.924 6.6651 2.74035 5.13782 3.93909 3.93908C5.13782 2.74035 6.66511 1.924 8.3278 1.59327C9.99049 1.26254 11.7139 1.43228 13.2801 2.08103C14.8464 2.72978 16.185 3.8284 17.1269 5.23797C18.0687 6.64753 18.5714 8.30473 18.5714 10C18.5714 12.2733 17.6684 14.4535 16.0609 16.0609C14.4535 17.6684 12.2733 18.5714 10 18.5714Z" fill="#A776E4"/>
<path d="M10 16.4285C10.5917 16.4285 11.0714 15.9488 11.0714 15.3571C11.0714 14.7653 10.5917 14.2856 10 14.2856C9.40827 14.2856 8.92857 14.7653 8.92857 15.3571C8.92857 15.9488 9.40827 16.4285 10 16.4285Z" fill="#A776E4"/>
<path d="M10.7143 4.28565H9.64286C9.22049 4.28471 8.80209 4.36721 8.41169 4.52841C8.02129 4.68961 7.66658 4.92633 7.36792 5.225C7.06925 5.52366 6.83253 5.87837 6.67133 6.26877C6.51013 6.65917 6.42763 7.07757 6.42857 7.49994V7.85708H7.85715V7.49994C7.85715 7.02634 8.04528 6.57213 8.38017 6.23725C8.71505 5.90236 9.16926 5.71422 9.64286 5.71422H10.7143C11.1879 5.71422 11.6421 5.90236 11.977 6.23725C12.3119 6.57213 12.5 7.02634 12.5 7.49994C12.5 7.97354 12.3119 8.42774 11.977 8.76263C11.6421 9.09751 11.1879 9.28565 10.7143 9.28565H9.28572V12.4999H10.7143V10.7142C11.5668 10.7142 12.3843 10.3756 12.9871 9.77278C13.5899 9.16998 13.9286 8.35242 13.9286 7.49994C13.9286 6.64746 13.5899 5.82989 12.9871 5.2271C12.3843 4.6243 11.5668 4.28565 10.7143 4.28565Z" fill="#A776E4"/>
</svg>
