<svg width="24" height="24" viewBox="0 0 24 24" fill="none" xmlns="http://www.w3.org/2000/svg">
<path d="M13.6461 0.614887C13.1938 0.219002 12.6072 0 11.9992 0C11.3911 0 10.8045 0.219002 10.3522 0.614887L1.3165 8.52409C1.05959 8.74915 0.854141 9.02432 0.713476 9.33174C0.572812 9.63916 0.500079 9.97196 0.5 10.3085V21.5994C0.5 22.2361 0.759629 22.8467 1.22177 23.2969C1.68392 23.7471 2.31072 24 2.96429 24H6.25C6.90357 24 7.53037 23.7471 7.99251 23.2969C8.45466 22.8467 8.71429 22.2361 8.71429 21.5994V15.1978C8.71429 14.9855 8.80083 14.782 8.95488 14.6319C9.10892 14.4819 9.31786 14.3976 9.53571 14.3976H14.4643C14.6821 14.3976 14.8911 14.4819 15.0451 14.6319C15.1992 14.782 15.2857 14.9855 15.2857 15.1978V21.5994C15.2857 22.2361 15.5453 22.8467 16.0075 23.2969C16.4696 23.7471 17.0964 24 17.75 24H21.0357C21.6893 24 22.3161 23.7471 22.7782 23.2969C23.2404 22.8467 23.5 22.2361 23.5 21.5994V10.3085C23.4999 9.97196 23.4272 9.63916 23.2865 9.33174C23.1459 9.02432 22.9404 8.74915 22.6835 8.52409L13.6478 0.614887H13.6461Z" fill="#A776E4"/>
</svg>
