<svg width="20" height="20" viewBox="0 0 20 20" fill="none" xmlns="http://www.w3.org/2000/svg">
<path d="M10 0C4.48684 0 0 4.48684 0 10C0 15.5132 4.48684 20 10 20C15.5132 20 20 15.5132 20 10C20 4.48684 15.5132 0 10 0ZM10 18.9474C5.06579 18.9474 1.05263 14.9342 1.05263 10C1.05263 5.06579 5.06579 1.05263 10 1.05263C14.9342 1.05263 18.9474 5.06579 18.9474 10C18.9474 14.9342 14.9342 18.9474 10 18.9474ZM13.6263 7.23158C13.8868 8.71842 13.2763 10.0026 11.8553 10.9474C10.8868 11.5921 10.5816 12.0237 10.4974 12.2737C10.4237 12.4947 10.2184 12.6316 10 12.6316C9.94473 12.6316 9.88684 12.6237 9.83158 12.6026C9.55526 12.5105 9.40789 12.2105 9.5 11.9368C9.70526 11.3289 10.2684 10.7368 11.2711 10.0684C12.3289 9.36579 12.7737 8.47106 12.5868 7.41316C12.4026 6.3579 11.5342 5.49211 10.4789 5.30526C9.68684 5.16579 8.91315 5.36842 8.30526 5.87895C7.70789 6.38158 7.36579 7.11579 7.36579 7.89474C7.36579 8.18684 7.13158 8.42105 6.83947 8.42105C6.54737 8.42105 6.31316 8.18684 6.31316 7.89474C6.31316 6.80263 6.79211 5.77368 7.62895 5.07105C8.46579 4.36842 9.56842 4.07632 10.6605 4.26842C12.1447 4.52895 13.3632 5.74737 13.6237 7.23158H13.6263ZM10.7895 15.2632C10.7895 15.7 10.4368 16.0526 10 16.0526C9.56315 16.0526 9.21052 15.7 9.21052 15.2632C9.21052 14.8263 9.56315 14.4737 10 14.4737C10.4368 14.4737 10.7895 14.8263 10.7895 15.2632Z" fill="white"/>
</svg>
