<svg width="14" height="20" viewBox="0 0 14 20" fill="none" xmlns="http://www.w3.org/2000/svg">
<path d="M8.94737 0H4.73684C2.12368 0 0 2.12368 0 4.73684V15.2632C0 17.8763 2.12368 20 4.73684 20H8.94737C11.5605 20 13.6842 17.8763 13.6842 15.2632V4.73684C13.6842 2.12368 11.5605 0 8.94737 0ZM12.6316 15.2632C12.6316 17.2947 10.9789 18.9474 8.94737 18.9474H4.73684C2.70526 18.9474 1.05263 17.2947 1.05263 15.2632V4.73684C1.05263 2.70526 2.70526 1.05263 4.73684 1.05263H8.94737C10.9789 1.05263 12.6316 2.70526 12.6316 4.73684V15.2632Z" fill="white"/>
<path d="M7.89476 6.65261C8.18687 6.65261 8.42108 6.4184 8.42108 6.12629C8.42108 5.83419 8.18687 5.59998 7.89476 5.59998H5.7895C5.49739 5.59998 5.26318 5.83419 5.26318 6.12629C5.26318 6.4184 5.49739 6.65261 5.7895 6.65261H7.89476Z" fill="white"/>
<path d="M7.89476 9.05263C8.18687 9.05263 8.42108 8.81842 8.42108 8.52632C8.42108 8.23421 8.18687 8 7.89476 8H5.7895C5.49739 8 5.26318 8.23421 5.26318 8.52632C5.26318 8.81842 5.49739 9.05263 5.7895 9.05263H7.89476Z" fill="white"/>
<path d="M7.89476 11.4527C8.18687 11.4527 8.42108 11.2184 8.42108 10.9263C8.42108 10.6342 8.18687 10.4 7.89476 10.4H5.7895C5.49739 10.4 5.26318 10.6342 5.26318 10.9263C5.26318 11.2184 5.49739 11.4527 5.7895 11.4527H7.89476Z" fill="white"/>
<path d="M7.89476 13.8526C8.18687 13.8526 8.42108 13.6184 8.42108 13.3263C8.42108 13.0342 8.18687 12.8 7.89476 12.8H5.7895C5.49739 12.8 5.26318 13.0342 5.26318 13.3263C5.26318 13.6184 5.49739 13.8526 5.7895 13.8526H7.89476Z" fill="white"/>
</svg>
