<svg width="16" height="20" viewBox="0 0 16 20" fill="none" xmlns="http://www.w3.org/2000/svg">
<path d="M0.454506 0C0.207034 0 0 0.249688 0 0.454507V19.5455C0 19.7835 0.216555 20 0.454506 20H15C15.2379 20 15.4545 19.7834 15.4545 19.5455V2.2727C15.4545 2.03474 15.2379 1.81819 15 1.81819H13.6363V0.454466C13.6363 0.216665 13.4199 0.000121687 13.1818 0.000121687L0.454506 0ZM0.909011 0.909013H12.7272V1.81803H0.909011V0.909013ZM0.909011 2.72724H2.27273V19.0909H0.909011V2.72724ZM3.18174 2.72724H14.5454V19.0909H3.18174V2.72724ZM5.22712 5.90899C4.9657 5.90899 4.77261 6.14933 4.77261 6.3635C4.77261 6.57783 4.98885 6.81801 5.22712 6.81801H12.4999C12.74 6.82134 12.9615 6.60367 12.9615 6.3635C12.9615 6.12332 12.74 5.9055 12.4999 5.90899H5.22712ZM6.36349 8.18173C6.10206 8.18173 5.90898 8.42207 5.90898 8.63624C5.90898 8.85057 6.12522 9.09074 6.36349 9.09074H11.3635C11.6037 9.09407 11.8251 8.87641 11.8251 8.63624C11.8251 8.39606 11.6037 8.17824 11.3635 8.18173H6.36349Z" fill="#A776E4"/>
</svg>
