<svg width="21" height="20" viewBox="0 0 21 20" fill="none" xmlns="http://www.w3.org/2000/svg">
<path d="M19.4249 6.66754C18.1907 3.14626 15.1299 0.627673 11.435 0.0986907C10.5086 -0.0328969 9.49798 -0.0328969 8.56897 0.0986907C4.87399 0.627673 1.81326 3.14626 0.578973 6.66228C0.194737 7.72551 0 8.84663 0 9.99934C0 11.152 0.194734 12.2732 0.576338 13.3311C1.81063 16.8524 4.87136 19.371 8.56897 19.9C9.03479 19.9658 9.51905 20 10.0007 20C10.4823 20 10.9665 19.9658 11.4323 19.9C15.1273 19.371 18.188 16.8524 19.4223 13.3364C19.8065 12.2732 20.0013 11.152 20.0013 9.99934C20.0013 8.84663 19.8066 7.72551 19.4249 6.66754ZM18.1301 6.31752H14.322C13.9535 4.57793 13.3219 2.92782 12.435 1.38825C14.972 2.09882 17.0432 3.89631 18.1301 6.31752ZM13.6851 9.99934C13.6851 10.881 13.5983 11.7626 13.4509 12.6337H6.55044C6.40569 11.7652 6.31621 10.8836 6.31621 9.99934C6.31621 9.11507 6.40306 8.2387 6.55044 7.37022H13.4535C13.5983 8.23607 13.6877 9.1177 13.6877 9.99934H13.6851ZM11.0481 1.12507C12.0903 2.72255 12.8193 4.46477 13.2403 6.31752H6.76096C7.17941 4.47003 7.90842 2.72518 8.95323 1.12507C9.29799 1.0856 9.64538 1.05138 10.0033 1.05138C10.3612 1.05138 10.7086 1.0856 11.0507 1.12507H11.0481ZM7.56629 1.38825C6.68202 2.93045 6.04776 4.58057 5.67931 6.31752H1.87117C2.95545 3.89894 5.02928 2.09882 7.56629 1.38825ZM1.4606 7.37022H5.4872C5.35035 8.2387 5.2635 9.1177 5.2635 9.99934C5.2635 10.881 5.35035 11.7652 5.4872 12.6337H1.4606C1.1948 11.7889 1.0527 10.9073 1.0527 9.99934C1.0527 9.09139 1.1948 8.21502 1.4606 7.37022ZM1.87381 13.6864H5.68194C6.05039 15.4234 6.68202 17.0735 7.56629 18.6131C5.03191 17.9025 2.95809 16.105 1.87381 13.6864ZM8.95323 18.8762C7.91105 17.2788 7.18204 15.5366 6.76359 13.6864H13.243C12.8245 15.5339 12.0955 17.2788 11.0534 18.8762C10.3612 18.9552 9.64538 18.9552 8.95586 18.8762H8.95323ZM12.4377 18.6131C13.3219 17.0735 13.9562 15.4234 14.322 13.6864H18.1301C17.0459 16.1024 14.972 17.9025 12.4377 18.6131ZM18.5433 12.6337H14.5168C14.6536 11.7652 14.7404 10.8836 14.7404 9.99934C14.7404 9.11507 14.6536 8.23607 14.5168 7.37022H18.5433C18.8091 8.21502 18.9513 9.09665 18.9513 9.99934C18.9513 10.902 18.8091 11.7863 18.5433 12.6337Z" fill="white"/>
</svg>
