<svg width="14" height="10" viewBox="0 0 14 10" fill="none" xmlns="http://www.w3.org/2000/svg">
<path d="M0 0.634921C0 0.28254 0.2225 0 0.5 0H13.5C13.7775 0 14 0.28254 14 0.634921C14 0.987302 13.7775 1.26984 13.5 1.26984H0.5C0.2225 1.26984 0 0.987302 0 0.634921Z" fill="#D1D1D1"/>
<path d="M0 5.07937C0 4.72698 0.2225 4.44444 0.5 4.44444H13.5C13.7775 4.44444 14 4.72698 14 5.07937C14 5.43175 13.7775 5.71429 13.5 5.71429H0.5C0.2225 5.71429 0 5.43175 0 5.07937Z" fill="#D1D1D1"/>
<path d="M0 9.36508C0 9.0127 0.2225 8.73016 0.5 8.73016H13.5C13.7775 8.73016 14 9.0127 14 9.36508C14 9.71746 13.7775 10 13.5 10H0.5C0.2225 10 0 9.71746 0 9.36508Z" fill="#D1D1D1"/>
</svg>
