<svg width="20" height="20" viewBox="0 0 20 20" fill="none" xmlns="http://www.w3.org/2000/svg">
<path d="M12.6667 1C12.6667 0.447716 12.219 0 11.6667 0H1C0.447716 0 0 0.447715 0 1V11.8814C0 12.4336 0.447715 12.8814 1 12.8814H7.33333V19C7.33333 19.5523 7.78105 20 8.33333 20H19C19.5523 20 20 19.5523 20 19V8.11864C20 7.56636 19.5523 7.11864 19 7.11864H12.6667V1ZM5.51271 3.05085L3.42054 9.12288H4.83333L5.17358 8.13559H7.33333V11.5254H1.33333V1.35593H11.3333V7.11864H8.5555L7.15417 3.05085H5.51271ZM7.02592 6.77966H5.64075L6.33333 4.76958L7.02592 6.77966ZM18.6667 8.47458V18.6441H8.66667V8.47458H18.6667Z" fill="#A776E4"/>
<path d="M12.5597 14.599C12.6872 14.8073 12.8276 15.0071 12.98 15.1973C12.4967 15.4624 11.9478 15.5952 11.3333 15.5956V16.9515C12.3392 16.9515 13.2379 16.68 14 16.1539C14.7621 16.68 15.6608 16.9515 16.6667 16.9515V15.5956C16.0535 15.5956 15.5046 15.4627 15.02 15.197C15.1724 15.0069 15.3128 14.8072 15.4403 14.599C15.8246 13.9637 16.1072 13.2703 16.2776 12.5448H17V11.1888H14.6667V10.1719H13.3333V11.1888H11V12.5448H11.7224C11.8928 13.2703 12.1754 13.9637 12.5597 14.599ZM14.8971 12.5448C14.7591 13.014 14.5616 13.463 14.3096 13.8803C14.2154 14.0342 14.112 14.1821 14 14.3231C13.8961 14.1925 13.7997 14.0559 13.7113 13.9141C13.4489 13.4875 13.2443 13.0269 13.1028 12.5448H14.8971Z" fill="#A776E4"/>
</svg>
