<svg width="18" height="22" viewBox="0 0 18 22" fill="none" xmlns="http://www.w3.org/2000/svg">
<path d="M16.8589 5.62157L11.7469 0.509476C11.4198 0.182371 10.9826 0 10.5195 0H5.21053C2.33605 0 0 2.33605 0 5.21053V16.7895C0 19.6639 2.33605 22 5.21053 22H12.1579C15.0324 22 17.3684 19.6639 17.3684 16.7895V6.84896C17.3684 6.3858 17.1889 5.94868 16.8589 5.62157ZM11.5789 1.97711L15.3913 5.78947H13.8947C12.6182 5.78947 11.5789 4.75026 11.5789 3.47368V1.97711ZM12.1579 20.8421H5.21053C2.97579 20.8421 1.15789 19.0242 1.15789 16.7895V5.21053C1.15789 2.97579 2.97579 1.15789 5.21053 1.15789H10.4211V3.47368C10.4211 5.39 11.9784 6.94737 13.8947 6.94737H16.2105V16.7895C16.2105 19.0242 14.3926 20.8421 12.1579 20.8421Z" fill="#BDBDBD"/>
</svg>
