<svg width="26" height="20" viewBox="0 0 26 20" fill="none" xmlns="http://www.w3.org/2000/svg">
<path d="M0 0.666667C0 0.296667 0.296667 0 0.666667 0H18C18.37 0 18.6667 0.296667 18.6667 0.666667C18.6667 1.03667 18.37 1.33333 18 1.33333H0.666667C0.296667 1.33333 0 1.03667 0 0.666667ZM24.6667 9.33333H0.666667C0.296667 9.33333 0 9.63 0 10C0 10.37 0.296667 10.6667 0.666667 10.6667H24.6667C25.0367 10.6667 25.3333 10.37 25.3333 10C25.3333 9.63 25.0367 9.33333 24.6667 9.33333ZM12.6667 18.6667H0.666667C0.296667 18.6667 0 18.9633 0 19.3333C0 19.7033 0.296667 20 0.666667 20H12.6667C13.0367 20 13.3333 19.7033 13.3333 19.3333C13.3333 18.9633 13.0367 18.6667 12.6667 18.6667Z" fill="#D1D1D1"/>
</svg>
