<svg width="25" height="25" viewBox="0 0 25 25" fill="none" xmlns="http://www.w3.org/2000/svg">
<path d="M12.5 0C5.60526 0 0 5.60526 0 12.5C0 19.3947 5.60526 25 12.5 25C19.3947 25 25 19.3947 25 12.5C25 5.60526 19.3947 0 12.5 0ZM6.57895 14.1447C5.67105 14.1447 4.93421 13.4079 4.93421 12.5C4.93421 11.5921 5.67105 10.8553 6.57895 10.8553C7.48684 10.8553 8.22368 11.5921 8.22368 12.5C8.22368 13.4079 7.48684 14.1447 6.57895 14.1447ZM12.5 14.1447C11.5921 14.1447 10.8553 13.4079 10.8553 12.5C10.8553 11.5921 11.5921 10.8553 12.5 10.8553C13.4079 10.8553 14.1447 11.5921 14.1447 12.5C14.1447 13.4079 13.4079 14.1447 12.5 14.1447ZM18.4211 14.1447C17.5132 14.1447 16.7763 13.4079 16.7763 12.5C16.7763 11.5921 17.5132 10.8553 18.4211 10.8553C19.3289 10.8553 20.0658 11.5921 20.0658 12.5C20.0658 13.4079 19.3289 14.1447 18.4211 14.1447Z" fill="#D1D1D1"/>
</svg>
