<svg width="26" height="25" viewBox="0 0 26 25" fill="none" xmlns="http://www.w3.org/2000/svg">
<path d="M19.876 12.5C19.876 13.227 19.2872 13.8158 18.5602 13.8158C17.8332 13.8158 17.2444 13.227 17.2444 12.5C17.2444 11.773 17.8332 11.1842 18.5602 11.1842C19.2872 11.1842 19.876 11.773 19.876 12.5ZM12.6392 11.1842C11.9122 11.1842 11.3234 11.773 11.3234 12.5C11.3234 13.227 11.9122 13.8158 12.6392 13.8158C13.3661 13.8158 13.9549 13.227 13.9549 12.5C13.9549 11.773 13.3661 11.1842 12.6392 11.1842ZM6.71811 11.1842C5.99113 11.1842 5.40232 11.773 5.40232 12.5C5.40232 13.227 5.99113 13.8158 6.71811 13.8158C7.44508 13.8158 8.0339 13.227 8.0339 12.5C8.0339 11.773 7.44508 11.1842 6.71811 11.1842ZM25.1392 12.5C25.1392 19.3914 19.5306 25 12.6392 25C5.74771 25 0.13916 19.3914 0.13916 12.5C0.13916 5.60855 5.74771 0 12.6392 0C19.5306 0 25.1392 5.60855 25.1392 12.5ZM23.8234 12.5C23.8234 6.33224 18.8069 1.31579 12.6392 1.31579C6.4714 1.31579 1.45495 6.33224 1.45495 12.5C1.45495 18.6678 6.4714 23.6842 12.6392 23.6842C18.8069 23.6842 23.8234 18.6678 23.8234 12.5Z" fill="#BDBDBD"/>
</svg>
