<svg width="20" height="20" viewBox="0 0 20 20" fill="none" xmlns="http://www.w3.org/2000/svg">
<path d="M14.5816 7.52368C14.7868 7.72895 14.7868 8.06316 14.5816 8.26842L9.31841 13.5316C9.21578 13.6342 9.08158 13.6868 8.94737 13.6868C8.81316 13.6868 8.67894 13.6342 8.57631 13.5316L5.41841 10.3737C5.21315 10.1684 5.21315 9.83421 5.41841 9.62895C5.62368 9.42368 5.95789 9.42368 6.16315 9.62895L8.95 12.4158L13.8421 7.52368C14.0474 7.31842 14.3816 7.31842 14.5868 7.52368H14.5816ZM20 10C20 15.5132 15.5132 20 10 20C4.48684 20 0 15.5132 0 10C0 4.48684 4.48684 0 10 0C15.5132 0 20 4.48684 20 10ZM18.9474 10C18.9474 5.06579 14.9342 1.05263 10 1.05263C5.06579 1.05263 1.05263 5.06579 1.05263 10C1.05263 14.9342 5.06579 18.9474 10 18.9474C14.9342 18.9474 18.9474 14.9342 18.9474 10Z" fill="white"/>
</svg>
