<svg width="22" height="20" viewBox="0 0 22 20" fill="none" xmlns="http://www.w3.org/2000/svg">
<path d="M21.0096 7.50278C20.7679 6.75 20.1263 6.21111 19.3346 6.09723L14.5457 5.41111L12.4068 1.1389C12.0541 0.436121 11.3457 0 10.5541 0C9.76239 0 9.05128 0.436121 8.70128 1.1389L6.56239 5.41111L1.7735 6.09723C0.981837 6.21111 0.34017 6.75 0.0985037 7.50278C-0.140385 8.24723 0.0623936 9.04723 0.62906 9.59167L4.09017 12.9139L3.2735 17.6028C3.14017 18.3694 3.4485 19.1306 4.07906 19.5945C4.72072 20.0667 5.56239 20.1306 6.27073 19.7639L10.5541 17.5445L14.8374 19.7639C15.1429 19.9222 15.4735 20 15.7985 20C16.2318 20 16.6624 19.8639 17.0291 19.5945C17.6596 19.1306 17.968 18.3694 17.8346 17.6028L17.018 12.9139L20.4791 9.59167C21.0457 9.04723 21.2485 8.24723 21.0096 7.50278ZM19.7096 8.79167L16.0374 12.3195C15.9041 12.4472 15.843 12.6333 15.8735 12.8167L16.7402 17.7972C16.8013 18.15 16.6624 18.4861 16.3707 18.7028C16.0652 18.925 15.6846 18.9556 15.3457 18.7806L10.8068 16.4278C10.7263 16.3861 10.6402 16.3667 10.5513 16.3667C10.4624 16.3667 10.3763 16.3861 10.2957 16.4278L5.75684 18.7806C5.42072 18.9556 5.03739 18.925 4.73183 18.7028C4.44017 18.4889 4.30128 18.15 4.36239 17.7972L5.22906 12.8167C5.25961 12.6333 5.1985 12.4472 5.06517 12.3195L1.39295 8.79167C1.13184 8.5389 1.04017 8.18611 1.15128 7.84444C1.26517 7.49444 1.55406 7.25277 1.92628 7.2L7.00128 6.47222C7.18184 6.44722 7.33739 6.33334 7.42072 6.17223L9.69017 1.6389C10.0179 0.98334 11.0818 0.98334 11.4096 1.6389L13.6791 6.17223C13.7596 6.33612 13.9179 6.44722 14.0985 6.47222L19.1735 7.2C19.5457 7.25277 19.8346 7.49444 19.9485 7.84444C20.0596 8.18611 19.9679 8.54167 19.7068 8.79167H19.7096Z" fill="white"/>
</svg>
