<svg width="17" height="20" viewBox="0 0 17 20" fill="none" xmlns="http://www.w3.org/2000/svg">
<path d="M15.3 0H1.7C1.24918 0 0.816777 0.175596 0.497838 0.488076C0.179089 0.800724 0 1.22469 0 1.66667V18.3333C0 18.7753 0.179108 19.1992 0.497838 19.5119C0.816738 19.8244 1.24918 20 1.7 20H15.3C15.7508 20 16.1832 19.8244 16.5022 19.5119C16.8209 19.1993 17 18.7753 17 18.3333V1.66667C17 1.22469 16.8209 0.800762 16.5022 0.488076C16.1833 0.175577 15.7508 0 15.3 0ZM12.24 1.13661L14.4807 3.33333H12.58C12.3922 3.33333 12.24 3.18408 12.24 3V1.13661ZM14.96 18.3332C14.9592 18.5982 14.8515 18.8521 14.6604 19.0394C14.4693 19.2268 14.2103 19.3324 13.94 19.3332H1.7C1.42967 19.3324 1.17073 19.2268 0.979632 19.0394C0.788532 18.8521 0.680765 18.5982 0.680008 18.3332V1.66651C0.680767 1.40149 0.788536 1.14762 0.979632 0.960267C1.17073 0.772914 1.42967 0.667261 1.7 0.666518H11.56V2.99985C11.5608 3.26488 11.6685 3.51875 11.8596 3.7061C12.0507 3.89345 12.3097 3.9991 12.58 3.99985H14.96V18.3332ZM16.32 18.3332C16.3192 18.5982 16.2115 18.8521 16.0204 19.0394C15.8293 19.2268 15.5703 19.3324 15.3 19.3332H15.2898C15.5158 19.0469 15.6389 18.6952 15.64 18.3332V3.66651C15.6394 3.57812 15.604 3.49344 15.5413 3.4299L12.7193 0.666514H15.3C15.5703 0.667258 15.8293 0.772914 16.0204 0.960263C16.2115 1.14762 16.3192 1.40148 16.32 1.66651L16.32 18.3332Z" fill="#A776E4"/>
<path d="M2.04002 7.3335H13.6V8.00019H2.04002V7.3335Z" fill="#A776E4"/>
<path d="M2.04002 5.3335H13.6V6.00016H2.04002V5.3335Z" fill="#A776E4"/>
<path d="M2.04002 11.3335H13.6V12.0002H2.04002V11.3335Z" fill="#A776E4"/>
<path d="M2.04002 9.3335H13.6V10.0002H2.04002V9.3335Z" fill="#A776E4"/>
<path d="M2.04002 15.3335H13.6V16.0002H2.04002V15.3335Z" fill="#A776E4"/>
<path d="M2.04002 13.3335H13.6V14.0001H2.04002V13.3335Z" fill="#A776E4"/>
</svg>
