<svg width="24" height="20" viewBox="0 0 24 20" fill="none" xmlns="http://www.w3.org/2000/svg">
<path d="M7.5 0C5.64687 0 4.11248 1.35625 3.81248 3.125H0.625C0.278125 3.125 0 3.40313 0 3.75C0 4.09688 0.278125 4.375 0.625 4.375H3.81248C4.11248 6.14375 5.64687 7.5 7.5 7.5C9.56875 7.5 11.25 5.81875 11.25 3.75C11.25 1.68125 9.56875 0 7.5 0ZM7.5 6.25C6.12187 6.25 5 5.12813 5 3.75C5 2.37188 6.12187 1.25 7.5 1.25C8.87813 1.25 10 2.37188 10 3.75C10 5.12813 8.87813 6.25 7.5 6.25ZM15 3.75C15 3.40313 15.2781 3.125 15.625 3.125H23.125C23.4719 3.125 23.75 3.40313 23.75 3.75C23.75 4.09688 23.4719 4.375 23.125 4.375H15.625C15.2781 4.375 15 4.09688 15 3.75ZM23.125 15.625H19.9375C19.6375 13.8562 18.1031 12.5 16.25 12.5C14.1812 12.5 12.5 14.1812 12.5 16.25C12.5 18.3188 14.1812 20 16.25 20C18.1031 20 19.6375 18.6437 19.9375 16.875H23.125C23.4719 16.875 23.75 16.5969 23.75 16.25C23.75 15.9031 23.4719 15.625 23.125 15.625ZM16.25 18.75C14.8719 18.75 13.75 17.6281 13.75 16.25C13.75 14.8719 14.8719 13.75 16.25 13.75C17.6281 13.75 18.75 14.8719 18.75 16.25C18.75 17.6281 17.6281 18.75 16.25 18.75ZM8.75 16.25C8.75 16.5969 8.47188 16.875 8.125 16.875H0.625C0.278125 16.875 0 16.5969 0 16.25C0 15.9031 0.278125 15.625 0.625 15.625H8.125C8.47188 15.625 8.75 15.9031 8.75 16.25Z" fill="#D1D1D1"/>
</svg>
