<svg width="40" height="40" viewBox="0 0 40 40" fill="none" xmlns="http://www.w3.org/2000/svg">
<path d="M19.6757 4.72077C19.8626 4.56151 20.1374 4.56151 20.3243 4.72077L24.6391 8.3978C24.7192 8.46605 24.8187 8.50729 24.9236 8.51566L30.5747 8.96662C30.8195 8.98615 31.0138 9.18051 31.0333 9.42526L31.4843 15.0763C31.4927 15.1812 31.5339 15.2808 31.6022 15.3609L35.2792 19.6756C35.4384 19.8625 35.4384 20.1374 35.2792 20.3243L31.6022 24.639C31.5339 24.7191 31.4927 24.8187 31.4843 24.9236L31.0333 30.5746C31.0138 30.8194 30.8195 31.0138 30.5747 31.0333L24.9236 31.4842C24.8187 31.4926 24.7192 31.5339 24.6391 31.6021L20.3243 35.2791C20.1374 35.4384 19.8626 35.4384 19.6757 35.2791L15.3609 31.6021C15.2808 31.5339 15.1813 31.4926 15.0764 31.4842L9.42531 31.0333C9.18056 31.0138 8.9862 30.8194 8.96667 30.5746L8.51571 24.9236C8.50734 24.8187 8.4661 24.7191 8.39785 24.639L4.72082 20.3243C4.56156 20.1374 4.56156 19.8625 4.72082 19.6756L8.39785 15.3609C8.4661 15.2808 8.50734 15.1812 8.51571 15.0763L8.96667 9.42526C8.9862 9.18051 9.18056 8.98615 9.42531 8.96662L15.0764 8.51566C15.1813 8.50729 15.2808 8.46605 15.3609 8.3978L19.6757 4.72077Z" fill="#A776E4"/>
<path d="M20 0.656931L25.6754 5.4935C25.8356 5.62999 26.0347 5.71248 26.2445 5.72922L33.6776 6.32238L34.2708 13.7555C34.2875 13.9653 34.37 14.1644 34.5065 14.3246L39.3431 20L34.5065 25.6754C34.37 25.8356 34.2875 26.0347 34.2708 26.2445L33.6776 33.6776L26.2445 34.2708C26.0347 34.2875 25.8356 34.37 25.6754 34.5065L20 39.3431L14.3246 34.5065C14.1644 34.37 13.9653 34.2875 13.7555 34.2708L6.32238 33.6776L5.72922 26.2445C5.71248 26.0347 5.62999 25.8356 5.4935 25.6754L0.656931 20L5.4935 14.3246C5.62999 14.1644 5.71248 13.9653 5.72922 13.7555L6.32238 6.32238L13.7555 5.72922C13.9653 5.71248 14.1644 5.62999 14.3246 5.4935L20 0.656931Z" stroke="#A776E4"/>
</svg>
