<svg width="21" height="20" viewBox="0 0 21 20" fill="none" xmlns="http://www.w3.org/2000/svg">
<path d="M19.2138 0.788955C18.54 0.115161 17.5845 -0.148025 16.6607 0.08096L2.85582 3.53152C0.868651 4.02897 -0.0104346 5.73978 9.33996e-05 7.2137C0.0106214 8.68763 0.913411 10.3879 2.90584 10.8564L7.95402 12.0461L9.1437 17.0942C9.6122 19.0867 11.3125 19.9895 12.7864 20H12.8127C14.2814 20 15.9764 19.1209 16.4712 17.1443L19.9218 3.33936C20.1534 2.41552 19.8902 1.46012 19.2138 0.786321V0.788955ZM18.9006 3.0867L15.45 16.8916C15.0683 18.4129 13.7971 18.9498 12.8127 18.9498H12.7943C11.8099 18.9419 10.5308 18.3892 10.1702 16.8548L8.97525 11.775L13.5339 7.21634C13.7392 7.01104 13.7392 6.67675 13.5339 6.47146C13.3286 6.26616 12.9943 6.26616 12.789 6.47146L8.2304 11.0301L3.1506 9.83518C1.61614 9.47459 1.06343 8.19544 1.05553 7.21107C1.04764 6.2267 1.58455 4.93965 3.11375 4.55538L16.9187 1.10478C17.0529 1.07057 17.1871 1.05479 17.3213 1.05479C17.7477 1.05479 18.161 1.22323 18.4742 1.5338C18.8848 1.9444 19.0453 2.52608 18.9032 3.0867H18.9006Z" fill="white"/>
</svg>
