<svg width="25" height="20" viewBox="0 0 25 20" fill="none" xmlns="http://www.w3.org/2000/svg">
<path d="M7.85156 0C5.99844 0 4.46405 1.35625 4.16405 3.125H0.976562C0.629687 3.125 0.351562 3.40313 0.351562 3.75C0.351562 4.09688 0.629687 4.375 0.976562 4.375H4.16405C4.46405 6.14375 5.99844 7.5 7.85156 7.5C9.92031 7.5 11.6016 5.81875 11.6016 3.75C11.6016 1.68125 9.92031 0 7.85156 0ZM7.85156 6.25C6.47344 6.25 5.35156 5.12813 5.35156 3.75C5.35156 2.37188 6.47344 1.25 7.85156 1.25C9.22969 1.25 10.3516 2.37188 10.3516 3.75C10.3516 5.12813 9.22969 6.25 7.85156 6.25ZM15.3516 3.75C15.3516 3.40313 15.6297 3.125 15.9766 3.125H23.4766C23.8234 3.125 24.1016 3.40313 24.1016 3.75C24.1016 4.09688 23.8234 4.375 23.4766 4.375H15.9766C15.6297 4.375 15.3516 4.09688 15.3516 3.75ZM23.4766 15.625H20.289C19.989 13.8562 18.4547 12.5 16.6016 12.5C14.5328 12.5 12.8516 14.1812 12.8516 16.25C12.8516 18.3188 14.5328 20 16.6016 20C18.4547 20 19.989 18.6437 20.289 16.875H23.4766C23.8234 16.875 24.1016 16.5969 24.1016 16.25C24.1016 15.9031 23.8234 15.625 23.4766 15.625ZM16.6016 18.75C15.2234 18.75 14.1016 17.6281 14.1016 16.25C14.1016 14.8719 15.2234 13.75 16.6016 13.75C17.9797 13.75 19.1016 14.8719 19.1016 16.25C19.1016 17.6281 17.9797 18.75 16.6016 18.75ZM9.10156 16.25C9.10156 16.5969 8.82344 16.875 8.47656 16.875H0.976562C0.629687 16.875 0.351562 16.5969 0.351562 16.25C0.351562 15.9031 0.629687 15.625 0.976562 15.625H8.47656C8.82344 15.625 9.10156 15.9031 9.10156 16.25Z" fill="white"/>
</svg>
