<svg width="19" height="20" viewBox="0 0 19 20" fill="none" xmlns="http://www.w3.org/2000/svg">
<path d="M12.4821 15.5734L12.6278 15.0038L12.1095 14.7263L6.7405 11.8513L6.21753 11.5713L5.82459 12.0157C5.28264 12.6286 4.52641 13 3.67742 13C2.07055 13 0.75 11.6747 0.75 10C0.75 8.32533 2.07055 7 3.67742 7C4.52132 7 5.2813 7.37996 5.82868 7.98889L6.22193 8.42636L6.7405 8.14867L12.1095 5.27367L12.6278 4.99616L12.4821 4.42662C12.4232 4.19652 12.3952 3.98395 12.3952 3.75C12.3952 2.07533 13.7157 0.75 15.3226 0.75C16.9295 0.75 18.25 2.07533 18.25 3.75C18.25 5.42467 16.9295 6.75 15.3226 6.75C14.4787 6.75 13.7187 6.37004 13.1713 5.76111L12.7781 5.32364L12.2595 5.60133L6.89047 8.47633L6.36874 8.7557L6.51914 9.3281C6.63478 9.76819 6.63478 10.2318 6.51914 10.6719L6.36874 11.2443L6.89047 11.5237L12.2595 14.3987L12.7825 14.6787L13.1754 14.2343C13.7174 13.6214 14.4736 13.25 15.3226 13.25C16.9295 13.25 18.25 14.5753 18.25 16.25C18.25 17.9247 16.9295 19.25 15.3226 19.25C13.7157 19.25 12.3952 17.9247 12.3952 16.25C12.3952 16.0161 12.4232 15.8035 12.4821 15.5734Z" stroke="#A776E4" stroke-width="1.5"/>
</svg>
