<svg width="17" height="18" viewBox="0 0 17 18" fill="none" xmlns="http://www.w3.org/2000/svg">
<path d="M11.4762 12.6768L15.6457 17.0836C15.9 17.3524 16.3194 17.364 16.5881 17.1097C16.8569 16.8554 16.8685 16.436 16.6142 16.1673L12.4448 11.7605C14.6518 9.20423 14.6359 5.34622 12.2671 2.84257C9.74025 0.171846 5.51337 0.0548675 2.84265 2.58175C0.171925 5.10863 0.0549512 9.3355 2.58183 12.0062C4.95064 14.5099 8.80187 14.7391 11.4762 12.6768ZM3.75901 3.55028C5.89462 1.52969 9.27801 1.62332 11.2986 3.75893C13.3192 5.89454 13.2256 9.27793 11.0899 11.2985C8.95433 13.3191 5.57095 13.2255 3.55036 11.0899C1.52977 8.95425 1.6234 5.57086 3.75901 3.55028Z" fill="#BDBDBD"/>
</svg>
