<svg width="23" height="20" viewBox="0 0 23 20" fill="none" xmlns="http://www.w3.org/2000/svg">
<path d="M10.8801 0.328077C9.61535 -0.254315 8.17112 -0.0513461 7.11517 0.857539L4.06206 3.47537C3.95617 3.56655 3.82085 3.61655 3.68261 3.61655H2.81492C1.26187 3.61949 0 4.88722 0 6.44321V13.5613C0 15.1173 1.26187 16.3821 2.81492 16.385H3.68261C3.82379 16.385 3.95911 16.438 4.065 16.5263L7.11811 19.144C7.77404 19.7088 8.58293 20 9.40357 20C9.9036 20 10.4066 19.8912 10.886 19.6706C12.1567 19.0882 12.945 17.8557 12.945 16.4556V3.54007C12.945 2.13998 12.1567 0.907525 10.886 0.325133L10.8801 0.328077ZM11.7626 16.4586C11.7626 17.3939 11.2361 18.2146 10.389 18.6028C9.53302 18.994 8.59471 18.8646 7.87701 18.2499L4.82677 15.6321C4.5091 15.3585 4.10322 15.2085 3.67966 15.2055H2.81197C1.90897 15.2055 1.17066 14.4643 1.17066 13.5554V6.43732C1.17066 5.53138 1.90603 4.79016 2.81197 4.79016H3.67966C4.10028 4.79016 4.50616 4.63718 4.82383 4.36364L7.87701 1.74584C8.32116 1.3664 8.84764 1.16931 9.39179 1.16931C9.72417 1.16931 10.0625 1.24284 10.386 1.39285C11.2331 1.78112 11.7596 2.60471 11.7596 3.53713V16.4527L11.7626 16.4586ZM16.3482 6.11378C17.1953 7.2315 17.6453 8.5757 17.6453 9.99932C17.6453 11.4229 17.1982 12.7671 16.3482 13.8849C16.2335 14.0378 16.057 14.1172 15.8805 14.1172C15.7569 14.1172 15.6305 14.079 15.5246 13.9966C15.2657 13.7996 15.2157 13.4319 15.4098 13.1731C16.1011 12.2613 16.4658 11.1641 16.4658 9.99932C16.4658 8.83454 16.1011 7.73739 15.4098 6.82557C15.2128 6.56672 15.2628 6.19907 15.5246 6.002C15.7805 5.80787 16.1511 5.85494 16.3482 6.11378ZM22.3515 9.99932C22.3515 12.7583 21.3367 15.4026 19.4954 17.4528C19.3807 17.5822 19.219 17.6469 19.0572 17.6469C18.916 17.6469 18.7748 17.5969 18.663 17.4969C18.4218 17.2792 18.4013 16.9086 18.6189 16.6674C20.2661 14.835 21.175 12.4671 21.175 10.0023C21.175 7.53739 20.2661 5.16958 18.6189 3.3371C18.4013 3.09591 18.4218 2.72237 18.663 2.50765C18.9013 2.28998 19.2748 2.30764 19.4925 2.55177C21.3338 4.59897 22.3486 7.2462 22.3486 10.0052L22.3515 9.99932Z" fill="white"/>
</svg>
