<svg width="23" height="20" viewBox="0 0 23 20" fill="none" xmlns="http://www.w3.org/2000/svg">
<path d="M12.9449 3.5402V16.4557C12.9449 17.8528 12.1566 19.0852 10.8859 19.6706C10.4065 19.8912 9.90353 20 9.40349 20C8.58286 20 7.77692 19.7088 7.11806 19.1441L4.06497 16.5262C3.95908 16.4351 3.82376 16.3851 3.68258 16.3851H2.81489C1.26186 16.3851 0 15.1144 0 13.5584V6.44037C0 4.8844 1.26186 3.61962 2.81489 3.61668H3.68258C3.82082 3.61668 3.95614 3.56371 4.06203 3.47547L7.11511 0.854748C8.17106 -0.0511886 9.61822 -0.254153 10.8801 0.328234C12.1507 0.910622 12.939 2.14306 12.939 3.54315L12.9449 3.5402ZM16.8245 5.75796C16.4304 5.24322 15.6951 5.13736 15.1745 5.53151C14.6568 5.92565 14.5538 6.66098 14.948 7.1816C15.5627 7.99047 15.8862 8.96405 15.8862 9.9994C15.8862 11.0348 15.5627 12.0113 14.948 12.8172C14.5538 13.3349 14.6568 14.0732 15.1745 14.4673C15.3862 14.6291 15.6362 14.7056 15.8833 14.7056C16.2392 14.7056 16.5892 14.5438 16.8216 14.2408C17.7481 13.0202 18.2364 11.5524 18.2364 9.9994C18.2364 8.44637 17.7481 6.97862 16.8216 5.75796H16.8245ZM19.9394 2.15186C19.5041 1.66948 18.7629 1.63126 18.2775 2.06364C17.7952 2.49896 17.754 3.24019 18.1894 3.72551C19.7394 5.44914 20.5924 7.67573 20.5924 9.99646C20.5924 12.3172 19.7394 14.5438 18.1894 16.2674C17.754 16.7498 17.7952 17.494 18.2775 17.9293C18.504 18.1322 18.7835 18.2322 19.0659 18.2322C19.3865 18.2322 19.7071 18.0999 19.9394 17.844C21.8778 15.688 22.9484 12.8996 22.9484 9.99646C22.9484 7.09334 21.8807 4.3079 19.9394 2.14895V2.15186Z" fill="white"/>
</svg>
