<svg width="20" height="20" viewBox="0 0 20 20" fill="none" xmlns="http://www.w3.org/2000/svg">
<path d="M14.7885 7.16346C14.9286 7.31145 15.0042 7.50898 14.9988 7.7127C14.9934 7.91641 14.9074 8.10965 14.7596 8.25L9.125 13.6346C8.97933 13.7716 8.78653 13.8474 8.58654 13.8462C8.38949 13.8469 8.19987 13.771 8.0577 13.6346L5.24039 10.9423C5.16225 10.8741 5.0987 10.7909 5.05356 10.6975C5.00842 10.6041 4.98262 10.5026 4.97772 10.399C4.97282 10.2954 4.98892 10.1919 5.02504 10.0947C5.06116 9.99752 5.11656 9.90862 5.18792 9.83337C5.25928 9.75812 5.34511 9.69808 5.44027 9.65685C5.53542 9.61562 5.63793 9.59405 5.74163 9.59345C5.84533 9.59285 5.94808 9.61322 6.0437 9.65334C6.13933 9.69346 6.22585 9.75251 6.29808 9.82692L8.58654 12.0096L13.7019 7.13461C13.8499 6.99452 14.0474 6.91887 14.2512 6.92428C14.4549 6.92969 14.6481 7.01571 14.7885 7.16346ZM20 10C20 11.9778 19.4135 13.9112 18.3147 15.5557C17.2159 17.2002 15.6541 18.4819 13.8268 19.2388C11.9996 19.9957 9.98891 20.1937 8.0491 19.8078C6.10929 19.422 4.32746 18.4696 2.92894 17.0711C1.53041 15.6725 0.578004 13.8907 0.192152 11.9509C-0.1937 10.0111 0.00433284 8.00042 0.761209 6.17316C1.51809 4.3459 2.79981 2.78412 4.4443 1.6853C6.08879 0.58649 8.02219 0 10 0C12.6506 0.00508267 15.1912 1.06028 17.0655 2.93455C18.9397 4.80881 19.9949 7.34939 20 10ZM18.4615 10C18.4615 8.32646 17.9653 6.69051 17.0355 5.29902C16.1057 3.90753 14.7842 2.82299 13.2381 2.18256C11.6919 1.54212 9.99062 1.37456 8.34924 1.70105C6.70786 2.02754 5.20016 2.83342 4.01679 4.01679C2.83343 5.20016 2.02754 6.70786 1.70105 8.34923C1.37456 9.99061 1.54213 11.6919 2.18256 13.2381C2.823 14.7842 3.90753 16.1057 5.29902 17.0355C6.69052 17.9653 8.32647 18.4615 10 18.4615C12.2434 18.459 14.3941 17.5667 15.9804 15.9804C17.5667 14.3941 18.459 12.2434 18.4615 10Z" fill="white"/>
</svg>
