<svg width="20" height="20" viewBox="0 0 20 20" fill="none" xmlns="http://www.w3.org/2000/svg">
<circle cx="10" cy="10" r="9.5" stroke="#A776E4"/>
<path d="M10 5C9.0111 5 8.0444 5.29324 7.22215 5.84265C6.39991 6.39206 5.75904 7.17295 5.3806 8.08658C5.00217 9.00021 4.90315 10.0055 5.09608 10.9755C5.289 11.9454 5.76521 12.8363 6.46447 13.5355C7.16373 14.2348 8.05465 14.711 9.02455 14.9039C9.99446 15.0969 10.9998 14.9978 11.9134 14.6194C12.827 14.241 13.6079 13.6001 14.1573 12.7779C14.7068 11.9556 15 10.9889 15 10C15 9.91531 14.9976 9.83061 14.9931 9.74632C14.9835 9.56545 14.7469 9.5008 14.6185 9.62855C14.4006 9.84529 14.1499 10.0279 13.8748 10.1693C13.4495 10.3877 12.9781 10.5011 12.5 10.5C11.864 10.5 11.2444 10.298 10.7307 9.92314C10.2169 9.54827 9.83547 9.01989 9.64141 8.41423C9.44735 7.80856 9.45068 7.1569 9.65093 6.55325C9.79799 6.10992 10.0457 5.7093 10.3719 5.38137C10.4996 5.25301 10.4349 5.01656 10.2541 5.00694C10.1697 5.00245 10.0848 5 10 5Z" fill="#A776E4"/>
</svg>
