<svg width="25" height="30" viewBox="0 0 25 30" fill="none" xmlns="http://www.w3.org/2000/svg">
<path d="M24.3165 13.3873C24.2615 12.8877 24.1741 12.4043 24.0517 11.9372C23.9293 11.4713 23.7707 11.0154 23.5771 10.5695C23.3835 10.1236 23.1499 9.6689 22.8776 9.20675C22.9388 9.16553 23.0038 9.11807 23.0712 9.06436C23.1387 9.0094 23.2273 8.95194 23.336 8.89074C23.4109 8.8158 23.4447 8.7446 23.4384 8.6759C23.4322 8.60845 23.3735 8.5535 23.2648 8.51228C23.0874 8.44483 22.9076 8.32742 22.724 8.16004C22.5404 7.99392 22.3393 7.79407 22.1219 7.563C21.9046 7.33192 21.666 7.07462 21.4075 6.79233C21.1489 6.51005 20.8629 6.21902 20.5494 5.91925C20.2359 5.61948 19.8886 5.31846 19.5077 5.01619C19.1267 4.71392 18.7008 4.42913 18.2311 4.16433C17.8502 3.947 17.4642 3.76089 17.072 3.60851C16.6811 3.45487 16.2939 3.30748 15.9129 3.16384C15.5319 3.02145 15.1647 2.87157 14.81 2.71419C14.4565 2.55805 14.1255 2.37195 13.8195 2.15836C13.5135 1.94352 13.2374 1.68747 12.9926 1.38769C12.7478 1.08792 12.5467 0.724449 12.3906 0.296025C12.3294 0.098675 12.2644 0 12.197 0C12.1295 0 12.0646 0.098675 12.0034 0.296025C11.8397 0.751928 11.6337 1.13539 11.3863 1.4439C11.1378 1.75367 10.8605 2.01597 10.5545 2.22955C10.2485 2.44439 9.91621 2.62425 9.55898 2.77039C9.20175 2.91653 8.83453 3.05767 8.45607 3.19382C8.07886 3.32997 7.6954 3.47111 7.30819 3.61725C6.91974 3.76339 6.53878 3.94575 6.16531 4.16308C5.69567 4.43538 5.26974 4.72141 4.88878 5.01993C4.50782 5.31971 4.16059 5.61823 3.84707 5.918C3.53356 6.21777 3.24878 6.5088 2.99023 6.79109C2.73167 7.07337 2.4931 7.33068 2.27577 7.56175C2.05843 7.79282 1.85609 7.99267 1.66873 8.1588C1.48137 8.32617 1.30276 8.44358 1.13289 8.51103C1.02422 8.55225 0.968014 8.60596 0.964267 8.67465C0.96052 8.74335 1.00049 8.81455 1.08168 8.88949C1.17661 8.95069 1.26029 9.00815 1.33149 9.06311C1.40268 9.11807 1.47638 9.16553 1.55132 9.2055C1.26529 9.6689 1.02422 10.1223 0.826871 10.5682C0.629521 11.0141 0.469643 11.47 0.347236 11.9359C0.224829 12.4018 0.136146 12.8852 0.0811883 13.3861C0.0262301 13.8857 0 14.4228 0 14.9936C0 15.5644 0.0274791 16.1127 0.0811883 16.6161C0.136146 17.1195 0.22358 17.6041 0.347236 18.0713C0.469643 18.5372 0.629521 18.9956 0.826871 19.444C1.02422 19.8936 1.26529 20.352 1.55132 20.8217C1.47638 20.8554 1.40268 20.8966 1.33149 20.9441C1.26029 20.9915 1.17661 21.0427 1.08168 21.0977C1.00049 21.1789 0.96052 21.2563 0.964267 21.3275C0.968014 21.3987 1.02422 21.4549 1.13289 21.4962C1.39144 21.5986 1.66873 21.8072 1.96476 22.1244C2.26078 22.4404 2.60302 22.8064 2.99023 23.2223C3.37868 23.637 3.82834 24.0779 4.34295 24.5438C4.85631 25.0097 5.46459 25.4444 6.16531 25.8453C6.54003 26.0627 6.92224 26.2488 7.31319 26.4012C7.70414 26.5548 8.0901 26.7022 8.47231 26.8458C8.85327 26.9882 9.22049 27.1369 9.57522 27.2905C9.9287 27.4441 10.2609 27.629 10.5707 27.8463C10.8805 28.0637 11.1578 28.3222 11.4026 28.622C11.6474 28.9218 11.8485 29.2927 12.0046 29.7349C12.1333 30.0884 12.2632 30.0884 12.3931 29.7349C12.5492 29.3065 12.7491 28.9417 12.9901 28.6432C13.2312 28.3434 13.506 28.0874 13.812 27.8726C14.118 27.6577 14.4503 27.4729 14.8075 27.3167C15.1647 27.1606 15.5344 27.0082 15.9154 26.8621C16.2964 26.7159 16.6823 26.5648 17.0745 26.4074C17.4655 26.2513 17.8514 26.0639 18.2336 25.8453C18.9344 25.4432 19.5414 25.0097 20.056 24.5438C20.5694 24.0779 21.0203 23.637 21.4087 23.2223C21.7972 22.8077 22.1382 22.4417 22.4342 22.1244C22.7302 21.8084 23.0075 21.5986 23.2661 21.4962C23.3747 21.4549 23.4322 21.3987 23.4397 21.3275C23.4459 21.2563 23.4122 21.1801 23.3373 21.0977C23.2286 21.0427 23.1399 20.9928 23.0725 20.9441C23.0038 20.8966 22.9401 20.8554 22.8789 20.8217C23.1511 20.352 23.3847 19.8874 23.5783 19.4277C23.7719 18.9681 23.9305 18.5022 24.053 18.0288C24.1754 17.5554 24.264 17.0695 24.3178 16.5687C24.3727 16.069 24.3989 15.5432 24.3989 14.9911C24.3989 14.439 24.3715 13.8832 24.3178 13.3836L24.3165 13.3873ZM23.5408 16.5412C23.4859 17.0208 23.3997 17.4842 23.281 17.9289C23.1624 18.3748 23.0088 18.8082 22.8214 19.2304C22.634 19.6526 22.408 20.081 22.1432 20.5169C22.007 20.4757 21.8784 20.4494 21.7547 20.4357C21.6323 20.422 21.5024 20.3982 21.3663 20.3645C21.6173 19.9561 21.8346 19.5464 22.0145 19.1342C22.1944 18.722 22.3393 18.3011 22.4479 17.8689C22.5566 17.4367 22.6365 16.9858 22.6877 16.5162C22.739 16.0465 22.7639 15.5469 22.7639 15.0161C22.7639 14.4852 22.739 13.9956 22.6877 13.526C22.6365 13.0563 22.5566 12.6017 22.4479 12.1632C22.3393 11.7248 22.1944 11.2977 22.0145 10.8817C21.8346 10.467 21.6186 10.0486 21.3663 9.62643C21.5024 9.5927 21.6311 9.57022 21.7547 9.56023C21.8771 9.55024 22.007 9.52151 22.1432 9.47404C22.408 9.91621 22.6353 10.3434 22.8214 10.7556C23.0088 11.1678 23.1611 11.5912 23.281 12.0271C23.3997 12.463 23.4871 12.9227 23.5408 13.4048C23.5958 13.8882 23.622 14.419 23.622 14.9973C23.622 15.5757 23.5946 16.064 23.5408 16.5437V16.5412ZM22.0857 9.09433C21.9321 9.13555 21.7747 9.17053 21.6111 9.20175C21.4474 9.23298 21.2826 9.26795 21.1164 9.30917C20.9491 9.35039 20.7954 9.4041 20.6518 9.4728C20.5769 9.26171 20.437 9.02314 20.2334 8.75834C20.0298 8.49229 19.7837 8.23249 19.4989 7.97768C19.2129 7.72288 18.8969 7.48556 18.5496 7.26822C18.2024 7.05089 17.8452 6.87977 17.478 6.75736C16.9883 6.59374 16.5287 6.49381 16.1003 6.45634C15.6718 6.41887 15.2771 6.42386 14.9162 6.47133C14.5552 6.51879 14.2267 6.60123 13.9307 6.71614C13.6346 6.8323 13.3723 6.95721 13.145 7.09336C12.9164 7.2295 12.7228 7.36565 12.5629 7.5018C12.4031 7.63794 12.2782 7.7541 12.1907 7.84903C12.102 7.7541 11.9796 7.63794 11.8235 7.5018C11.6674 7.36565 11.4763 7.2295 11.2514 7.09336C11.0266 6.95721 10.7668 6.83106 10.4708 6.71614C10.1748 6.59998 9.84626 6.51879 9.48529 6.47133C9.12431 6.42386 8.72961 6.41887 8.30119 6.45634C7.87276 6.49381 7.41311 6.59374 6.92348 6.75736C6.56251 6.87977 6.20903 7.04964 5.86179 7.26822C5.51456 7.48556 5.19855 7.72288 4.91251 7.97768C4.62648 8.23249 4.38042 8.49354 4.17183 8.75834C3.96448 9.02314 3.82334 9.26171 3.7484 9.4728C3.60601 9.40535 3.45113 9.35039 3.28375 9.30917C3.11638 9.26795 2.95151 9.23298 2.78913 9.20175C2.6255 9.17053 2.46812 9.13555 2.31449 9.09433C2.16086 9.05311 2.02346 8.99191 1.90105 8.91072C2.14587 8.7471 2.41192 8.51103 2.6967 8.20126C2.98273 7.8915 3.30748 7.54676 3.67096 7.16455C4.03443 6.78359 4.45037 6.38889 4.91626 5.98045C5.38216 5.57201 5.92549 5.19105 6.54502 4.83757C6.906 4.63398 7.27322 4.46161 7.64793 4.32171C8.02265 4.18182 8.38987 4.05067 8.75085 3.92826C9.11182 3.80586 9.46156 3.67845 9.80255 3.5448C10.1423 3.4124 10.4608 3.25253 10.7568 3.06517C11.0528 2.87781 11.3239 2.64799 11.5687 2.37569C11.8135 2.1034 12.0209 1.76616 12.192 1.36521C12.3618 1.76741 12.5717 2.1034 12.8203 2.37569C13.0688 2.64799 13.3424 2.87781 13.6421 3.06517C13.9419 3.25253 14.2629 3.4124 14.6064 3.5448C14.9499 3.6772 15.3021 3.80461 15.6631 3.92826C16.0241 4.05067 16.39 4.18182 16.761 4.32171C17.132 4.46161 17.4979 4.63273 17.8589 4.83757C18.4784 5.19105 19.0205 5.57201 19.4877 5.98045C19.9536 6.38889 20.3695 6.78359 20.733 7.16455C21.0965 7.54551 21.4225 7.8915 21.7072 8.20126C21.9933 8.51103 22.2581 8.7471 22.5029 8.91072C22.3805 8.99191 22.2431 9.05311 22.0895 9.09433H22.0857ZM21.9833 16.4238C21.9321 16.8659 21.8534 17.2931 21.7485 17.7053C21.6423 18.1175 21.5036 18.5172 21.33 18.9044C21.1564 19.2928 20.9466 19.6838 20.7018 20.0785C20.6543 20.0585 20.6068 20.0273 20.5594 19.9861C20.5119 19.9448 20.4607 19.9049 20.4057 19.8636C20.3108 19.8024 20.2309 19.7912 20.1659 19.8274C20.101 19.8649 20.0685 19.9411 20.0685 20.0572C20.0685 20.2209 19.9848 20.4232 19.8187 20.6643C19.6513 20.9054 19.4327 21.1514 19.1604 21.3987C18.8881 21.6473 18.5784 21.8821 18.2311 22.1032C17.8839 22.3243 17.5329 22.4991 17.1794 22.629C16.7847 22.7652 16.4138 22.8539 16.0665 22.8951C15.7193 22.9363 15.3958 22.9426 15.0973 22.9151C14.7975 22.8876 14.5227 22.8339 14.2704 22.7514C14.0181 22.6703 13.7908 22.5778 13.5859 22.4754C13.11 22.2368 12.6978 21.9171 12.3506 21.5161C12.2757 21.4212 12.2245 21.3737 12.197 21.3737C12.1695 21.3737 12.1183 21.4212 12.0433 21.5161C11.6961 21.9183 11.2839 22.2381 10.808 22.4754C10.6044 22.5778 10.3759 22.6678 10.1236 22.7465C9.87124 22.8251 9.59645 22.8776 9.29668 22.9051C8.99691 22.9326 8.6734 22.9276 8.32742 22.8901C7.98018 22.8526 7.60921 22.7664 7.21451 22.6303C6.85354 22.5016 6.50131 22.3255 6.15782 22.1044C5.81433 21.8834 5.50581 21.6485 5.23352 21.4C4.96123 21.1514 4.74139 20.9066 4.57527 20.6655C4.4079 20.4245 4.32546 20.2209 4.32546 20.0585C4.32546 19.9423 4.29423 19.8686 4.23303 19.8337C4.17183 19.7999 4.09688 19.8099 4.0082 19.8649C3.947 19.9061 3.89204 19.9461 3.84458 19.9873C3.79711 20.0285 3.7459 20.0585 3.69094 20.0797C3.44613 19.685 3.23629 19.2941 3.06267 18.9056C2.88905 18.5172 2.74916 18.1175 2.64424 17.7065C2.53807 17.2943 2.46063 16.8684 2.40942 16.425C2.35821 15.9828 2.33323 15.5132 2.33323 15.0161C2.33323 14.0356 2.4369 13.1375 2.64424 12.3206C2.85158 11.5038 3.20007 10.7081 3.69094 9.93245C3.7459 9.95993 3.79586 9.98865 3.84458 10.0199C3.89204 10.0511 3.947 10.0861 4.0082 10.1273C4.09688 10.1823 4.17183 10.1935 4.23303 10.1635C4.29423 10.1323 4.32546 10.0661 4.32546 9.96492C4.32546 9.79505 4.40915 9.58771 4.57527 9.34289C4.74139 9.09808 4.96123 8.85327 5.23352 8.60845C5.50581 8.36364 5.81308 8.13007 6.15782 7.90899C6.50131 7.6879 6.85354 7.51553 7.21451 7.39313C7.60921 7.25698 7.98018 7.1683 8.32742 7.12833C8.67465 7.08711 8.99816 7.07962 9.29668 7.10335C9.59645 7.12708 9.87124 7.17829 10.1236 7.25698C10.3759 7.33567 10.6032 7.4256 10.808 7.52803C11.2839 7.76659 11.6961 8.0826 12.0433 8.4773C12.1595 8.66091 12.2744 8.66091 12.3906 8.4773C12.7241 8.0826 13.1288 7.76659 13.6059 7.52803C13.8095 7.4256 14.0368 7.33567 14.2841 7.25698C14.5327 7.17829 14.805 7.12833 15.101 7.10335C15.397 7.07962 15.718 7.08836 16.0653 7.12833C16.4125 7.16955 16.7835 7.25823 17.1782 7.39313C17.5317 7.51553 17.8827 7.68541 18.2299 7.90399C18.5771 8.12132 18.8869 8.3549 19.1592 8.60346C19.4315 8.85202 19.6513 9.09808 19.8174 9.34414C19.9836 9.58896 20.0672 9.7963 20.0672 9.96617C20.0672 10.0686 20.0997 10.136 20.1647 10.1698C20.2296 10.2035 20.3096 10.1898 20.4045 10.1285C20.4594 10.0873 20.5094 10.0524 20.5581 10.0211C20.6056 9.9899 20.653 9.96117 20.7005 9.9337C21.1901 10.7094 21.5386 11.5112 21.7472 12.3381C21.9546 13.165 22.0582 14.0581 22.0582 15.0173C22.0582 15.5145 22.0332 15.9841 21.982 16.4263L21.9833 16.4238ZM21.7022 21.8034C21.4162 22.1169 21.0915 22.4642 20.728 22.8451C20.3633 23.2261 19.9486 23.6195 19.4827 24.0242C19.0168 24.4289 18.4734 24.8049 17.8539 25.1521C17.4929 25.3557 17.1257 25.5318 16.751 25.678C16.3763 25.8241 16.0078 25.9603 15.6431 26.0864C15.2784 26.2126 14.9261 26.345 14.5864 26.4849C14.2454 26.6248 13.9257 26.7871 13.6271 26.9745C13.3274 27.1618 13.0551 27.3892 12.8103 27.659C12.5654 27.9275 12.3581 28.256 12.187 28.6445C12.0171 28.2498 11.811 27.9175 11.57 27.649C11.3289 27.3804 11.0591 27.1506 10.7631 26.9595C10.467 26.7684 10.1485 26.606 9.80879 26.4699C9.4678 26.3337 9.11682 26.2026 8.75209 26.0764C8.38737 25.9503 8.0189 25.8166 7.64419 25.673C7.26947 25.5306 6.90225 25.357 6.54128 25.1521C5.92175 24.8049 5.37966 24.4289 4.91251 24.0242C4.44662 23.6195 4.03068 23.2261 3.66721 22.8451C3.30249 22.4642 2.97774 22.1169 2.69295 21.8034C2.40692 21.4899 2.14212 21.2488 1.89731 21.079C2.01971 21.004 2.15711 20.9466 2.31074 20.9054C2.46438 20.8641 2.62176 20.8267 2.78538 20.7929C2.94901 20.7592 3.11388 20.723 3.28001 20.6855C3.44613 20.648 3.60101 20.5918 3.74465 20.5169C3.8196 20.7342 3.96074 20.9765 4.16808 21.2413C4.37542 21.5074 4.62273 21.7672 4.90877 22.022C5.1948 22.2768 5.51081 22.5116 5.85804 22.7265C6.20528 22.9413 6.55876 23.1087 6.91974 23.2323C7.40937 23.4022 7.86902 23.5059 8.29744 23.5433C8.72586 23.5808 9.12056 23.5758 9.48154 23.5284C9.84251 23.4809 10.171 23.3997 10.467 23.2835C10.7631 23.1674 11.0229 23.0425 11.2477 22.9063C11.4725 22.7702 11.6624 22.6328 11.8198 22.4929C11.9759 22.353 12.0983 22.2356 12.187 22.1407C12.2757 22.2356 12.3993 22.353 12.5592 22.4929C12.7191 22.6328 12.9127 22.7702 13.1413 22.9063C13.3686 23.0425 13.6309 23.1686 13.9269 23.2835C14.2229 23.3997 14.5514 23.4809 14.9124 23.5284C15.2734 23.5758 15.6681 23.5808 16.0965 23.5433C16.5249 23.5059 16.9846 23.4022 17.4742 23.2323C17.8414 23.1099 18.1987 22.9413 18.5459 22.7265C18.8931 22.5116 19.2091 22.2768 19.4952 22.022C19.7812 21.7672 20.026 21.5061 20.2296 21.2413C20.4332 20.9765 20.5731 20.7342 20.648 20.5169C20.7904 20.5918 20.9453 20.648 21.1127 20.6855C21.2788 20.723 21.4449 20.7592 21.6073 20.7929C21.7709 20.8267 21.9283 20.8641 22.082 20.9054C22.2356 20.9466 22.373 21.004 22.4954 21.079C22.2506 21.2488 21.9845 21.4912 21.6997 21.8034H21.7022ZM2.64424 20.4357C2.52183 20.4494 2.39193 20.4769 2.25578 20.5169C1.98974 20.081 1.76366 19.6513 1.57755 19.2254C1.39019 18.8007 1.23656 18.3623 1.1179 17.9139C0.99924 17.4642 0.911807 17.0008 0.858097 16.5199C0.803139 16.0403 0.776909 15.5319 0.776909 14.9936C0.776909 14.4553 0.804388 13.9282 0.858097 13.4523C0.913056 12.9764 0.99924 12.5155 1.1179 12.0696C1.23656 11.6237 1.39019 11.1902 1.57755 10.7681C1.76491 10.3459 1.99099 9.91371 2.25578 9.47155C2.39193 9.51901 2.52058 9.54774 2.64424 9.55773C2.76665 9.56772 2.90279 9.59021 3.05268 9.62393C2.78788 10.0461 2.5643 10.4645 2.38444 10.8792C2.20457 11.2939 2.05719 11.7211 1.94602 12.1608C1.83361 12.5992 1.75367 13.0538 1.7062 13.5235C1.65874 13.9931 1.63501 14.4902 1.63501 15.0136C1.63501 15.5369 1.65874 16.0441 1.7062 16.5137C1.75367 16.9833 1.83361 17.4342 1.94602 17.8664C2.05843 18.2986 2.20457 18.7208 2.38444 19.1317C2.5643 19.5439 2.78788 19.9536 3.05268 20.362C2.90279 20.3957 2.76665 20.4195 2.64424 20.4332V20.4357ZM18.7333 6.04665C18.6034 5.96172 18.4747 5.88303 18.3448 5.81183C18.2149 5.74063 18.0812 5.67069 17.9414 5.60199C17.8015 5.53454 17.6466 5.4596 17.4767 5.37716C17.3131 5.30222 17.1619 5.23727 17.0221 5.18356C16.8822 5.1286 16.7448 5.08114 16.6086 5.04117C16.4725 4.99995 16.3326 4.96123 16.1902 4.92376C16.0478 4.88628 15.8904 4.85131 15.7205 4.81634C15.6181 4.79635 15.5344 4.81259 15.4707 4.86755C15.4058 4.92251 15.3646 4.98871 15.3483 5.06615C15.3308 5.14484 15.3396 5.21978 15.3733 5.29098C15.407 5.36217 15.4757 5.40464 15.5769 5.41838C15.7405 5.4521 15.8917 5.48708 16.0316 5.5208C16.1715 5.55453 16.3039 5.592 16.43 5.63322C16.5562 5.67444 16.6836 5.7194 16.8122 5.77061C16.9409 5.82182 17.0808 5.87803 17.2306 5.93923C17.3868 6.01418 17.5304 6.08412 17.6591 6.14907C17.7877 6.21403 17.9139 6.27898 18.0363 6.34268C18.1587 6.40763 18.2798 6.48007 18.3985 6.56251C18.5172 6.6437 18.6483 6.73613 18.792 6.83855C18.8731 6.90725 18.9556 6.93098 19.0368 6.90975C19.118 6.88976 19.1817 6.84854 19.2254 6.78734C19.2691 6.72613 19.2878 6.65119 19.2816 6.56251C19.2753 6.47383 19.2304 6.39888 19.1492 6.33768C18.9993 6.22901 18.8594 6.13159 18.7308 6.04665H18.7333ZM13.446 4.21929C13.3786 4.05317 13.2824 3.90828 13.16 3.78587C13.0376 3.66346 12.8927 3.56604 12.7266 3.49484C12.5592 3.42365 12.3806 3.38742 12.1907 3.38742C12.0009 3.38742 11.8335 3.42365 11.6699 3.49484C11.5062 3.56604 11.3651 3.66346 11.2464 3.78587C11.1278 3.90828 11.0316 4.05317 10.9604 4.21929C10.8892 4.38666 10.853 4.56528 10.853 4.75513C10.853 4.94499 10.8892 5.11361 10.9604 5.28098C11.0316 5.44836 11.1265 5.592 11.2464 5.7144C11.3651 5.83681 11.5062 5.93424 11.6699 6.00543C11.8335 6.07663 12.0071 6.11285 12.1907 6.11285C12.3743 6.11285 12.5604 6.07663 12.7266 6.00543C12.8927 5.93424 13.0376 5.83681 13.16 5.7144C13.2824 5.592 13.3773 5.44711 13.446 5.28098C13.5135 5.11486 13.5484 4.93874 13.5484 4.75513C13.5484 4.57152 13.5147 4.38666 13.446 4.21929ZM8.97443 5.29098C9.01564 5.21978 9.02689 5.14484 9.01065 5.06615C8.99316 4.98746 8.95319 4.92126 8.88824 4.86755C8.82329 4.81259 8.74085 4.79635 8.63843 4.81634C8.46107 4.85006 8.30369 4.88628 8.16379 4.92376C8.0239 4.96123 7.88775 5.00245 7.75535 5.04616C7.62295 5.08988 7.48806 5.13984 7.35191 5.19355C7.21576 5.24851 7.06588 5.30971 6.90225 5.37716C6.72489 5.45835 6.56751 5.53329 6.42761 5.60199C6.28772 5.67069 6.15407 5.73939 6.02417 5.81183C5.89427 5.88303 5.76562 5.96172 5.63571 6.04665C5.50581 6.13159 5.37092 6.22901 5.22727 6.33768C5.13859 6.39888 5.09113 6.47258 5.08488 6.55751C5.07864 6.64245 5.09488 6.71614 5.13609 6.77735C5.17731 6.83855 5.23852 6.87977 5.3197 6.89975C5.40089 6.91974 5.48333 6.89975 5.56452 6.83855C5.70691 6.73613 5.84056 6.64495 5.96297 6.56251C6.08537 6.48132 6.20653 6.40763 6.32519 6.34268C6.44385 6.27773 6.56626 6.21403 6.69241 6.14907C6.81856 6.08412 6.96345 6.01418 7.12583 5.93923C7.27572 5.87803 7.41686 5.82182 7.54926 5.77061C7.68166 5.7194 7.81156 5.67319 7.93771 5.63322C8.06387 5.592 8.19252 5.55453 8.32617 5.5208C8.45857 5.48708 8.60346 5.45335 8.75959 5.41838C8.86201 5.40464 8.93321 5.36217 8.97443 5.29098ZM19.3053 23.3947C19.3116 23.3135 19.2928 23.2411 19.2491 23.1799C19.2041 23.1187 19.1454 23.0762 19.0705 23.0525C18.9956 23.0287 18.9169 23.0475 18.8357 23.1087C18.6933 23.2173 18.5596 23.3123 18.4372 23.3947C18.3148 23.4759 18.1924 23.5508 18.07 23.6195C17.9476 23.687 17.8214 23.7519 17.6928 23.8131C17.5629 23.8743 17.4168 23.9393 17.2544 24.0067C17.0982 24.0742 16.9571 24.1341 16.8309 24.1854C16.7048 24.2366 16.5786 24.2828 16.4537 24.3228C16.3276 24.364 16.1989 24.4014 16.0653 24.4352C15.9329 24.4689 15.7842 24.5001 15.6206 24.5276C15.5182 24.5413 15.4483 24.5851 15.4108 24.66C15.3733 24.7349 15.3633 24.8111 15.3796 24.8898C15.397 24.9685 15.4358 25.0347 15.497 25.0884C15.5582 25.1434 15.6394 25.1559 15.7418 25.1296C15.9191 25.0959 16.0803 25.0597 16.2264 25.0222C16.3725 24.9848 16.5124 24.946 16.6448 24.9048C16.7772 24.8636 16.9121 24.8161 17.0483 24.7624C17.1844 24.7075 17.3343 24.6438 17.4979 24.5688C17.6678 24.4939 17.8227 24.4227 17.9626 24.354C18.1025 24.2853 18.2361 24.2141 18.366 24.1391C18.4947 24.0642 18.6246 23.9843 18.7545 23.8993C18.8831 23.8144 19.023 23.717 19.1729 23.6083C19.2541 23.5471 19.2991 23.4759 19.3053 23.3935V23.3947ZM13.446 24.8136C13.3786 24.65 13.2824 24.5076 13.16 24.3852C13.0376 24.2628 12.8927 24.1654 12.7266 24.0942C12.5592 24.023 12.3806 23.9868 12.1907 23.9868C12.0009 23.9868 11.8335 24.023 11.6699 24.0942C11.5062 24.1654 11.3651 24.2628 11.2464 24.3852C11.1278 24.5076 11.0316 24.6513 10.9604 24.8136C10.8892 24.9773 10.853 25.1534 10.853 25.3445C10.853 25.5356 10.8892 25.7117 10.9604 25.8753C11.0316 26.0389 11.1265 26.1813 11.2464 26.3037C11.3651 26.4262 11.5062 26.5236 11.6699 26.5948C11.8335 26.666 12.0071 26.7022 12.1907 26.7022C12.3743 26.7022 12.5604 26.666 12.7266 26.5948C12.8927 26.5236 13.0376 26.4262 13.16 26.3037C13.2824 26.1813 13.3773 26.0389 13.446 25.8753C13.5135 25.7117 13.5484 25.5356 13.5484 25.3445C13.5484 25.1534 13.5147 24.9773 13.446 24.8136ZM7.96394 24.324C7.72537 24.2491 7.46058 24.1441 7.1683 24.008C7.01217 23.9405 6.86853 23.8756 6.73987 23.8144C6.60997 23.7532 6.48507 23.6882 6.36266 23.6208C6.24025 23.5533 6.11535 23.4784 5.99044 23.396C5.86429 23.3148 5.73064 23.2186 5.587 23.1099C5.50581 23.0487 5.42712 23.0287 5.35218 23.0487C5.27724 23.0687 5.21728 23.1112 5.17357 23.1761C5.1286 23.2411 5.10737 23.3135 5.10737 23.396C5.10737 23.4784 5.14858 23.5496 5.22977 23.6108C5.3859 23.7195 5.52954 23.8169 5.6582 23.9018C5.78685 23.9868 5.91675 24.0667 6.04665 24.1416C6.1753 24.2166 6.3102 24.2878 6.45009 24.3565C6.58999 24.4239 6.74737 24.4964 6.92473 24.5713C7.08836 24.6463 7.23825 24.7112 7.37439 24.7649C7.51054 24.8199 7.64544 24.8673 7.77783 24.9073C7.91023 24.9485 8.05013 24.9872 8.19627 25.0247C8.34241 25.0622 8.50353 25.0972 8.6809 25.1321C8.78332 25.1596 8.86451 25.1459 8.92571 25.0909C8.98692 25.036 9.02439 24.9698 9.03813 24.8923C9.05187 24.8136 9.04187 24.7374 9.0069 24.6625C8.97318 24.5876 8.90448 24.5438 8.80331 24.5301C8.48355 24.4689 8.20376 24.4002 7.96644 24.3265L7.96394 24.324Z" fill="#4D4D4D"/>
</svg>
