<svg width="395" height="70" viewBox="0 0 395 70" fill="none" xmlns="http://www.w3.org/2000/svg">
<path d="M204.702 10.2617C205.612 10.2617 360.852 10.2617 360.852 10.2617C361.082 11.2817 361.982 12.0517 363.072 12.0517C364.162 12.0517 365.072 11.2817 365.292 10.2617H376.412L383.082 19.1717C382.402 19.9617 382.332 21.1517 382.982 22.0217C383.632 22.8917 384.792 23.1617 385.742 22.7317L392.482 31.7417C392.722 32.0617 393.112 32.2617 393.522 32.1917C394.112 32.0817 394.302 31.4417 394.082 30.9517C393.882 30.5117 393.302 30.1917 392.922 29.9417C392.542 29.6917 391.992 29.4417 391.112 28.3317C389.922 26.8317 386.512 22.1817 386.512 22.1817C387.212 21.3917 387.292 20.1817 386.632 19.3017C385.972 18.4217 384.782 18.1517 383.832 18.6117C382.852 17.3017 382.302 16.5717 382.282 16.5317C381.182 14.9117 380.812 12.9717 381.052 11.6917C381.432 9.59168 383.212 7.94168 385.212 8.07168C386.292 8.14168 387.312 8.83168 387.802 9.74168C388.242 10.5617 388.222 11.5017 387.742 12.3117C387.232 13.1917 386.212 13.4917 385.462 13.3417C385.372 13.3217 385.232 13.2917 385.092 13.2217C385.192 13.1717 385.292 13.1017 385.382 13.0117C385.642 12.6917 385.772 12.2117 385.562 11.8417C384.952 10.7617 383.452 11.5217 383.612 12.5717C383.732 13.4317 384.462 14.0717 385.402 14.2717C386.442 14.4817 387.792 13.9517 388.532 12.6217C389.252 11.3317 388.922 9.79168 388.122 8.78168C387.462 7.95168 386.442 7.41168 385.462 7.27168C382.902 6.90168 380.612 8.98168 380.162 11.5317C380.062 12.0817 380.042 12.9617 380.262 13.8117L376.912 9.34168H371.332C372.142 9.01168 372.842 8.46168 373.222 8.05168C374.982 6.16168 375.282 3.09168 373.452 1.26168C372.752 0.551683 371.712 0.0616828 370.652 0.0316828C369.362 -0.00831722 367.942 0.651683 367.332 2.00168C366.712 3.38168 367.102 4.79168 367.892 5.49168C368.612 6.12168 369.562 6.32168 370.322 5.90168C371.262 5.39168 370.962 3.74168 369.742 3.90168C369.322 3.95168 369.012 4.34168 368.912 4.75168C368.882 4.87168 368.892 4.99168 368.912 5.11168C368.772 5.04168 368.662 4.95168 368.592 4.89168C368.022 4.38168 367.652 3.38168 368.052 2.45168C368.422 1.58168 369.152 1.01168 370.072 0.861683C371.092 0.701683 372.262 1.11168 372.962 1.93168C374.262 3.46168 374.002 5.87168 372.552 7.43168C371.672 8.38168 369.892 9.25168 367.932 9.34168C367.882 9.34168 366.972 9.34168 365.332 9.34168C365.122 8.30168 364.202 7.51168 363.092 7.51168C361.992 7.51168 361.072 8.30168 360.862 9.33168C360.862 9.33168 205.632 9.33168 204.722 9.33168C203.812 9.33168 203.822 10.2717 204.722 10.2717L204.702 10.2617ZM383.982 19.5517C384.592 19.0917 385.452 19.2217 385.912 19.8317C386.362 20.4417 386.242 21.3017 385.632 21.7617C385.022 22.2217 384.162 22.0917 383.702 21.4817C383.242 20.8717 383.372 20.0117 383.982 19.5517ZM361.692 9.77168C361.692 9.01168 362.312 8.39168 363.072 8.39168C363.832 8.39168 364.452 9.01168 364.452 9.77168C364.452 10.5317 363.832 11.1517 363.072 11.1517C362.312 11.1517 361.692 10.5317 361.692 9.77168Z" fill="#4D4D4D"/>
<path d="M203.702 59.8788C204.612 59.8788 360.843 59.8788 360.843 59.8788C361.053 60.9188 361.973 61.6988 363.073 61.6988C364.183 61.6988 365.102 60.9088 365.312 59.8688C366.943 59.8688 367.863 59.8688 367.913 59.8688C369.873 59.9688 371.643 60.8288 372.533 61.7788C373.982 63.3388 374.243 65.7488 372.943 67.2788C372.243 68.0988 371.073 68.5088 370.053 68.3488C369.133 68.2088 368.393 67.6288 368.033 66.7588C367.643 65.8188 368.003 64.8188 368.573 64.3188C368.643 64.2588 368.753 64.1688 368.893 64.0988C368.872 64.2088 368.863 64.3288 368.893 64.4588C368.993 64.8588 369.303 65.2488 369.723 65.3088C370.952 65.4688 371.243 63.8188 370.303 63.3088C369.543 62.8888 368.593 63.0888 367.873 63.7188C367.083 64.4188 366.693 65.8288 367.312 67.2088C367.913 68.5588 369.343 69.2188 370.633 69.1788C371.693 69.1488 372.743 68.6488 373.433 67.9488C375.263 66.1188 374.962 63.0488 373.202 61.1588C372.822 60.7488 372.133 60.1988 371.312 59.8688H376.893L380.243 55.3988C380.023 56.2488 380.042 57.1288 380.143 57.6788C380.603 60.2288 382.883 62.2988 385.443 61.9388C386.423 61.8088 387.443 61.2688 388.103 60.4288C388.903 59.4188 389.223 57.8788 388.513 56.5888C387.773 55.2688 386.413 54.7288 385.383 54.9388C384.443 55.1388 383.723 55.7788 383.593 56.6388C383.443 57.6888 384.933 58.4488 385.543 57.3688C385.753 56.9988 385.622 56.5188 385.363 56.1988C385.283 56.0988 385.183 56.0388 385.073 55.9888C385.213 55.9188 385.353 55.8788 385.443 55.8688C386.193 55.7188 387.213 56.0188 387.723 56.8988C388.193 57.7088 388.223 58.6488 387.783 59.4688C387.292 60.3788 386.273 61.0788 385.193 61.1388C383.193 61.2588 381.413 59.6088 381.033 57.5188C380.803 56.2388 381.173 54.2988 382.263 52.6788C382.293 52.6388 382.833 51.9088 383.812 50.5988C384.773 51.0588 385.952 50.7888 386.613 49.9088C387.273 49.0288 387.193 47.8188 386.493 47.0288C386.493 47.0288 389.903 42.3888 391.093 40.8788C391.983 39.7588 392.533 39.5188 392.903 39.2688C393.283 39.0188 393.863 38.6988 394.062 38.2588C394.283 37.7688 394.092 37.1288 393.503 37.0188C393.092 36.9388 392.703 37.1488 392.463 37.4688L385.723 46.4788C384.773 46.0488 383.613 46.3188 382.963 47.1888C382.313 48.0588 382.383 49.2488 383.062 50.0388L376.393 58.9488H365.273C365.043 57.9288 364.143 57.1588 363.053 57.1588C361.963 57.1588 361.062 57.9288 360.833 58.9488C360.833 58.9488 204.592 58.9488 203.683 58.9488C202.772 58.9488 202.772 59.8888 203.683 59.8888L203.702 59.8788ZM383.702 47.7288C384.163 47.1188 385.023 46.9988 385.633 47.4488C386.243 47.9088 386.363 48.7688 385.913 49.3788C385.452 49.9888 384.593 50.1088 383.983 49.6588C383.373 49.1988 383.253 48.3388 383.702 47.7288ZM363.073 58.0588C363.833 58.0588 364.452 58.6788 364.452 59.4388C364.452 60.1988 363.833 60.8188 363.073 60.8188C362.313 60.8188 361.693 60.1988 361.693 59.4388C361.693 58.6788 362.313 58.0588 363.073 58.0588Z" fill="#4D4D4D"/>
<path d="M199.28 12.0617C198.02 12.0617 197 11.0417 197 9.78171C197 8.52171 198.02 7.50171 199.28 7.50171C200.54 7.50171 201.56 8.52171 201.56 9.78171C201.56 11.0417 200.54 12.0617 199.28 12.0617ZM199.28 8.40171C198.52 8.40171 197.9 9.02171 197.9 9.78171C197.9 10.5417 198.52 11.1617 199.28 11.1617C200.04 11.1617 200.66 10.5417 200.66 9.78171C200.66 9.02171 200.04 8.40171 199.28 8.40171Z" fill="#4D4D4D"/>
<path d="M193.479 9.33169C192.569 9.33169 33.3388 9.33169 33.3388 9.33169C33.1288 8.29169 32.2088 7.51169 31.1088 7.51169C29.9988 7.51169 29.0788 8.30169 28.8688 9.34169C27.2388 9.34169 26.3188 9.34169 26.2688 9.34169C24.3088 9.24169 22.5388 8.38169 21.6488 7.43169C20.1988 5.87169 19.9388 3.46169 21.2388 1.93169C21.9388 1.11169 23.1088 0.70169 24.1288 0.86169C25.0488 1.00169 25.7888 1.58169 26.1488 2.45169C26.5388 3.39169 26.1788 4.39169 25.6088 4.89169C25.5388 4.95169 25.4288 5.04169 25.2888 5.11169C25.3088 5.00169 25.3188 4.88169 25.2888 4.75169C25.1888 4.35169 24.8788 3.96169 24.4588 3.90169C23.2288 3.74169 22.9388 5.39169 23.8788 5.90169C24.6388 6.32169 25.5888 6.12169 26.3088 5.49169C27.0988 4.79169 27.4888 3.38169 26.8688 2.00169C26.2788 0.63169 24.8488 -0.0383096 23.5588 0.00169036C22.4988 0.0316904 21.4488 0.53169 20.7588 1.23169C18.9288 3.06169 19.2288 6.13169 20.9888 8.02169C21.3688 8.43169 22.0588 8.98169 22.8788 9.31169H17.2988L13.9488 13.7817C14.1688 12.9317 14.1488 12.0517 14.0488 11.5017C13.5888 8.95169 11.3088 6.88169 8.74877 7.24169C7.76877 7.37169 6.74877 7.91169 6.08877 8.75169C5.28877 9.76169 4.96877 11.3017 5.67877 12.5917C6.41877 13.9117 7.77877 14.4517 8.80877 14.2417C9.74877 14.0417 10.4688 13.4017 10.5988 12.5417C10.7488 11.4917 9.25877 10.7317 8.64877 11.8117C8.43877 12.1817 8.56877 12.6617 8.82877 12.9817C8.90877 13.0817 9.00877 13.1417 9.11877 13.1917C8.97877 13.2617 8.83877 13.3017 8.74877 13.3117C7.99877 13.4617 6.97877 13.1617 6.46877 12.2817C5.99877 11.4717 5.96877 10.5317 6.40877 9.71169C6.89877 8.80169 7.91877 8.10169 8.99877 8.04169C10.9988 7.92169 12.7788 9.57169 13.1588 11.6617C13.3888 12.9417 13.0188 14.8817 11.9288 16.5017C11.8988 16.5417 11.3588 17.2717 10.3788 18.5817C9.41877 18.1217 8.23877 18.3917 7.57877 19.2717C6.91877 20.1517 6.99877 21.3617 7.69877 22.1517C7.69877 22.1517 4.28877 26.7917 3.09877 28.3017C2.20877 29.4217 1.65877 29.6617 1.28877 29.9117C0.90877 30.1617 0.32877 30.4817 0.12877 30.9217C-0.0912303 31.4117 0.0987697 32.0517 0.68877 32.1617C1.09877 32.2417 1.48877 32.0317 1.72877 31.7117L8.46877 22.7017C9.41877 23.1317 10.5788 22.8617 11.2288 21.9917C11.8788 21.1217 11.8088 19.9317 11.1288 19.1417L17.7988 10.2317H28.9188C29.1488 11.2517 30.0488 12.0217 31.1388 12.0217C32.2288 12.0217 33.1288 11.2517 33.3588 10.2317C33.3588 10.2317 192.599 10.2317 193.509 10.2317C194.419 10.2317 194.419 9.29169 193.509 9.29169L193.479 9.33169ZM10.4788 21.4817C10.0188 22.0917 9.15877 22.2117 8.54877 21.7617C7.93877 21.3117 7.81877 20.4417 8.26877 19.8317C8.72877 19.2217 9.58877 19.1017 10.1988 19.5517C10.8088 20.0117 10.9288 20.8717 10.4788 21.4817ZM31.1088 11.1517C30.3488 11.1517 29.7288 10.5317 29.7288 9.77169C29.7288 9.01169 30.3488 8.39169 31.1088 8.39169C31.8688 8.39169 32.4888 9.01169 32.4888 9.77169C32.4888 10.5317 31.8688 11.1517 31.1088 11.1517Z" fill="#4D4D4D"/>
<path d="M201.56 59.2817C201.56 60.5417 200.54 61.5617 199.28 61.5617C198.02 61.5617 197 60.5417 197 59.2817C197 58.0217 198.02 57.0017 199.28 57.0017C200.54 57.0017 201.56 58.0217 201.56 59.2817ZM200.66 59.2817C200.66 58.5217 200.04 57.9017 199.28 57.9017C198.52 57.9017 197.9 58.5217 197.9 59.2817C197.9 60.0417 198.52 60.6617 199.28 60.6617C200.04 60.6617 200.66 60.0417 200.66 59.2817Z" fill="#4D4D4D"/>
<path d="M193.479 58.9457C192.569 58.9457 33.3287 58.9457 33.3287 58.9457C33.0987 57.9257 32.1987 57.1557 31.1087 57.1557C30.0187 57.1557 29.1087 57.9257 28.8887 58.9457H17.7687L11.0987 50.0357C11.7787 49.2457 11.8487 48.0557 11.1987 47.1857C10.5487 46.3157 9.38873 46.0457 8.43873 46.4757L1.68873 37.4657C1.44873 37.1457 1.05873 36.9457 0.648731 37.0157C0.0587307 37.1257 -0.131269 37.7657 0.0887307 38.2557C0.288731 38.6957 0.868731 39.0157 1.24873 39.2657C1.62873 39.5157 2.17873 39.7657 3.05873 40.8757C4.24873 42.3757 7.65873 47.0257 7.65873 47.0257C6.95873 47.8157 6.87873 49.0257 7.53873 49.9057C8.19873 50.7857 9.38873 51.0557 10.3387 50.5957C11.3187 51.9057 11.8687 52.6357 11.8887 52.6757C12.9887 54.2957 13.3587 56.2357 13.1187 57.5157C12.7387 59.6157 10.9587 61.2657 8.95873 61.1357C7.87873 61.0657 6.85873 60.3757 6.36873 59.4657C5.92873 58.6457 5.94873 57.7057 6.42873 56.8957C6.93873 56.0157 7.95873 55.7157 8.70873 55.8657C8.79873 55.8857 8.93873 55.9157 9.07873 55.9857C8.97873 56.0357 8.87873 56.1057 8.78873 56.1957C8.52873 56.5157 8.39873 56.9957 8.60873 57.3657C9.21873 58.4457 10.7187 57.6857 10.5587 56.6357C10.4387 55.7757 9.70873 55.1357 8.76873 54.9357C7.72873 54.7257 6.37873 55.2557 5.63873 56.5857C4.91873 57.8757 5.24873 59.4157 6.04873 60.4257C6.70873 61.2557 7.72873 61.7957 8.70873 61.9357C11.2687 62.3057 13.5587 60.2257 14.0087 57.6757C14.1087 57.1257 14.1287 56.2457 13.9087 55.3957L17.2587 59.8657H22.8387C22.0287 60.1957 21.3287 60.7457 20.9487 61.1557C19.1887 63.0457 18.8887 66.1157 20.7187 67.9457C21.4187 68.6557 22.4587 69.1457 23.5187 69.1757C24.8087 69.2157 26.2287 68.5557 26.8387 67.2057C27.4587 65.8257 27.0687 64.4157 26.2787 63.7157C25.5587 63.0857 24.6087 62.8857 23.8487 63.3057C22.9087 63.8157 23.2087 65.4657 24.4287 65.3057C24.8487 65.2557 25.1587 64.8657 25.2587 64.4557C25.2887 64.3357 25.2787 64.2157 25.2587 64.0957C25.3987 64.1657 25.5087 64.2557 25.5787 64.3157C26.1487 64.8257 26.5187 65.8257 26.1187 66.7557C25.7487 67.6257 25.0187 68.1957 24.0987 68.3457C23.0787 68.5057 21.9087 68.0957 21.2087 67.2757C19.9087 65.7457 20.1687 63.3357 21.6187 61.7757C22.4987 60.8257 24.2787 59.9557 26.2387 59.8657C26.2887 59.8657 27.1987 59.8657 28.8387 59.8657C29.0487 60.9057 29.9687 61.6957 31.0787 61.6957C32.1787 61.6957 33.0987 60.9057 33.3087 59.8757C33.3087 59.8757 192.539 59.8757 193.449 59.8757C194.359 59.8757 194.349 58.9357 193.449 58.9357L193.479 58.9457ZM10.1987 49.6557C9.58873 50.1157 8.72873 49.9857 8.26873 49.3757C7.81873 48.7657 7.93873 47.9057 8.54873 47.4457C9.15873 46.9857 10.0187 47.1157 10.4787 47.7257C10.9387 48.3357 10.8087 49.1957 10.1987 49.6557ZM32.4887 59.4357C32.4887 60.1957 31.8687 60.8157 31.1087 60.8157C30.3487 60.8157 29.7287 60.1957 29.7287 59.4357C29.7287 58.6757 30.3487 58.0557 31.1087 58.0557C31.8687 58.0557 32.4887 58.6757 32.4887 59.4357Z" fill="#4D4D4D"/>
</svg>
